/* XPM */
static char *_e93b75e72ae4c58b194308468ce6fa6EPRXqlYwAA6HpU1E[] = {
/* columns rows colors chars-per-pixel */
"64 64 117 2 ",
"   c #010001",
".  c #020C01",
"X  c #110101",
"o  c #041203",
"O  c gray7",
"+  c #191919",
"@  c #280504",
"#  c #390A08",
"$  c #1A3A0F",
"%  c #162C13",
"&  c #1C3B11",
"*  c #204014",
"=  c #244B15",
"-  c #275314",
";  c #295716",
":  c #305F1E",
">  c #2C6216",
",  c #31671C",
"<  c #33681F",
"1  c #34701E",
"2  c #3C7D24",
"3  c #477F31",
"4  c #4C4C4C",
"5  c #656D64",
"6  c #6A6B6B",
"7  c #677066",
"8  c #6C736A",
"9  c #727271",
"0  c #7A7373",
"q  c #7C7C7C",
"w  c #8B0E0D",
"e  c #950F0E",
"r  c #8E110F",
"t  c #861211",
"y  c #891112",
"u  c #971211",
"i  c #9D1311",
"p  c #A4120E",
"a  c #A21411",
"s  c #AF1410",
"d  c #B01411",
"f  c #BF1C1D",
"g  c #BD1C20",
"h  c #892D2A",
"j  c #923A37",
"k  c #933D3D",
"l  c #BA2324",
"z  c #B73232",
"x  c #C51211",
"c  c #CC1211",
"v  c #C21D1E",
"b  c #CC1C1B",
"n  c #D31111",
"m  c #D81715",
"M  c #D31817",
"N  c #D91816",
"B  c #D31719",
"V  c #D21C1B",
"C  c #DB1919",
"Z  c #D0201F",
"A  c #C01F21",
"S  c #C12021",
"D  c #CE2222",
"F  c #CF2A29",
"G  c #D22424",
"H  c #DE2223",
"J  c #D22826",
"K  c #D32E2E",
"L  c #D82E2F",
"P  c #C13E3C",
"I  c #ED2525",
"U  c #E82729",
"Y  c #F42C2D",
"T  c #F92F30",
"R  c #EC3535",
"E  c #F53637",
"W  c #FB3031",
"Q  c #F43B3C",
"!  c #8C4D4D",
"~  c #8D5352",
"^  c #B35353",
"/  c #B25758",
"(  c #C34343",
")  c #F84241",
"_  c #408226",
"`  c #45842F",
"'  c #498E2F",
"]  c #4C8534",
"[  c #4D9532",
"{  c #58A43C",
"}  c #5DAA3E",
"|  c #5EAB41",
" . c #868686",
".. c #8E8E8E",
"X. c #A09F9F",
"o. c #9FA09F",
"O. c #9E9FA0",
"+. c #A09FA0",
"@. c #9DA1A1",
"#. c #A2A2A2",
"$. c #A8A6A7",
"%. c #A9A9A9",
"&. c #ACACAC",
"*. c #B2B2B2",
"=. c #BFBFBF",
"-. c #C0C0C0",
";. c #C8C8C9",
":. c #CBCBCB",
">. c #CFCFCF",
",. c gray83",
"<. c #DADADA",
"1. c #EEEEEE",
"2. c gray95",
"3. c #F6F6F6",
"4. c gray98",
"5. c gray99",
"6. c white",
/* pixels */
"6.6.6.6.6.6.6.6.6.6.6.6.6.6.6.6.6.6.6.6.6.6.6.6.6.6.6.6.6.6.6.6.6.6.6.6.6.6.6.6.6.6.6.6.6.6.6.6.6.6.6.6.6.6.6.6.6.6.6.6.6.6.6.6.",
"6.6.6.6.6.6.6.6.6.6.6.6.6.6.6.6.6.6.6.6.6.6.6.6.6.6.6.6.6.6.6.6.6.6.6.6.6.6.6.6.6.6.6.6.6.6.6.6.6.6.6.6.6.6.6.6.6.6.6.6.6.6.6.6.",
"6.6.6.6.6.6.6.6.6.6.6.6.6.6.6.6.6.6.6.6.6.6.6.6.6.6.6.6.6.6.6.6.6.6.6.6.6.6.6.6.6.6.6.6.6.6.6.6.6.6.6.6.6.6.6.6.6.6.6.6.6.6.6.6.",
"6.6.6.6.6.6.6.6.6.6.6.6.6.6.6.6.6.6.6.6.6.6.6.6.6.6.6.6.6.6.6.6.6.6.6.6.6.6.6.6.6.6.6.6.6.6.6.6.6.6.6.6.6.6.6.6.6.6.6.6.6.6.6.6.",
"6.6.6.6.6.6.6.6.6.6.6.6.6.6.6.6.6.6.6.6.6.6.6.6.6.6.6.6.6.6.6.6.6.6.6.6.6.6.6.6.6.6.6.6.6.6.6.6.6.6.6.6.6.6.6.6.6.6.6.6.6.6.6.6.",
"6.6.6.6.6.6.6.6.6.6.6.6.6.6.6.6.6.6.6.6.6.6.6.6.6.6.6.6.6.6.6.6.6.6.6.6.6.6.6.6.6.6.6.6.6.6.6.6.6.6.6.6.6.6.6.6.6.6.6.6.6.6.6.6.",
"6.6.6.6.6.6.6.6.6.6.6.6.6.6.6.6.6.6.6.6.6.6.6.6.6.6.6.6.6.6.6.6.6.6.6.6.3.*.*.*.*.*.*.*.*.*.*.*.:.6.6.6.6.6.6.6.6.6.6.6.6.6.6.6.",
"6.6.6.6.6.6.6.6.6.6.6.6.6.6.6.6.6.6.6.6.6.6.6.6.6.6.6.6.6.6.6.6.6.6.6.6.1.                      ..6.6.6.6.6.6.6.6.6.6.6.6.6.6.6.",
"6.6.6.6.6.6.6.6.6.6.6.6.6.6.6.6.6.6.6.6.6.6.6.6.6.6.6.6.6.6.6.6.6.6.4.&.#.] ] ] ] ] 3 , : = &   ..6.6.6.6.6.6.6.6.6.6.6.6.6.6.6.",
"6.6.6.6.6.6.6.6.6.6.6.6.6.6.6.6.6.6.6.6.6.6.6.6.6.6.6.6.6.6.6.6.6.6.3.  % } | | | | { _ 2 > ;   ..6.6.6.6.6.6.6.6.6.6.6.6.6.6.6.",
"6.6.6.6.6.6.6.6.6.6.6.6.6.6.6.6.6.6.6.6.6.6.6.6.6.6.6.6.6.%.%.6.6.%.$.] ] [ [ [ [ [ ' < , $ 8 :.<.6.6.6.6.6.6.6.6.6.6.6.6.6.6.6.",
"6.6.6.6.6.6.6.6.6.6.6.6.6.6.6.6.6.6.6.6.6.6.6.6.6.6.6.6.6.O   6.6.  o | } _ _ _ _ _ 2 > ;    .6.6.6.6.6.6.6.6.6.6.6.6.6.6.6.6.6.",
"6.6.6.6.6.6.6.6.6.6.6.6.6.6.6.6.6.6.6.6.6.6.6.6.6.6.6.6.6.:.:.#.#.  . ` ` , 1 1 1 1 < & 7 :.<.6.6.6.6.6.6.6.6.6.6.6.6.6.6.6.6.6.",
"6.6.6.6.6.6.6.6.6.6.6.6.6.6.6.6.6.6.6.6.6.6.6.6.6.6.6.6.6.6.6.      . > > > > > > > ;   q 6.6.6.6.6.6.6.6.6.6.6.6.6.6.6.6.6.6.6.",
"6.6.6.6.6.6.6.6.6.6.6.6.6.6.6.6.6.6.6.6.6.6.6.6.6.6.6.6.6.6.6.    >.:.$ $ $ $ $ $ $ 5 >.<.6.6.6.6.6.6.6.6.6.6.6.6.6.6.6.6.6.6.6.",
"6.6.6.6.6.6.6.6.6.6.6.6.6.6.6.6.6.6.6.6.6.6.6.6.6.6.6.6.6.6.6.    6.3.              q 6.6.6.6.6.6.6.6.6.6.6.6.6.6.6.6.6.6.6.6.6.",
"6.6.6.6.6.6.6.6.6.6.6.6.6.6.6.6.6.6.6.6.6.6.6.6.6.6.6.6.6.6.6.    6.6.,.,.,.,.,.,.,.<.6.6.6.6.6.6.6.6.6.6.6.6.6.6.6.6.6.6.6.6.6.",
"6.6.6.6.6.6.6.6.6.6.6.6.6.6.6.6.6.6.6.6.6.6.6.6.6.6.6.6.6.6.6.    6.6.6.6.6.6.6.6.6.6.6.6.6.6.6.6.6.6.6.6.6.6.6.6.6.6.6.6.6.6.6.",
"6.6.6.6.6.6.6.6.6.6.6.6.6.6.6.6.6.6.6.6.6.#.q q q  .q 2.6.6.6.    6.6.6.2.q  .q q q +.6.6.6.6.6.6.6.6.6.6.6.6.6.6.6.6.6.6.6.6.6.",
"6.6.6.6.6.6.6.6.6.6.6.6.6.6.6.6.6.6.6.6.6.q           1.6.6.6.    6.6.6.1.          q 6.6.6.6.6.6.6.6.6.6.6.6.6.6.6.6.6.6.6.6.6.",
"6.6.6.6.6.6.6.6.6.6.6.6.6.6.6.6.6.6.6.$.q ( G G G G G 0 q q q     q q q 0 i u u i i k q #.6.6.6.6.6.6.6.6.6.6.6.6.6.6.6.6.6.6.6.",
"6.6.6.6.6.6.6.6.6.6.6.6.6.6.6.6.6.6.6.q   G I I I I I #                 @ d s s s d i . q 6.6.6.6.6.6.6.6.6.6.6.6.6.6.6.6.6.6.6.",
"6.6.6.6.6.6.6.6.6.6.6.6.6.6.6.6.6.$.q ( G V m m m m m a i i p i p i i i i s s s s s a i k q $.6.6.6.6.6.6.6.6.6.6.6.6.6.6.6.6.6.",
"6.6.6.6.6.6.6.6.6.6.6.6.6.6.6.6.6. .  G I m n n n n n d d d d d s d d d d d d d d d s d i    .6.6.6.6.6.6.6.6.6.6.6.6.6.6.6.6.6.",
"6.6.6.6.6.6.6.6.6.6.6.6.6.6.6.#.6 P H m m n n n n n n n c n c c c c c n c c n c c c c s s p j 6 $.6.6.6.6.6.6.6.6.6.6.6.6.6.6.6.",
"6.6.6.6.6.6.6.6.6.6.6.6.6.6.6...  D I m n n n n n n n n n n n n n n n n n n n n n n c s s s u   ..6.6.6.6.6.6.6.6.6.6.6.6.6.6.6.",
"6.6.6.6.6.6.6.6.6.6.6.6.6.%.4 z H C n n n I T T T m n n n n n n n n n n n n n n n n n c x s s p h 4 %.6.6.6.6.6.6.6.6.6.6.6.6.6.",
"6.6.6.6.6.6.6.6.6.6.6.6.6.#.  S I m n n n Y W T W N n n n n n n n n n n n n n n n n n n c s s s r   O.6.6.6.6.6.6.6.6.6.6.6.6.6.",
"6.6.6.6.6.6.6.6.6.6.6.6.6.#.  S I C n Y W W W W W W W n n n n n n n n n n n n n n n n n c s s d r   o.6.6.6.6.6.6.6.6.6.6.6.6.6.",
"6.6.6.6.6.6.6.6.6.6.6.6.6.@.  g I C n Y W W W T W W W m n n n n n n n n n K J n n n n n c s d d r   O.6.6.6.6.6.6.6.6.6.6.6.6.6.",
"6.6.6.6.6.6.6.6.6.6.6.%.+ l U C n n n Y T W Q W W W W m n n n n n n n V M K F n n n n n n n x d s s t + %.6.6.6.6.6.6.6.6.6.6.6.",
"6.6.6.6.6.6.6.6.6.6.6.%.  f I N n n n Y E Q ) Q E Q E Z Z m D Z V M D G G b V D G V Z D n n x s s s r   %.6.6.6.6.6.6.6.6.6.6.6.",
"6.6.6.6.6.6.6.6.6.6.6.%.  v I C n n n n V E Q Q Q L b G b G G b J b V J G b J G b G D D n n c s s s r   %.6.6.6.6.6.6.6.6.6.6.6.",
"6.6.6.6.6.6.6.6.6.6.6.%.  v I C n n n n B R W Q W G V M G V V c G Z n M V V V b M V V Z b n c s s s w   %.6.6.6.6.6.6.6.6.6.6.6.",
"6.6.6.6.6.6.6.6.6.6.6.%.  v I m n n n n n n n n n n n n n n n n n n n n n n n n n n n n n n x s s s r   %.6.6.6.6.6.6.6.6.6.6.6.",
"6.6.6.6.6.6.6.6.6.6.6.%.  f I C n n n n n n n n n n n n n n n n n n n n n n n n n n n n n n c s s s w   %.6.6.6.6.6.6.6.6.6.6.6.",
"6.6.6.6.6.6.6.6.6.6.6.$.  f I C n n n n n n n n n n n n n n n n n n n n n n n n n n n n n n c s s s w   %.6.6.6.6.6.6.6.6.6.6.6.",
"6.6.6.6.6.6.6.6.6.6.6.%.  f I m n n n n n n n n n n n n n n n n n n n n n n n n n n n n n n c s s s w   %.6.6.6.6.6.6.6.6.6.6.6.",
"6.6.6.6.6.6.6.6.6.6.6.%.  v I C n n n n n n n n n n n n n n n n n n n n n n n n n n n n n n c s d s e   %.6.6.6.6.6.6.6.6.6.6.6.",
"6.6.6.6.6.6.6.6.6.6.6.%.  v I C n n n n n n n n n n n n n n n n n n n n n n n n n n n n n n c s s s w   %.6.6.6.6.6.6.6.6.6.6.6.",
"6.6.6.6.6.6.6.6.6.6.6.%.  f I N n n n n n n n n n n n n n n n n n n n n n n n n n n n n n n c s s s w   %.6.6.6.6.6.6.6.6.6.6.6.",
"6.6.6.6.6.6.6.6.6.6.6.%.  f I C n n n n n n n n n n n n n n n n n n n n n n n n n n n n n n c s s s w   $.6.6.6.6.6.6.6.6.6.6.6.",
"6.6.6.6.6.6.6.6.6.6.6.%.  f I N n n n n n n n n n n n n n n n n n n n n n n n n n n n n n n c s s s w   %.6.6.6.6.6.6.6.6.6.6.6.",
"6.6.6.6.6.6.6.6.6.6.6.=.q ^ G B m n n n n n n n n n n n n n n n n n n n n n n n n n n n n c x s p i ! q =.6.6.6.6.6.6.6.6.6.6.6.",
"6.6.6.6.6.6.6.6.6.6.6.6.6.#.  A I m n n n n n n n n n n n n n n n n n n n n n n n n n n c s s s r . X.6.6.6.6.6.6.6.6.6.6.6.6.6.",
"6.6.6.6.6.6.6.6.6.6.6.6.6.#.  A I m n n n n n n n n n n n n n n n n n n n n n n n n n n c s s s r   X.6.6.6.6.6.6.6.6.6.6.6.6.6.",
"6.6.6.6.6.6.6.6.6.6.6.6.6.X.  A I m n n n n n n n n n n n n n n n n n n n n n n n n n n c s s s r   O.6.6.6.6.6.6.6.6.6.6.6.6.6.",
"6.6.6.6.6.6.6.6.6.6.6.6.6.=...^ A V C n n n n n n n n n n n n n n n n n n n n n n n c c x s p e ! ..-.6.6.6.6.6.6.6.6.6.6.6.6.6.",
"6.6.6.6.6.6.6.6.6.6.6.6.6.6.6...  D I C n n n n n n n n n n n n n n n n n n n n n n c s d s i   ..6.6.6.6.6.6.6.6.6.6.6.6.6.6.6.",
"6.6.6.6.6.6.6.6.6.6.6.6.6.6.6.=.X./ A B C m n n n n n n n n n n n n n n n n n n n x x d p r ~ +.-.6.6.6.6.6.6.6.6.6.6.6.6.6.6.6.",
"6.6.6.6.6.6.6.6.6.6.6.6.6.6.6.6.6. .  G I m n n n n n n n n n n n n n n n n n n c d d s i    .6.6.6.6.6.6.6.6.6.6.6.6.6.6.6.6.6.",
"6.6.6.6.6.6.6.6.6.6.6.6.6.6.6.6.6.-.#.^ g V C m n n n x x x x x x x x x x x x x x s a w ~ #.=.6.6.6.6.6.6.6.6.6.6.6.6.6.6.6.6.6.",
"6.6.6.6.6.6.6.6.6.6.6.6.6.6.6.6.6.6.6.q   G I B n n n d d d s s d s d d s s s s s s u   q 6.6.6.6.6.6.6.6.6.6.6.6.6.6.6.6.6.6.6.",
"6.6.6.6.6.6.6.6.6.6.6.6.6.6.6.6.6.6.6.-.%./ f x x x x d d w w w w w w d s s s s s t ~ %.=.6.6.6.6.6.6.6.6.6.6.6.6.6.6.6.6.6.6.6.",
"6.6.6.6.6.6.6.6.6.6.6.6.6.6.6.6.6.6.6.6.6.q   i d s s s d X         X s s s d s i   q 6.6.6.6.6.6.6.6.6.6.6.6.6.6.6.6.6.6.6.6.6.",
"6.6.6.6.6.6.6.6.6.6.6.6.6.6.6.6.6.6.6.6.6.-.%.! y y w y t $.&.    %.$.t w y y y ! %.=.6.6.6.6.6.6.6.6.6.6.6.6.6.6.6.6.6.6.6.6.6.",
"6.6.6.6.6.6.6.6.6.6.6.6.6.6.6.6.6.6.6.6.6.6.6.9           3.6.    6.3.          9 6.6.6.6.6.6.6.6.6.6.6.6.6.6.6.6.6.6.6.6.6.6.6.",
"6.6.6.6.6.6.6.6.6.6.6.6.6.6.6.6.6.6.6.6.6.6.6.-.*.*.*.*.*.4.6.*.*.6.4.*.*.*.*.*.-.6.6.6.6.6.6.6.6.6.6.6.6.6.6.6.6.6.6.6.6.6.6.6.",
"6.6.6.6.6.6.6.6.6.6.6.6.6.6.6.6.6.6.6.6.6.6.6.6.6.6.6.6.6.6.6.6.6.6.6.6.6.6.6.6.6.6.6.6.6.6.6.6.6.6.6.6.6.6.6.6.6.6.6.6.6.6.6.6.",
"6.6.6.6.6.6.6.6.6.6.6.6.6.6.6.6.6.6.6.6.6.6.6.6.6.6.6.6.6.6.6.6.6.6.6.6.6.6.6.6.6.6.6.6.6.6.6.6.6.6.6.6.6.6.6.6.6.6.6.6.6.6.6.6.",
"6.6.6.6.6.6.6.6.6.6.6.6.6.6.6.6.6.6.6.6.6.6.6.6.6.6.6.6.6.6.6.6.6.6.6.6.6.6.6.6.6.6.6.6.6.6.6.6.6.6.6.6.6.6.6.6.6.6.6.6.6.6.6.6.",
"6.6.6.6.6.6.6.6.6.6.6.6.6.6.6.6.6.6.6.6.6.6.6.6.6.6.6.6.6.6.6.6.6.6.6.6.6.6.6.6.6.6.6.6.6.6.6.6.6.6.6.6.6.6.6.6.6.6.6.6.6.6.6.6.",
"6.6.6.6.6.6.6.6.6.6.6.6.6.6.6.6.6.6.6.6.6.6.6.6.6.6.6.6.6.6.6.6.6.6.6.6.6.6.6.6.6.6.6.6.6.6.6.6.6.6.6.6.6.6.6.6.6.6.6.6.6.6.6.6.",
"6.6.6.6.6.6.6.6.6.6.6.6.6.6.6.6.6.6.6.6.6.6.6.6.6.6.6.6.6.6.6.6.6.6.6.6.6.6.6.6.6.6.6.6.6.6.6.6.6.6.6.6.6.6.6.6.6.6.6.6.6.6.6.6."
};
