/* XPM */
static char *_dec0e99d3ee49359d590479a500c52bjjl1swYbnsiKg4j3[] = {
/* columns rows colors chars-per-pixel */
"64 64 227 2 ",
"   c #010202",
".  c #0A0003",
"X  c #010A01",
"o  c #02010C",
"O  c #000908",
"+  c #080C00",
"@  c #11000D",
"#  c #011300",
"$  c #021C00",
"%  c #0E130C",
"&  c #020212",
"*  c #0A0013",
"=  c #040A10",
"-  c #1A0117",
";  c #0A1710",
":  c #002501",
">  c #09290A",
",  c #172C08",
"<  c #0B3502",
"1  c #033A00",
"2  c #0C3A02",
"3  c #0C3E0A",
"4  c #093308",
"5  c #1B3505",
"6  c #123C01",
"7  c #1C3E02",
"8  c #14370B",
"9  c #133B0B",
"0  c #15330B",
"q  c #0B2C14",
"w  c #112913",
"e  c #193D13",
"r  c #044300",
"t  c #0D4500",
"y  c #054B00",
"u  c #0D4C01",
"i  c #0E440A",
"p  c #0A4B09",
"a  c #124401",
"s  c #1A4303",
"d  c #114D01",
"f  c #1A4C05",
"g  c #1B430C",
"h  c #134B0A",
"j  c #1B4C0B",
"k  c #15400B",
"l  c #025301",
"z  c #0C5200",
"x  c #035D00",
"c  c #0D5A01",
"v  c #0D5208",
"b  c #0B5808",
"n  c #135201",
"m  c #1B5302",
"M  c #145B01",
"N  c #195C03",
"B  c #14540C",
"V  c #1E550F",
"C  c #1B5A09",
"Z  c #1B4B12",
"A  c #154513",
"S  c #1C5A15",
"D  c #224B0A",
"F  c #22510B",
"G  c #235816",
"H  c #0E6301",
"J  c #0B6D00",
"K  c #056700",
"L  c #136300",
"P  c #1B6204",
"I  c #166C01",
"U  c #1B6A02",
"Y  c #1D630A",
"T  c #1D6E08",
"R  c #126C08",
"E  c #057800",
"W  c #147400",
"Q  c #1C7402",
"!  c #147D00",
"~  c #1C7C01",
"^  c #1F7D0B",
"/  c #196512",
"(  c #1D7F12",
")  c #21620A",
"_  c #216C08",
"`  c #276706",
"'  c #237D04",
"]  c #21750A",
"[  c #257A0A",
"{  c #257608",
"}  c #266515",
"|  c #336B1A",
" . c #2D7B15",
".. c #277517",
"X. c #317B19",
"o. c #357E17",
"O. c #326E24",
"+. c #327B22",
"@. c #3D7A25",
"#. c #3B792A",
"$. c #407824",
"%. c #0D8500",
"&. c #158300",
"*. c #158C01",
"=. c #1A8A00",
"-. c #1D8600",
";. c #1B9D00",
":. c #199604",
">. c #298F04",
",. c #26870B",
"<. c #228B05",
"1. c #279506",
"2. c #309805",
"3. c #2A8618",
"4. c #35831B",
"5. c #348518",
"6. c #259511",
"7. c #349718",
"8. c #19A102",
"9. c #24AA02",
"0. c #27A403",
"q. c #2CB301",
"w. c #2AB905",
"e. c #2DA116",
"r. c #35AC17",
"t. c #3CAB1D",
"y. c #3BA718",
"u. c #36B41A",
"i. c #3CB21D",
"p. c #33B805",
"a. c #2F8024",
"s. c #388129",
"d. c #3A9826",
"f. c #3FA525",
"g. c #3ABC22",
"h. c #41841B",
"j. c #49AA14",
"k. c #43A61C",
"l. c #418429",
"z. c #499C28",
"x. c #47AE26",
"c. c #4CAB27",
"v. c #44AD2C",
"b. c #4BAB2B",
"n. c #4BA62A",
"m. c #54A929",
"M. c #44B127",
"N. c #4CB42B",
"B. c #48B229",
"V. c #54B124",
"C. c #4BA132",
"Z. c #4BAA32",
"A. c #55AE34",
"S. c #59AA3E",
"D. c #54A93A",
"F. c #4CB232",
"G. c #59BE37",
"H. c #1EC201",
"J. c #2CC101",
"K. c #23C100",
"L. c #3CC515",
"P. c #48CD1A",
"I. c #47D51F",
"U. c #4ACB27",
"Y. c #52CA2B",
"T. c #5AC42E",
"R. c #4ADA22",
"E. c #4CCC3B",
"W. c #56C135",
"Q. c #52CC34",
"!. c #57C835",
"~. c #5AD436",
"^. c #5BD638",
"/. c #58DD2A",
"(. c #61D532",
"). c #58F327",
"_. c #5BF735",
"`. c #54EB30",
"'. c #64FD2D",
"]. c #66F529",
"[. c #62FF35",
"{. c #6EFF34",
"}. c #64FF3D",
"|. c #6BFF3C",
" X c #6DF53B",
".X c #73FD3D",
"XX c #7BFE3E",
"oX c #74F935",
"OX c #69CA45",
"+X c #65D14E",
"@X c #64D843",
"#X c #7BDD52",
"$X c #64FF43",
"%X c #6CFE44",
"&X c #6DF74D",
"*X c #66FF4A",
"=X c #6DFE4B",
"-X c #6AF543",
";X c #73F543",
":X c #7AF644",
">X c #73FE45",
",X c #79FE44",
"<X c #74F64C",
"1X c #7AF54C",
"2X c #74FF4A",
"3X c #7AFE4C",
"4X c #75E65A",
"5X c #76EE51",
"6X c #6BFF53",
"7X c #6AFB56",
"8X c #74F351",
"9X c #7CF654",
"0X c #74FE52",
"qX c #7BFE53",
"wX c #7DF459",
"eX c #75FF5B",
"rX c #7BFE5B",
"tX c #76FF63",
"yX c #84F93B",
"uX c #82FC4D",
"iX c #82F553",
"pX c #82FC54",
"aX c #80FD5B",
"sX c #90FA5A",
"dX c #81FC64",
"fX c #84FB66",
"gX c #94F860",
/* pixels */
"6X:X).).&X3X%X=X&X,X2X%X%X<X9X>X2X2X2X2X2X2X>X3X2X2X2X2X2X2X2X2XXX%X6X2X3X2X>X,X>X2X2X2X2X>X>X2X2X&X2X2X2X>X3X2X2X2X2X2X2X2X2X2X",
"}.'.&.y W 0.R.).%X}.%XrXqX2X%X.X2X2X2X2X2X2X2X2X2X2X2X2X2X2X2X2X3X2X=X3X3X6X6X0X2X2X>X2X>X2X2X2X2X2X2X2X3X2X2X2X2X2X2X2X2X2X2X2X",
"{.P.t *   X o > c <.U.>X%X|.>X<X2X2X2X2X2X2X2X2X2X2X2X2X2X2X2X2XqX0X%X,X.X>X2X%XqX<X<X8X<X8X2XqX=X2X2X%X0X2X>X>X2X2X2X2X2X2X2X2X",
"_./ o o       X @   l /.%X2X3XrX2X2X2X>X2X2X2X2X2X2X2X2X2X2X2X2X<X2X>X2X:X:X3X2X2X2X3X2X2X2X3X2X>X%X2X2X2X2X2X,X2X2X2X2X2X2X2X2X",
"'.5.1 : . # ( 8.*.E 8.|.2X<X%X0X2X2X2X2X2X2X2X2X>X2X2X2X2X2X>X3X2X>X>X0X0X0X6X6X2X=X2X2X2X2X>X2XqX%X>X2X&X2X2X2X2X2X2X2X2X2X2X2X",
"%X_._.I.L.J.].:X0X=X%XpX5X2X>X2X2X2X2X2X2X2X2X2X2X2X2X2X2X2X2X2X3XqX%X%X=X0X&X>X2X2X2X2X2X0X2X2X0XqX>X3X%X0X2X>X2X2X2X2X2X2X2X2X",
"qX|..X:XrX<X%X>X2X|.|.0X2X>X2X2X2X2X2X2X2X2X2X2X2X2X2X2X2X2X2X2X%XrX>X{.>Xb.S.V.F.F.F.F.F.F.F.F.!.eX>X>X2X0X0X>X2X2X2X2X>X2X2X2X",
"*XrXXX>X7X$X3X6X3X3X2X$X>X<XrX|.2X2X2X2X3X>X2X2X2X2X2X2X2X2X2X2X>X0X0XXX#XX o X                 e.wX3X>X2X=X0X2X2X2X2X2X2X2X2X2X",
"2X2X2X2X3X>X2X2X2X2X2X2X2X2X2X2X2X2X2X2X2X>X2X2X,X8X=X0X{.qX0X|.%X0X}.B.u.6.>.;.:.2.*.J L j a   7.wX2X>X>X3X0X2X2X2X2X2X2X2X2X2X",
"2X2X2X2X2X2X2X2X2X2X2X2X2X2X2X2X2X2X2X2X2X2X2X2X.XrX%X5X3X%X{.dXrX2X9XX > p.H.w.K.q.q.1.:.J P   y.8X>X>X2XqX<X%X2X2X2X3X2X2X2X2X",
">X2X2X2X2X2X2X2X2X2X2X2X2X2X2X2X2X2X2X2X2X2X2X2X3X%X2X3X>XD.D.|._.n.C.:.1.9.8.9.;.0.6.-.J i ..!.~.2X2X=X2XrX2X%X2X2X2X>X>X2X2X2X",
"2X2X2X2X2X2X2X2X2X2X2X2X2X2X2X2X2X2X2X2X2X2X2X2X<X|.2X%X>X%   3X3X. ; K.q.=.2.*.>.=.=.I L X @..XqXqX2X>X&X2X2X2X2X2X2X2X2X2X2X2X",
"2X2X2X2X2X2X2X2X2X2X2X2X2X2X2X2X2X2X2X2X2X2X2X2XqX*XqX>X>XE.Y.M.k.O X ;.<.<.U ' ' &.Q 5 O.OX^.3X2X=X2X2X2X0X2X2X2X2X2X2X2X2X2X2X",
"2X2X2X2X2X2X2X2X2X2X2X2X2X2X2X2X2X2X2X2X2X2X2X2X%X%X1XrX5X0XqX  . . X R K ) ) I I P m    .pX[.6X>X>X2X2X2X2X2X2X>X2X2X2X2X2X2X2X",
"2X2X2X2X2X2X2X2X>X2X2X2X2X2X2X2X2X2X2X2X2X2X2X2X2X>X1X6X,X3XrX  = U.+X9 2 3 y 2 t 6 { @X`. XqX1X2X2X2X3X2X%X0X2X3X2X2X2X2X2X2X2X",
"2X2X2X2X2X2X2X2X2X2X2X2X3X2X2X>X2X2X>X2X2X2X2X2X2X|.pX=X[.,X:XO . *X%X  X o   .   & 5.1X=XtX6XuX2X2X2X3X2X%X2X2X2X2X2X2X2X2X2X2X",
"2X2X2X2X2X2X2X2X2X2X2X2X2X2X2X2X>XdX0X%X=XqX>X=X2X2X>X2X&X%XpX    tX}././.(.+X~.OX~.`.0X0X%XqX>X2X2X2X2X2X2X2X2X2X2X2X2X2X2X>X3X",
"2X2X2X2X2X2X2X2X2X2X2X2X2X2X3X>X>X].,XuX3X<X2X2X*X%XsX XrX0X$XX . &XrXdX;XgX=X}.>X>X1X1XpX>X%XqX2X2X2X2X2X2X2X2X2X2X2X2X2X2X2X2X",
"2X2X2X2X2X2X2X2X2X2X2X2X2X2X2X2XtX%X2X2X.XM.X.$.s.a.o.-X%X|.>X. . |.%X%X>X#.4.s.s.o.x.0X%X%X%X%X2X2X2X2X>X2X2X2X2X2X2X2X2X2X2X2X",
"2X2X>X3X2X2X>X2X2X2X2X2X2X2X2X2X<X0X$X=XrXX.X o . X # 4X%XXX9Xo   uX3X|.4XX X . o X #.0X2X<XfX>X2X2X2X2X2X2X2X2X2X2X2X2X2X2X2X2X",
"3X>X2X2X2X2X2X2X2X2X2X2X2X2X2X2XuXeXpX7.+._ N N ` C M +.X.5.@.O O $.4.X.X.1 2 a 9 9 h  .x.iX3X.X2X2X2X2X2X2X2X2X2X2X2X2X2X2X2X2X",
"2X2X2X2X2X2X2X2X2X2X2X>X2X2X2X2XyX>X,X$.X P H U L Y _ $ o   . o o     o # j g a z y 2 $ $.0X}.0X2X2X2X2X2X2X2X2X2X2X2X2X2X2X2X>X",
"2X2X2X2X2X2X2X2X2X2X2X2X2X2X2X2X6Xt.3.G S v M m B n M r 3 a t y t a 2 i t r i p s t h < Z 3.g.0X2X2X2X2X2X2X2X2X2X2X2X2X2X2X2X2X",
"2X2X2X2X2X2X2X2X2X2X2X2X2X2X2X2X6Xh.X } J z m u z u f t h a t A a a t h a 7 h a a a u y 0 X $.>X2X2X2X2X2X2X2X2X2X2X2X2X2X2X2X2X",
"2X2X2X2X2X>X2X2X3X>X=X2XyX*X$XC...T M V Z v y f d d h d t n u d t u n n u y a d p t h d t 2 m | v.{.$X3X.X%X0X9X2X2X2X2X2X2X2X2X",
"2X2X2X2X2X2X2X2X>X3X2X-XfXrXXXd.$ z I c y c n h n z n d u u u n m d d d u m m y m M d t t h 1 $ d.iXeXiX2XqX>X%X>X2X2X2X2X2X2X>X",
"2X2X2X2X2X2X2X2X=X-X3X2X3Xu.m H N N n h m U Q W _ c u u m m d m n d d n d n d u t d d t a h a 2 6 F g.3X-X0X3X%X3X2X2X2X2X2X2X2X",
"2X2X>X2X2X2X2X2X=XrX>X%XeXf.+ b P M t d M I ~ &.{ H z u n n a a d y t n n t d n B h d m m t t a < O r.2X0X2X,X%X2X2X2X2X2X2X2X2X",
"2X2X2X2X2X2X2X2X2X2X>X2X%Xf.o n Y M z _ ~ W { ] ~ Q T n n t d d m u d n u n n u d u u d d h i a 5 o r.2X2X%X3X2X2X2X2X2X2X2X2X2X",
"2X2X2X2X2X2X2X2X2X2X2X>XuXZ.= m U n y ..[ W W ~ ! ~ [ M n u m d t n u u n Y Y u p n m u t t a d 0 X x.dX}.%XqX9X2X2X2X3X2X2X2X2X",
"2X2X2X2X2X2X2X2X3X2X3Xt.$ L N m l d f U ! ~ ,.! ! W Q z z d n y z n n n M Y Y z n u t n m m t a u 1 1 : y.qX>X>X2X2X2X>X2X2X2X2X",
"2X2X2X2X2X2X>X3X=X&X9XA.o n J M M g a ~ %.&.,.~ ~ ~ [ L M B C N n n M N M M c M M M N M z u h a y h 5 * c.qX=X>X2X2X2X2X2X2X2X2X",
"2X2X2X2X2X2X2X2X2X2X>Xb.o n L M d d z z M Q <.-.' I c n P M M c P M M M M M N N M M P N n d a d a t 2   Z.%X2X2X2X2X2X2X2X2X2X2X",
"2X2X2X2X2X2X2X2X2X2X2Xb.  n U M p u d n M T ] ' Q L c M N N n n M n n n M M m M n M M M n d d a a t 2   Z.2X2X2X2X2X2X2X2X2X2X2X",
"2X2X2X2X2X2X2X2X2X2X2Xb.o n P M m m d a u n z z n n d d d a t n M d u n n u u n z n n n n n a t a t 2   Z.=X2X2X2X2X2X2X2X2X2X2X",
"2X2X2X>X2X2X2X2X2X2X>Xx.o n I M d d d d m t y u d u d h d d d v d d d d d d d u m d t u d d d t a a <   Z.2X2X2X2X2X2X2X2X2X2X2X",
"2X2X2X2X2X2X2X2X2X2X2Xn.X d U M z d d m d d d m n n d m n n u m d n d d n n d d d h d u d d d d d t <   Z.2X2X2X2X2X2X2X2X2X2X2X",
"2X2X2X2X2X2X2X2X2X2X2Xn.o n P M u z u u u u d d u u u u u u u z u d d d d d d u d d m d d d d a a a 2   Z.>X2X2X2X2X2X2X2X2X>X3X",
">X2X2X2X2X2X2X2X2X2X2Xb.  n L M d u d u n n n n d n u u n n n n d d u d d d d d d d n d d d d a a t 2   Z.2X2X2X2X2X2X2X2X2X2X2X",
"2X2X2X2X2X2X2X2X2X2X2Xb.o m U M d d m d t m d a d d d d u d d h d n n u d d n d n u u u n d d u a t 2   Z.=X2X2X2X2X2X2X2X2X2X2X",
"2X2X2X2X2X2X2X2X%X9X[.b.  z I n d d u u d n d d d n d d d n u d d d d d u d d n d u d d d d d t t d < X x.|.eX%X2X2X2X2X2X2X2X2X",
"2X2X2X2X3X>X2X2X3XqX2XC.. m W B u d n d d d d d d d u d d u n d u n u d n d d d d d u d d d t a A r 8 o m.2X0X,X2X2X2X2X3X2X>X2X",
"2X2X2X2X2X2X2X2XqX>XaXC.  F J n n u d d n d d d d d d d d n u d n u n d d d d d d u d d n d d t 2 d 3   n.aX;X3X2X2X2X2X2X2X2X2X",
"2X2X2X2X2X2X2X2X%X%XqXU.X.R } c M n n u d d n d d d z d d d d d d d d d u d n d d d d d d d a a n 6 C X.Y.<X=X2X>X2X2X2X2X2X2X2X",
"2X2X2X2X2X2X2X2X>X2X>X2X0Xn.  H Y M u u d d m d d d n d n d d d d d u d d n d u d d u d d a a a 1   z.0X2X0X0X2X2X2X2X2X2X2X2X2X",
"2X2X2X2X2X2X2X2X2X<XqX%X}.v.- z Y M u u d d d z d d u d u d d d d u d d d d n d d d d d d d a a 9 * A.|.=X3X>X>X2X2X2X>X2X2X2X2X",
"2X3X2X2X>X2X2X2X2XqX9X2X2Xt.X C P M n d d d d d n u d u d d d d n d u n u n d d d d d d d a a a 4 X t.3X0X3X,X>X2X3X2X2X2X2X2X2X",
"2X2X2X2X2X2X2X2X>X>XqX|.qXY.d.T M M z m f d u n d d d n d d d d d d d d d d u d n d d d a t t t G 7.R.uX%X6X,X0X2X2X2X2X2X2X2X2X",
">X2X2X2X2X2X2X2X>XqX2X2X>X>X8Xe.O / M m v n f z d a n d d d a d h t d n n v h j d t u t a r s o e.8X>X,X2X2X0X>X2X2X2X2X2X2X2X2X",
"2X2X2X2X2X2X2X2X2X2X6X2X>X3X9XQ.f.` c G m v B a v z z b z d m v n m f t z n u z j B M 7 e 6 N t.Q.qX>X>X2X0X0X2X2X2X2X2X2X2X2X2X",
"2X2X2X2X2X2X2X2X3X2X0X2X>X>XqX8XpX5.o c I n y v a B t d m B y y l u n d t d B t l t t r 8 O l.0X8XqX>X>X2X0X2X,X2X2X2X2X2X2X2X2X",
"2X2X2X2X2X2X2X>X>X>X0X2X2X>X2XrX2XW.t.[ c V m N t n p D s t h D j u y j D p z d d 7 s t ) C.E.|.qX2X=X2X2XqX2X>X2X2X2X2X2X2X2X2X",
"2X2X2X2X2X2X2X2X>X2XqX0X2X2X%X2X0XeX3X3.& M Q a M d d a r y M r r m a t a 6 a h 9 l e o s.%X6XqX2X%X2X=X0XqX2X>X2X2X2X2X2X2X2X2X",
"2X2X>X2X2X2X2X2X>X2X2X2X=X2X%X>X>X2X1XG.n.| x d v A 6 u B q w 2 2 w q u u 7 g r a 1 S C.Y.,XoXpX>X>X2X>X2X2X2X2X2X2X2X2X>X2X2X2X",
"2X2X2X2X2X2X3X2X3X2X>X<X2X3X2X2X2X>X3X2X2X( o t l t t m 2 X o .   o # 1 m t p l 2 O 4.%X=X,X|.>X2X2X0X&X3X>X3X2X2X2X2X2X2X2X2X2X",
"2X2X2X2X2X2X2X2X3X2X>X3X>X0X2X2X8X%X0X%X3XT.m.G , 2 2 q r j.A.X X S.j.t q < < 5 N b.T.iX>X6X2X0X>X3X2X2XuX>X2X2X3X>X2X2X2X2X2X2X",
"2X2X2X2X2X2X2X2X2X2X2X2X2X2X2X2X2X<X3X>X%X2XwX~ X o   . X &X>X. . >X<XX .   o X ~ wX2X|.%XqX2X3X2X2X2X2X2X2X2X2X2X2X2X2X2X2X2X2X",
">X2X2X2X2X2X2X2X2X2X2X2X2X2X2X2X2X2X3X2X>X2XrXW.B.S.A.N.v.6X%XZ.b.%X6Xv.N.A.S.B.G.aX>X>X2X3X2X>X2X2X2X2X2X2X2X2X2X2X2X2X>X2X2X2X",
"3X2X2X2X2X2X2X2X2X2X2X2X>X2X2X2X>X2XqX2X=X%XqXwX|.3X2X|.>X0X=X>X%X=X0X>X|.>X3X|.wXrX%X2X2X2X2X=X2X2X2X2X2X2X2X2X2X2X2X2X2X2X2X2X",
"2X2X2X2X2X2X2X2X2X2X2X2X2X2X2X2X2X0X2X<X>X>X>X3X9X2X2X<X3X>X1X>X2X1X3X3X<X2X2XqX2X>X>X>XqX<XqX2X2X2X2X2X3X>X2X2X2X2X2X2X2X2X2X2X",
"2X2X2X2X2X2X2X2X2X2X2X2X2X2X2X2X=X2X2XqX2X3X2X%XuX=X=XpX2X%X,X0X0X,X|.0XpX2X*XpX%X%XqX>XqX<X2X2X>X2X2X2X2X2X2X2X2X2X2X2X2X2X2X2X",
"2X2X2X2X2X2X>X2X>X2X2X2X2X2X2X2X2X%X2XqX>X2X%X>X|.%X.X,X*X=X>X0X0X>X=X*X,X.X%X X2X>X2X2XqX2X%X2X2X2X2X2X2X2X2X2X2X2X2X2X2X2X2X2X",
"2X>X2X2X2X2X2X2X3X2X2X2X2X2X2X2X2X2X>X2X2X2X2X2X>XqX,X,X0XeX<X2X2X<XeX2X,X,XqX3X2X2X2X2X2X>X2X2X2X2X2X2X2X2X2X2X2X2X2X2X>X2X2X2X",
"2X2X2X2X2X2X2X2X2X2X2X2X2X2X2X2X<XqX>X%X2X3XqX2XqX=X=XqX3X,X>X2X2X>X,XqX2X=X=XqX2X2X3X2X%X%XqX2X2X2X2X2X2X2X2X>X2X2X2X2X3X2X2X2X"
};
