/* XPM */
static char *b42d654ad5a34e5b94967aa62a9814bbMyXvsmRMvpHpI9pK[] = {
/* columns rows colors chars-per-pixel */
"64 64 228 2 ",
"   c #367C66",
".  c #387C67",
"X  c #367D6A",
"o  c #3A7D6A",
"O  c #594E45",
"+  c #4B5A4A",
"@  c #545A4C",
"#  c #5B5A4E",
"$  c #545247",
"%  c #555F50",
"&  c #674D47",
"*  c #764C4B",
"=  c #655A4F",
"-  c #68544A",
";  c #55634E",
":  c #4B6651",
">  c #47604E",
",  c #437E6A",
"<  c #4A7E6B",
"1  c #447F66",
"2  c #537B71",
"3  c #497F70",
"4  c #667C79",
"5  c #35835E",
"6  c #38895F",
"7  c #368461",
"8  c #3B8365",
"9  c #378A63",
"0  c #398B63",
"q  c #37816D",
"w  c #3A826D",
"e  c #3E9968",
"r  c #378272",
"t  c #3A8473",
"y  c #3D8976",
"u  c #3D8B7B",
"i  c #3D8678",
"p  c #3E9574",
"a  c #3F907F",
"s  c #418365",
"d  c #43836B",
"f  c #4D836C",
"g  c #4B8B69",
"h  c #488A68",
"j  c #56876D",
"k  c #429D6C",
"l  c #479F62",
"z  c #5B9769",
"x  c #4D8271",
"c  c #418D7D",
"v  c #478577",
"b  c #558373",
"n  c #5C8574",
"m  c #598879",
"M  c #429C73",
"N  c #42927E",
"B  c #449A7C",
"V  c #579878",
"C  c #639C6B",
"Z  c #6B877A",
"A  c #638A7A",
"S  c #6A887C",
"D  c #638479",
"F  c #6B957A",
"G  c #669376",
"H  c #719575",
"J  c #44A36C",
"K  c #46A868",
"L  c #46A575",
"P  c #4AB266",
"I  c #6DA66B",
"U  c #6EAA6B",
"Y  c #66A669",
"T  c #71AC6B",
"R  c #75B16C",
"E  c #7CB96D",
"W  c #68A975",
"Q  c #78AB75",
"!  c #79B879",
"~  c #6AB273",
"^  c #83BD6C",
"/  c #88BA75",
"(  c #8BC76E",
")  c #93CD6C",
"_  c #90C768",
"`  c #9BD46E",
"'  c #9AD56E",
"]  c #86C578",
"[  c #92CD73",
"{  c #9DD872",
"}  c #97D476",
"|  c #8ED27C",
" . c #A0DA6E",
".. c #A1D076",
"X. c #D277BB",
"o. c #D47ABC",
"O. c #D87EBD",
"+. c #3F9282",
"@. c #3D8D82",
"#. c #5C8983",
"$. c #419484",
"%. c #4C9584",
"&. c #449A82",
"*. c #449689",
"=. c #469B8C",
"-. c #499B8C",
";. c #4C9886",
":. c #589987",
">. c #469D91",
",. c #499E92",
"<. c #50958B",
"1. c #6A8786",
"2. c #68918D",
"3. c #749C9A",
"4. c #6A9494",
"5. c #49A288",
"6. c #59A287",
"7. c #4AA295",
"8. c #4CA59B",
"9. c #4EAA9E",
"0. c #4BA693",
"q. c #58A798",
"w. c #58B29B",
"e. c #6AA58A",
"r. c #69B487",
"t. c #77BC86",
"y. c #6AB997",
"u. c #75BE92",
"i. c #75B998",
"p. c #70A793",
"a. c #4FACA2",
"s. c #4FAFA9",
"d. c #51ACA2",
"f. c #59AEA3",
"g. c #51AFAA",
"h. c #51B0AE",
"j. c #52B2B4",
"k. c #54B6BF",
"l. c #5BB6BE",
"z. c #5DBABC",
"x. c #54B8BF",
"c. c #51AFB0",
"v. c #69A9A4",
"b. c #76A5A6",
"n. c #69B2A5",
"m. c #78B7A3",
"M. c #64B4BE",
"N. c #68B9BD",
"B. c #79B8BC",
"V. c #7DAFBE",
"C. c #7AC28E",
"Z. c #74C18F",
"A. c #76C3A7",
"S. c #55B6C1",
"D. c #5BB7C0",
"F. c #56B8C1",
"G. c #70B5C1",
"H. c #BC94BE",
"J. c #91ABBF",
"K. c #87B7BC",
"L. c #98B4BC",
"P. c #85A9B2",
"I. c #A7B8B9",
"U. c #B7B4B9",
"Y. c #B4ACBA",
"T. c #DC83BE",
"R. c #D38DBE",
"E. c #DC9EBF",
"W. c #E189BE",
"Q. c #EA96BE",
"!. c #EC9DBE",
"~. c #E797BF",
"^. c #C3B8B7",
"/. c #D9B2B6",
"(. c #D2A4BF",
"). c #ECB4AF",
"_. c #EDBBAE",
"`. c #ECA5B7",
"'. c #EDADB6",
"]. c #EBA3BB",
"[. c #ECA9B9",
"{. c #E5A7BB",
"}. c #EDB2B3",
"|. c #EDB9B1",
" X c #E6B3B5",
".X c #F0B2B5",
"XX c #F0ACB6",
"oX c #87C986",
"OX c #83CB99",
"+X c #98C2B6",
"@X c #89C0B8",
"#X c #B8CCAD",
"$X c #A8C6B5",
"%X c #BCC4B1",
"&X c #EEDA9E",
"*X c #EED69F",
"=X c #C8CDAA",
"-X c #DAC5AD",
";X c #D1D1AA",
":X c #EDCDA6",
">X c #EEC3AC",
",X c #EDCAA9",
"<X c #E1CEA8",
"1X c #EDD4A3",
"2X c #EDD9A1",
"3X c #E5D6A5",
"4X c #F0D6A3",
"5X c #EDC2B0",
"6X c #B0A6C2",
"7X c #8BB6C1",
"8X c #DF85C1",
"9X c #DC83C0",
"0X c #C99EC3",
"qX c #DC95C2",
"wX c #E087C0",
"eX c #E289C1",
"rX c #E68DC2",
"tX c #E48BC3",
"yX c #EB8FC3",
"uX c #E492C2",
"iX c #E991C3",
"pX c #E890C2",
"aX c #EA91C2",
"sX c #EA95C1",
"dX c #E991C4",
"fX c #EA93C2",
"gX c #EC9BC1",
"hX c #C6A0C0",
/* pixels */
"pXpXfXeXo.o.o.o.X.O.X.o.o.O.X.o.o.o.o.T.T.T.T.T.T.~.tXtXT.T.T.T.T.T.9XO.X.X.X.O.9X9XT.o.o.o.o.o.o.o.o.X.o.o.X.o.o.o.X.o.o.o.X.o.",
"W.T.T.wX9XO.O.O.O.O.O.eXdXdXdXtXT.T.T.T.T.T.O.o.o.o.X.X.o.o.o.o.o.o.O.O.O.O.T.o.O.o.o.X.X.o.o.o.o.X.o.X.o.o.X.X.X.o.o.o.o.X.X.o.",
"eXwXeXeXO.O.O.O.O.O.O.O.O.O.o.o.o.o.X.X.X.o.o.o.X.o.o.o.o.o.o.o.o.o.o.O.O.o.o.O.O.O.9XwXrXrXrXtXpXT.9X9XT.T.9X9XT.9XT.9X9X9XtXtX",
"o.9X8X8X9XO.X.o.X.O.9X8X9X8X8X8X8X8XT.T.T.T.8Xo.o.o.o.o.X.X.o.o.X.X.o.o.o.o.o.X.o.X.X.o.O.o.o.o.eXeXtXpXpXtX8Xo.o.o.o.o.o.o.o.O.",
"tX8X9XO.o.X.O.eXfXpXpXpXfXdXdXrXtXtXtXtXyXpXtXeXT.T.9XwX9XO.O.o.T.T.8X8XT.T.T.o.O.O.o.O.o.o.X.T.T.eXW.pXpXpXrX9Xo.o.o.o.o.o.T.8X",
"tXeXtXtXeXW.rXfXpXpXpXfXdXfXdXtXW.T.T.T.H.R.T.T.T.T.tXfXyXfXdXdXfXpXpXpXpXpXdXpXfXrXtXtXT.O.T.T.eXeXtXpXpXfXfXfXtXeXeXtXtXdXpXtX",
"pXpXpXfXfXfXfXdXfXfXpXfXdXpXdXpXpXpXpXV.k.J.pXuXpXpXpXpXdXdXpXdXfXfXdXpXfXfXpXpXfXfXpXpXyXpXfXfXfXfXdXpXfXdXuXpXpXfXpXfXpXdXpXpX",
"pXpXfXfXfXyXyXdXyXfXyXpXpXdXpXdXpXpX6Xk.k.k.qXyXyXyXpXpXdXdXdXpXfXfXdXdXdXfXfXuXyXfXfXyXfXfXyXfXfXfXQ.qX6XD.l.0XQ.Q.uXdXdXfXfXpX",
"pXpXpXpXsX`.[.].].gXgXfXfXfXyXdXpXuXM.k.k.k.Y.].`.!.!.sXfXfXpXpXrXfXfXdXfXgXgX!.sXpXpXpXgX[.`..X`.Q.(.J.k.k.S.K.!.gXQ.pXfXfXfXfX",
"'.'.'.[.].].[.].].!.].gXgXdXdXdXyXJ.k.k.k.k.M.!.].sXfXQ.pXpXfXQ.!.].].!..X.X}..X}.'.'.!.gX`.].!.pXqXG.k.k.k.S.M.qXpX].!.].gXfXQ.",
"pXfXfXfXfXQ.'..X}.[.gXQ.uX].uXfX0Xk.S.S.k.k.k.U.}.}.}.'.'.].Q.fXfXfXfXfXfXfXfXpXfXgXfXQ.`.]. X'./.K.S.k.k.k.k.k.K.Q.tXpXpXfXyXfX",
"fXfXfX!.gX].'.}.}..X}.}.}.'.gXhXD.k.k.k.k.k.k.7X}.}.].].`.].}.}.}.'.}..X].`.!.`.[.'.}.}.'.}.}.{.K.k.k.k.k.k.k.k.D.~.!.yXQ.!.].!.",
"'.[.[.].!.fXfXQ.].'.}..X}.}./.z.k.k.k.k.k.S.k.N.}..X}.}..X'..X.X|.}..X}.}.'.'.'.'.'.'.}.}.}.'.Y.k.k.k.k.k.k.k.k.S.^.}.'..X!.!.!.",
"}..X.XQ.fXpXyXgX].[.}.}.}.}.L.S.S.k.k.k.k.k.k.k.^.5X}.}..X).).).|. X}.}.}.}.}.'.}.}..X.X X/.U.N.k.k.k.k.k.k.k.S.k.L.}.}..X'.}..X",
").}.}.}.}.'.`.`.`.}.}.}.'./.z.S.k.k.k.S.k.k.k.k.L.).}.}._.:X4X,X>X)..X}.}.'.}.).}.}. XI.M.S.k.k.k.k.k.k.S.k.k.k.k.k.'..X}.}.}..X",
"_.>X>X>X:X1X1X1X>X_.}.}.}.L.S.k.k.k.k.k.k.k.S.S.z./.}.}._..X)._.|..X}._.>X1X,X_.}.}./.S.k.l.k.k.S.k.k.k.k.k.k.k.k.k.U..X}..X}.}.",
".X.X}.}.}.}.}.}.}.}.).>X>Xl.k.k.k.S.k.k.k.k.k.k.k./. X}.'.}._.>X>X:X2X2X,X,X_.}.'.|.I.S.k.S.k.k.k.k.k.k.k.k.k.k.S.k.L.).}.}.}. X",
"2X&X1X:X_._.|.}.'.|.>X,X%XF.k.k.k.k.k.k.S.k.k.k.k.I.}.}.}.}.}.).>X:X&X&X:X>X|.|.|. Xz.k.k.k.k.k.k.k.S.k.k.S.k.k.k.k.M. X}._._._.",
">X2X&X&X1X1X,X>X_..X)._.B.S.S.k.k.k.k.k.k.k.k.S.k.J. X)._.|.}.'.}._.:X,X,X1X:X,X_.^.k.k.k.k.k.k.k.k.k.k.k.k.k.k.k.k.S.Y.).,X,X,X",
"*X&X1X,X,X,X5X|.|.}.}.U.D.z.S.k.k.k.S.k.k.k.k.k.k.k.3X1X&X&X,X>X>X,X).}.'.}.'.}.'.K.S.k.k.k.S.k.S.k.k.k.k.k.k.k.k.k.k.B.|.).|.}.",
"4X:X4X4X2X2X2X1X4X>X%XD.k.k.k.k.k.S.k.k.k.k.k.k.k.k.$X&X&X2X2X:X,X,X>X.X|..X>X,X-Xk.S.k.k.k.k.k.k.k.k.S.k.k.k.S.k.k.k.F.;X1X-XI.",
":X:X1X:X3X;X&X1X:X=XS.k.k.k.k.k.k.k.k.k.S.k.k.k.k.k.I.>X_.:X1X2X&X2X&X&X2X&X&X&X;XS.k.k.S.k.k.k.k.k.k.k.k.k.k.k.k.k.S.S.G.#XN.k.",
"2X&X2X&X$XS.+X3X2XK.k.S.k.k.k.S.k.k.k.k.k.k.k.S.k.S.N.1X1XI.K.=X=X3X,X,X:X:X:X,XI.S.k.k.k.k.k.k.k.S.k.k.k.S.k.k.k.k.k.k.S.S.S.F.",
"2X2X&X3XD.x.S.;X;XS.k.k.S.k.S.S.k.k.S.k.k.k.k.k.x.x.z.;X+Xx.x.k.F.M.L.^.-X3X1X*X+Xk.k.k.k.k.k.S.k.k.k.k.k.k.k.k.S.k.k.k.k.k.S.k.",
"2X=X+XB.S.k.x.@XK.S.x.x.S.k.k.S.k.k.k.k.k.k.S.k.k.k.S.k.k.k.k.S.x.x.k.k.k.M.+X=XN.S.x.k.S.k.k.k.k.j.j.S.k.k.k.k.k.k.k.k.k.k.k.k.",
"#XF.F.x.k.k.j.F.S.S.x.x.x.F.k.j.j.k.k.S.k.k.k.k.k.k.k.k.x.k.k.k.k.x.k.k.k.k.S.S.S.k.k.k.x.x.S.j.d.a.s.j.S.S.S.k.k.k.S.S.k.k.k.j.",
"l.x.x.k.k.k.k.k.k.k.k.k.S.j.j.a.a.a.s.h.k.k.k.S.k.k.k.k.k.k.k.S.k.k.k.k.k.k.x.x.k.k.S.S.S.j.c.d.a.a.a.a.j.k.k.k.k.k.k.h.h.s.a.a.",
"z.k.k.x.k.k.k.k.S.k.S.k.h.a.a.a.a.a.a.a.a.s.h.k.k.S.k.k.k.k.k.S.k.k.j.k.k.k.k.k.S.k.S.j.s.s.a.a.a.a.a.a.a.s.c.k.k.j.a.a.a.a.s.9.",
"E OXz.k.k.k.k.k.k.k.k.h.9.a.a.a.a.a.a.a.a.a.a.a.h.j.j.j.j.j.j.j.s.a.a.a.9.s.h.k.k.k.h.a.9.d.a.a.a.a.a.a.a.a.a.s.a.a.d.u.! ] } C.",
"  U { A.S.k.k.x.j.h.s.a.a.9.a.a.a.a.a.a.a.a.a.a.a.a.a.a.a.s.a.a.9.a.a.a.a.a.a.h.j.a.a.d.a.a.a.a.a.a.a.a.a.a.a.a.a.y.R 8 X . s T ",
"q t h ) z.j.j.s.a.a.a.a.a.d.a.a.a.a.a.a.s.d.d.a.a.a.a.a.a.a.a.a.a.a.a.a.a.a.a.a.d.a.a.a.a.a.a.a.a.a.a.a.a.a.a.a.,.X . . X .   . ",
"$.,.w C oXs.a.a.a.a.a.a.a.a.a.a.a.a.a.9.d.u.u.a.a.a.a.a.a.a.a.a.a.a.a.a.a.a.a.a.9.a.a.a.a.d.a.a.a.a.d.a.a.a.a.8.X X . . . . . . ",
"8.8.=.  ^ w.a.a.a.a.a.a.a.a.a.a.a.a.d.=.W h z ] Z.d.d.d.a.a.a.a.a.a.w.w.u.u.C.C.oXf.d.s.a.a.a.a.a.a.a.a.a.a.9.w     . . . .   . ",
"d.a.>.>.g C.a.a.a.a.a.a.a.a.a.a.a.d.$.  . Z 7 j [ oXw.d.a.a.a.a.8.B T Q 8 f . T R [ } y.a.a.a.a.a.a.a.a.a.9.=.    . . . y d U ( ",
"a.a.9.9.B / a.a.a.a.a.a.a.a.d.a.a.$.w     . . b A ) } f.a.a.,.2.d D   b   b . Z f < C E y.a.a.a.a.a.a.a.a.s.u     . $.  6.} T 8 ",
"a.a.a.a.8.t.a.a.a.a.a.a.a.w.d.d.8.v c     .   X f 8 I } u.7.A < .   . .       . , 1 A o ! w.a.a.a.a.a.a.a.7.  X   . $.c u.U   X ",
"d.a.a.a.a.y.s.a.a.a.a.a.d.a.a.d.>.>.t . . . . . X Z b U ( d o . . . . . . .     X i c . w Z.s.9.a.8.s.9.a.u       y =.8.C.8     ",
"8.8.a.a.a.a.9.a.a.a.a.a.d.w.y.y.y.y.r.r.f . . .   . Z     n o . .         w ,.y %.t 7.N =.6.7.$.+.+.+.+.,.y   w y $.=.6.C   . . ",
"$.$.=.9.d.d.a.a.d.a.a.7.Q W C H z / ^ ^ ` ( T o .     . Z 1 s U _ ) ) ( T g $.,.,.,.9.8.8.$.$.$.+.*.+.*.$.    X $.,.*.W g . . . ",
"$.$.$.+.=.8.a.a.a.7.u . 1 1.o o . .   Z 8 d s T T h     . . W 1 o Y ^ ` `  .t.d.=.t i *.$.$.$.$.*.+.+.+.u .   c =.$.&.z . . .   ",
"$.$.+.&.+.*.7.a.7.o x x 2 . . . . . . .   . .       .   .   d d o 3   . z ^ { | :.q q r i +.$.$.$.$.$.$.t X . y $.$.+.    . .   ",
"$.$.*.+.*.+.*.*.n < b   . X .     . . . c z _ ) E T 8     Z < d . b D <   . z ( { ( V r w t $.$.+.$.-.=.u u . y $.$.$.  . . X   ",
"$.$.$.$.$.$.u q 1 .         q   i X X -.oX^ Y s A         .   .   .   . D b f o R  .` V t t r i 8.s.d.a.$.$.t $.$.$.u   .   y X ",
"$.$.$.$.$.$.r < n       X w -.  8.v V t.Y f . Z . .   . . . . . . . . . . . . Z 7 R { ) t r r w t *.9.d.$.8.$.$.$.$.u   X . y q ",
"$.$.$.$.$.u   S .   . c X $.8.u 9.t.R o D b   X     . . . . .   . . . . . .     S   R  .W t t r t t i @.=.s.7.$.$.$.X     t q c ",
"8.*.$.$.$.r       . c c $.*.9.8.r.d D < ,   X   . . . X . . . w . . . . . . .   . D , ^ { h r t t X r r r 7.7.+.$.$.. X   y w $.",
"b.4.<.*.N 8   . . . u =.$.8.8.V s Z . .   .       . . . . w . t . .   .   . t     . A f ` W t X r r r q r 8.8.$.$.+.w     y y $.",
"f.b.:.*.u     . q X u 9.9.9.u   n   .   .   X w X . . . . u $.q N q w q q q c     . X   R } w t t r i *.9.s.0.+.*.$.u X y c +.$.",
"b.f.3.4.v     . w c y 7.a.-.x b < . X . . . X t 4 X . . X +.a.t +.y u w u t +.  q   < n 8 [ t t *.8.8.d.a.a.a.$.$.$.N X a $.=.*.",
"b.b.b.:.t .   w X $.a =.9.q < o   . . .       y x . .   W 7.s.*.$.+.+.u $.y $.X X     f 2 ` c 0.a.a.a.s.a.g.d.e.$.$.N c $.*.a.9.",
"#.v 2.#.y . X @.t $.$.*.*.  n   . . . . . u q c m v 4 2 t.v.0.$.$.$.$.$.$.a +.X X X     . E d.a.a.d.a.d.m.n.i.;.:.2.&.$.$.8.d.a.",
"3 1.m 1.X X X @.c $.$.7.r Z .   . . . X   u y $.+.v . 2 [ v.-.$.$.$.$.$.$.$.y r q X   . 1.R d.d.a.d.d.m.f.n.e.e.:.:.%.:.6.d.a.a.",
"1.3 3 o 1.o X @.$.$.$.>.<     .   X   u X u +.+.+.<.. . / 3.$.$.$.$.+.$.+.+.i r r r q   f R q.9.a.d.f.m.a.m.*.;.%.p.e.$.p.p.:.9.",
"X v #.1.v #.1.o $.$.,.>.D o X       q $.u *.+.+.8.4.o   U %.+.$.$.$.$.$.+.u r r u u y q n :.d.d.f.m.n.d.n.n.%.%.G t F n G < n c ",
"@.X @.X 3 v #.@.$.>.a.$.. . .   X c t +.+.+.>.7.s.b.. X I ! $.$.+.&.$.$.*.i t t $.u a q   $.9.s.i.f.v.6.e.r G 1 n j G . j . . 5.",
"X X X @.i i @.@.*.8.w.t Z   y X X $.@.+.>.a.a.a.a.v.o 4 4 ..3.$.*.+.*.+.+.i t t $.u N $.  7.a.p.:.F n f H 1 o G   H d X . . +.a.",
"r t r +.$.$.$.+.7.s.8.X     =.u +.*.+.$.7.a.a.a.d.d.. . . ) i.:.+.*.$.$.$.u r @.$.$.$.,.y a.w.n G o n f G G . . . . X   . =.d.d.",
"t r +.+.+.*.+.*.9.a.9.  Z   =.y +.*.+.$.*.9.a.a.d.d.$..   R oXa.7.$.$.+.$.r r u +.&.+.8.*.a.d.u   . 7 .   . . . . . X o ,.g.a.a.",
"t ,.$.$.$.$.$.=.d.a.9.w . q d.=.a +.+.*.+.7.9.a.a.d.2.o . h { y.a.+.$.$.+.r r u $.+.+.=.8.d.d.d.u X .       . . . . X 5.a.a.a.a.",
"*.8.+.$.+.$.$.0.a.a.d.$.y t d.>.u +.*.+.$.+.+.8.8.d.7.X . 8 ) oX9.+.*.+.$.r r @.$.$.$.a $.7.a.a.9.7.-.t . o . . .   t *.>.8.a.a.",
"7.5.*.$.*.B $.5.w.s.w.9.=.5.a.*.+.+.5.p &.&.&.$.$.0.3.8 0 . Y ' -.&.B B &.y t L &.&.&.$.$.$.-.9.9.0.5.B $.&.c . 0 8 y &.N $.5.w.",
"p J L J p P L k J +.P L L K L k J k p P K k J M J J K l e 0 K U Q P K J p e e J K k J B J e L K K K B K M k P 6 e e e p L K l J ",
"9 9 0 7 8 0 9 7 6 5 0 9 7 6 9 w 9 q 8 0 9 9 8 5 0 0 7 9 7 9 0 7 d 0 6 5 6 5 9 8 7 9 7 0 0 7 9 0 9 5 9 7 6 0 6 6 6 6 0 7 0 6 9 5 ",
"& $ ; & : @ * + - @ & ; $ - & @ % & : @ * + - @ & : O = & # # - : # * + - + & : O = & # = $ + # & + - $ - > & = O @ # @ @ = & @ "
};
