/* XPM */
static char *dummy[]={
"64 64 18 1",
". c None",
"e c #000000",
"# c #592a1d",
"j c #783a38",
"a c #783c2b",
"d c #7d3825",
"h c #8f3c3b",
"b c #8f4c38",
"p c #9e4745",
"i c #a34341",
"o c #ad4745",
"m c #ad5656",
"c c #b5664c",
"l c #c44e4c",
"n c #cc6766",
"k c #cfd8dc",
"g c #e0e0e0",
"f c #eeeeee",
"................................................................",
".###........................................................###.",
".###........................................................###.",
".###........................................................###.",
".###........................................................###.",
".###aabbbbbccccccccccccccccccccccccccccccccccccccccccbbbbaad###.",
".###aabbbbbccccccccccccccccccccccccccccccccccccccccccbbbbaad###.",
".#eeeeeeeeeeeeeeeefffffffffffffffffffffffffffeeeeeeeeeeeeeeeee#.",
".#eeeeeeeeeeeeeeegfffffffffffffffffffffffffffgeeeeeeeeeeeeeeee#.",
".#eeeeeeeeeeeeeegggfffffffffffffffffffffffffgggeeeeeeeeeeeeeee#.",
".##hhiiiiiiiiiiigggfffffffffffffffffffffffffgggiiiiiiiiiiiihh##.",
".##hhiiiiiiiiiiigggfffffffffffffffffffffffffgggiiiiiiiiiiiihh##.",
".jjhhiiiiiiiiiiigggfffffffffffffffffffffffffgggiiiiiiiiiiiihhjj.",
".jjhhiiiiiiiiiiigggfffffffffffffffffffffffffgggiiiiiiiiiiiihhjj.",
".jjhhiiiiiiiiiiiggkkkkkgggggggggggggggggkkkkkggiiiiiiiiiiiihhjj.",
".jjhhiiiiiiiiiiiigkkkkkkkkkkkkkkkkkkkkkkkkkkkgiiiiiiiiiiiiihhjj.",
".jjhhllllllllllllllllllllllllllllllllllllllllllllllllllllllhhjj.",
".jjmnnnnnnnnnnnnnnnnnnnnnnnnnnnnnnnnnnnnnnnnnnnnnnnnnnnnnnnnmjj.",
".jjmnnnnnnnnnnnnnnnnnnnnnnnnnnnnnnnnnnnnnnnnnnnnnnnnnnnnnnnnmjj.",
".jjmnnnnnnnnnnnnnnnnnnnnnnnnnnnnnnnnnnnnnnnnnnnnnnnnnnnnnnnnmjj.",
".jjiolllllllllllllllllllllllllllllllllllllllllllllllllllllloijj.",
".jjiolllllllllllllllllllllllllllllllllllllllllllllllllllllloijj.",
".jjiolllllllllllllllllllllllllllllllllllllllllllllllllllllloijj.",
".jjiolllllllllllllllllllllllllllllllllllllllllllllllllllllloijj.",
".jjiolllllllllllllllllllllllllllllllllllllllllllllllllllllloijj.",
".jjiolllllllllllllllllllllllllllllllllllllllllllllllllllllloijj.",
".jjiolllllllllllllllllllllllllllllllllllllllllllllllllllllloijj.",
".jjiolllllllllllllllllllllllllllllllllllllllllllllllllllllloijj.",
".jjiolllllllllllllllllllllllllllllllllllllllllllllllllllllloijj.",
".jjiolllllllllllllllllllllllllllllllllllllllllllllllllllllloijj.",
".jjiolllllllllllllllllllllllllllllllllllllllllllllllllllllloijj.",
".jjiolllllllllllllllllllllllllllllllllllllllllllllllllllllloijj.",
".jjiolllllllllllllllllllllllllllllllllllllllllllllllllllllloijj.",
".jjiolllllllllllllllllllllllllllllllllllllllllllllllllllllloijj.",
".jjiolllllllllllllllllllllllllllllllllllllllllllllllllllllloijj.",
".jjiolllllllllllllllllllllllllllllllllllllllllllllllllllllloijj.",
".jjiolllllllllllllllllllllllllllllllllllllllllllllllllllllloijj.",
".jjiolllllllllllllllllllllllllllllllllllllllllllllllllllllloijj.",
".jjiolllllllllllllllllllllllllllllllllllllllllllllllllllllloijj.",
".jjiolllllllllllllllllllllllllllllllllllllllllllllllllllllloijj.",
".jjiolllllllllllllllllllllllllllllllllllllllllllllllllllllloijj.",
".jjiolllllllllllllllllllllllllllllllllllllllllllllllllllllloijj.",
".jjiolllllllllllllllllllllllllllllllllllllllllllllllllllllloijj.",
".jjiolllllllllllllllllllllllllllllllllllllllllllllllllllllloijj.",
".jjiolllllllllllllllllllllllllllllllllllllllllllllllllllllloijj.",
".jjiolllllllllllllllllllllllllllllllllllllllllllllllllllllloijj.",
".jjiolllllllllllllllllllllllllllllllllllllllllllllllllllllloijj.",
".jjiolllllllllllllllllllllllllllllllllllllllllllllllllllllloijj.",
".jjiolllllllllllllllllllllllllllllllllllllllllllllllllllllloijj.",
".jjiolllllllllllllllllllllllllllllllllllllllllllllllllllllloijj.",
".jjiolllllllllllllllllllllllllllllllllllllllllllllllllllllloijj.",
".jjiolllllllllllllllllllllllllllllllllllllllllllllllllllllloijj.",
".jjmnnnnnnnnnnnnnnnnnnnnnnnnnnnnnnnnnnnnnnnnnnnnnnnnnnnnnnnnmjj.",
".jjmnnnnnnnnnnnnnnnnnnnnnnnnnnnnnnnnnnnnnnnnnnnnnnnnnnnnnnnnmjj.",
".jjiooooooooooooooooooooooooooooooooooooooooooooooooooooooooijj.",
".jjpiiiiiiiiiiiiiiiiiiiiiiiiiiiiiiiiiiiiiiiiiiiiiiiiiiiiiiiiijj.",
".e#jjjjjjjjjjjjjjjjjjjjjjjjjjjjjjjjjjjjjjjjjjjjjjjjjjjjjjjjjj#e.",
".e#aaaccccccccccccccccccccccccccccccccccccccccccccccccccccaaa#e.",
".ebbbbaccccccccccccccccccccccccccccccccccccccccccccccccccabbbbe.",
".ebbbbaaccccccccccccccccccccccccccccccccccccccccccccccccaabbbbe.",
".ebbbbbb#eeeeeeeeeeeeeeeeeeeeeeeeeeeeeeeeeeeeeeeeeeeeee#bbbbbbe.",
".ebbbbbb#e............................................e#bbbbbbe.",
".#########............................................#########.",
"................................................................"};
