/* XPM */
static char *c33486a125494a7fa3216301bf50e760ZChelB7oipSIBlIt[] = {
/* columns rows colors chars-per-pixel */
"64 64 5 1 ",
"  c None",
". c black",
"X c DimGray",
"o c SaddleBrown",
"O c #A37343",
/* pixels */
"                                                                ",
"                                                                ",
"                                                                ",
"                                                                ",
"                                                                ",
"                                                                ",
"                                                                ",
"                                                                ",
"                                                                ",
"                                                                ",
"                                                                ",
"                                                                ",
"                            .XXXXXX.                            ",
"                          .XXXXXXXXXXX                          ",
"                         .XXXXoooo.XXXX                         ",
"                         XXXXoOoOoooXXXX                        ",
"                        XXXoooOoOooOooXX.                       ",
"                        XXoOooOoOooOooXXX                       ",
"                       .XXoOooOoOooOoooXX                       ",
"                       XXooOooOoOooOoooXX.                      ",
"                       XXooOooOoOooOooOXX.                      ",
"                       .XooOooOoOooOooO.X.                      ",
"                       XXooOooOoOooOooOXX.                      ",
"                       XXooOooOoOooOoooXX.                      ",
"                       .XooOooOoOooOoXX.X.                      ",
"                       XXooOooOoOooOoooXX.                      ",
"                       XXooOooOoOooOooOXX.                      ",
"                       .XooOooOoOooOooO.X.                      ",
"                       XXoooooOoOooOooOXX.                      ",
"                       XXooo.oOoOooOooOXX.                      ",
"                       XXoooooOoOooOooOXX.                      ",
"                       .XoooooOoOooOooO.X.                      ",
"                       XXooOooOoOooOooOXX.                      ",
"                       XXooOooOoOooOooOXX.                      ",
"                       .XooOooOoOooOooO.X.                      ",
"                       XXooOooOoOooOooOXX.                      ",
"                       XXooOooOoOooOooOXX.                      ",
"                       .XooOooOoOooOooo.X.                      ",
"                       XXooOooOoOooOoXXXX.                      ",
"                       XXooOooOoOooOoooXX.                      ",
"                       .XooOooOoOooOooO.X.                      ",
"                       XXooOooOoOooOooOXX.                      ",
"                       XXooOooOoOooOooOXX.                      ",
"                       .X.ooooooooooooo.X.                      ",
"                                                                ",
"                                                                ",
"                                                                ",
"                                                                ",
"                                                                ",
"                                                                ",
"                                                                ",
"                                                                ",
"                                                                ",
"                                                                ",
"                                                                ",
"                                                                ",
"                                                                ",
"                                                                ",
"                                                                ",
"                                                                ",
"                                                                ",
"                                                                ",
"                                                                ",
"                                                                "
};
