/* XPM */
static char *_cd65f8e10a84ddac1bc83fb6f6ac6f8MvShcMQp2HyP2WdW[] = {
/* columns rows colors chars-per-pixel */
"64 64 12 1 ",
"  c black",
". c #663D53",
"X c #905860",
"o c #FF5C42",
"O c #A8AE37",
"+ c #FF904C",
"@ c #FFB84C",
"# c #FFDB4F",
"$ c #DE669C",
"% c #F49BB3",
"& c #FFEBD2",
"* c white",
/* pixels */
"###################################################ooooooooooooo",
"####################################################oooooooooooo",
"#####################################################ooooooooooo",
"############################################oooooo###ooooooooooo",
"#########################################ooo#########ooooooooooo",
"#######################################ooo############oooooooooo",
"#######################################################ooooooooo",
"########################################################oooooooo",
"####################################################o####ooooooo",
"##################################################ooo#####oooooo",
"###############################################oooo#########oooo",
"#############################################ooo###############o",
"##########################################oooo###########o######",
"################################%%########o#############oo######",
"##############################%%%%#####################oo####o##",
"##############################%%%%####################oo#####o##",
"#############################%%##%%##################oo######o##",
"############################%%###%%#####%%%%#########o#######o##",
"############################%%###%%###%%%%%%########o########o##",
"############################%%###%%#%%%%%%#%######oo#########o##",
"############################%%###%%#%%%%###%######o##########o##",
"############################%%#..%.%%%####%%#################o##",
"#############################%%.%%%%...###%%#################o##",
"#############################.%%%%%%%%%%%%%#####################",
"############################..%%%%%%%%%%%%######################",
"#########################%%%%%%%..X%%%%...######################",
"#######################%%%%%XX....XX%%%%X..#####################",
"######################%%%%.X.&&&&....%%%%..#####################",
"#####################%%%%...&*&&&&*&&X.%%%..####################",
"####################%%%%#.X&* *&&* *&XX%%%%.####################",
"###################%%%%#..X&* *&&* *&.X.%%%.####################",
"###################%%%##..X&&&&&&&&&&.XXX%%.####################",
"###################%%###....&$&&&&$&&..XX%%%.###################",
"###################%####...X&&&&&&&&&..XX%%%.###################",
"###################%####..XXX.X..&&&...XXX%%.###################",
"###################%####...XX.X.+&&&+..XXX%%X###################",
"#########################..XXXX+++++++.XXX%%X###################",
"#########################..X.X+++++++++XX.%%X###################",
"##########################.XX+++++++++++..XXX###################",
"##########################.XX&+++++++++&&.XX.###################",
"##########################.X&&XX+++++.X&&.XX.###################",
"###########################X&&&X+++++.&&&.XX.###################",
"###########################.X&&&OOOOO&&X.XX.####################",
"###########################..X&OOOOO&&.X.XX.####################",
"##########################.....OOOOOO&..XX..####################",
"##########################..XXOOOOOOOX..X...####################",
"#########################..XXOOOOOOOOXXX...#####################",
"#########################....OOOOOOOO.....######################",
"##########OOO###OOO#####....OOOO#OOO.....#####OO@@@@OO@@@@@@@@@@",
"#######@@@OOOO@OOOO@@@@#####OOO##OOO#...#@@@@@OOO@@OOO@@@@@@@@@@",
"###@@@@@@@@OOOOOOO@@@@@@@@@@OOO@@OOO@@.@@@@@@@@OOO@OOO@@@@@@@@@O",
"@@@@@@@@@@@@OOOOO@@@@@@@@@@@OO@@@OOO@@@@@@@@@@@@OOOOO@@@OOO@@@@O",
"@@@@@@@@@@@@OOOOO@@@@@@@@@@$&&@@@&&&@@@@@@@@@@@@@OOO@@@@@OOO@@OO",
"@@@@@@@@@@@@@OOO@@@@@@@@@@@&$$@@@$&$@@@@@@@@@@@@@@O@@@@@@OOOO@OO",
"@@@@@@@@@@@@@@O@@@@@@@@@@@$$$@@@@@$&@@@@@@@@@@@@@@O@@@@@@@OOOOOO",
"@@@@@@@@@@@@@@O@@@@@@@@@@@@@@@@@@@@$@@@@@@@@@@@@@@@@@@@@@@@@OOO@",
"OO@@@@@OOO@@@@@@@@@@@@@@@@@@@@@@@@@@@@@@@@@@@@@@@@@@OOO@@@@@@O@@",
"OOO@@OOOOO@@@@@OOO@@@@@OOO@@@@@@@@@@@@@@@@@@OOO@@@OOOO@@@@@@@@@@",
"OOOOOOOOO@@@@@@@OOO@@@OOOO@@@@OOOO@@@OOOO@@@@OOOO@OOO@@@@@@@@@@@",
"@@OOOO@@@@@@@@@@@OOOOOOOO@@@@@OOOOO@OOOOO@@@@@OOOOOO@@@@@@@@@@@@",
"@@@@O@@@@@@@@@@@@@OOOOO@@@@@@@@@OOOOOOO@@@@@@@@@OOO@@@@@@@@@@@@@",
"@@@@O@@@@@@@@@@@@@@OOO@@@@@@@@@@@OOOO@@@@@@@@@@@@O@@@@@@@@@@@@@@",
"@@@@@@@@@@@@@@@@@@@@O@@@@@@@@@@@@@@O@@@@@@@@@@@@@@@@@@@@@@@@@@@@",
"@@@@@@@@@@@@@@@@@@@@@@@@@@@@@@@@@@@@@@@@@@@@@@@@@@@@@@@@@@@@@@@@"
};
