/* XPM */
static char *_9c14e3f410840449dfa47122e134526hy9lWuka6jFmleDH[] = {
/* columns rows colors chars-per-pixel */
"32 32 12 1 ",
"  c #FFDB4F",
". c #FF5C42",
"X c #F49BB3",
"o c #663D53",
"O c #905860",
"+ c #FFEBD2",
"@ c white",
"# c black",
"$ c #DE669C",
"% c #FF904C",
"& c #A8AE37",
"* c #FFB84C",
/* pixels */
"                         *......",
"                      *** *.....",
"                   *%*    *.....",
"                           *....",
"                         ** *...",
"                      *%**    *%",
"                X    %*     %   ",
"               XX          %* * ",
"              X XX  XX    **  * ",
"              X XXXXXX   **   * ",
"              X*XXXX X   *    * ",
"              *XXX$XXX        * ",
"             X$X$XXX$           ",
"           XX$$XOOXXO&          ",
"          XX$O++++X$XO          ",
"         XX oX++++XOX$          ",
"         X  oo++++XO$X&         ",
"         X  oOOOX+OOOX&         ",
"            &OO%%%%OOX*         ",
"             OX%%%%*OO&         ",
"             &+$%%O+XO&         ",
"             &$+&&+$OO          ",
"             oO&&&&oOo          ",
"            &o&&&&&Oo*          ",
"     &&*&*  &&&&*&Oo*  &**&*****",
" *****&&&*****&**&*%****&&&*****",
"******&&*****XX*X+*******&***&*&",
"*************%***X************&&",
"&**&&*********************&*****",
"*&&*****&&*&&**&&*&&***&&&******",
"*********&&*****&&&*****&*******",
"********************************"
};
