/* XPM */
static char *_7c2988ac99a457cdd7b28673fedf6fatDE3iKIHhiQTqjOl[] = {
/* columns rows colors chars-per-pixel */
"32 64 128 2 ",
"   c #1E0406",
".  c #1F040A",
"X  c #330D0C",
"o  c #3B1819",
"O  c #241F23",
"+  c #351F20",
"@  c #1D2225",
"#  c #212021",
"$  c #2C2927",
"%  c #272D2F",
"&  c #2B2B2C",
"*  c #282C31",
"=  c #441212",
"-  c #661D19",
";  c #653C1B",
":  c #643136",
">  c #61333A",
",  c #4A423C",
"<  c #447434",
"1  c #264E4D",
"2  c #294D4E",
"3  c #3F4644",
"4  c #264D52",
"5  c #434344",
"6  c #534F4E",
"7  c #4F504F",
"8  c #51504E",
"9  c #505151",
"0  c #6F6A67",
"q  c #6B6B6B",
"w  c #873F12",
"e  c #8A3E14",
"r  c #8A3F1A",
"t  c #874116",
"y  c #884015",
"u  c #A44718",
"i  c #A3481C",
"p  c #BF611F",
"a  c #9E4A20",
"s  c #BE6224",
"d  c #BC6229",
"f  c #B67D34",
"g  c #B87E33",
"h  c #B57E3C",
"j  c #C0611F",
"k  c #C35F21",
"l  c #C16122",
"z  c #C06128",
"x  c #D16F2F",
"c  c #D1702E",
"v  c #CF6F33",
"b  c #D26E31",
"n  c #D36D38",
"m  c #CE7237",
"M  c #D17034",
"N  c #DD7937",
"B  c #DE793A",
"V  c #E0793A",
"C  c #AB534F",
"Z  c #A75356",
"A  c #AC5353",
"S  c #C18F3F",
"D  c #C0913D",
"F  c #E38A2F",
"G  c #E48B32",
"H  c #E68A38",
"J  c #C2A03E",
"K  c #BF8F44",
"L  c #BE9044",
"P  c #91B35C",
"I  c #BEA142",
"U  c #C18F42",
"Y  c #C19043",
"T  c #C29F42",
"R  c #C1A141",
"E  c #CEAE56",
"W  c #CEAE5B",
"Q  c #D1AE5C",
"!  c #CCB057",
"~  c #CCB05D",
"^  c #EFA343",
"/  c #F0A344",
"(  c #DE8E7D",
")  c #D99176",
"_  c #DC917D",
"`  c #E08D7E",
"'  c #CCAE61",
"]  c #DCCB74",
"[  c #DBCA79",
"{  c #7AD7F4",
"}  c #9DB1BF",
"|  c #DF8F80",
" . c #DC9181",
".. c #F5BEA6",
"X. c #F3BFAA",
"o. c #F4C0A3",
"O. c #F2C0A9",
"+. c #9897C5",
"@. c #9994CB",
"#. c #9EAFC1",
"$. c #9DB1C4",
"%. c #9DB0C9",
"&. c #A1B1C4",
"*. c #BED2DC",
"=. c #B7CAE8",
"-. c #B9D4E1",
";. c #C2D2DB",
":. c #F6D7C2",
">. c #F7EAC1",
",. c #FAEBC1",
"<. c #F9EAC3",
"1. c #F9EAC6",
"2. c #F7EFCB",
"3. c #F9EFCB",
"4. c #FCEDCA",
"5. c #FAEECE",
"6. c #FCEDCD",
"7. c #F8F0CC",
"8. c #DFF4F6",
"9. c #E5FEFE",
"0. c #E8FDFD",
"q. c #FBFDF6",
"w. c #FEFEF6",
"e. c #FAFDFA",
"r. c #FDFEF9",
"t. c #FCFCFB",
"y. c #FDFEFC",
"u. c white",
/* pixels */
"u.u.u.u.u.u.u.u.u.u.u.e.r.] ] ] ] ] ] w.r.u.u.u.u.u.u.u.u.u.u.u.",
"u.u.u.u.u.u.u.u.u.u.u.] ] W W W W W W ] ] r.u.u.u.u.u.u.u.u.u.u.",
"u.u.u.u.u.u.u.u.u.u.q.K E W W W E W W W L q.u.u.u.u.u.u.u.u.u.u.",
"u.u.u.u.u.u.u.u.u.q.K W W W W W W W W W W K e.u.u.u.u.u.u.u.u.u.",
"u.u.u.u.u.u.u.u.u.L S W W W W W W W W W W U L u.u.u.u.u.u.u.u.u.",
"u.u.u.u.u.u.u.u.r.U S Q W W W W W W W W Q S L r.u.u.u.u.u.u.u.u.",
"u.u.u.u.u.u.u.u.u.U U Y W W W W W W W Q U S K r.u.u.u.u.u.u.u.u.",
"u.u.u.u.u.u.u.u.u.U S S S W W W W W Q Y S S K u.u.u.u.u.u.u.u.u.",
"u.u.u.u.u.u.u.u.r.L S U U Y U U K U Y Y Y S Y u.u.u.u.u.u.u.u.u.",
"u.u.u.u.u.u.u.u.r.Y U W Q W W W W W W W W Y U w.u.u.u.u.u.u.u.u.",
"u.u.u.u.u.u.u.r.' W Q W W W W Q W W E E W Q Q W q.u.u.u.u.u.u.u.",
"u.u.u.u.u.u.w.' W U ] ] ] ] ] Y ] ] ] ] ] ] S Q ' q.u.u.u.u.u.u.",
"u.u.u.u.u.r.W S ] ] ] ] J R R Y ] ] ] ] ] ] ] ] D W r.u.u.u.u.u.",
"u.u.u.u.q.' K ] ] ] ] I ] ] ] ] J J I ] ] ] ] ] ] K ' w.u.u.u.u.",
"u.u.u.e.W D ] ] ] ] J ] ] ] ] U ] ] ] I ] ] ] ] ] ] S W e.u.u.u.",
"u.u.u.r.D ] ] ] ] ] ] ] ] ] ] Y ] ] ] ] ] ] ] ] ] ] ] S u.u.u.u.",
"u.u.u.e.W >.] ] ] ] ] ] ] ] K O...Y ] ] ] ] ] ] ] ] >.! e.u.u.u.",
"u.u.u.W ] ] ,.,.] ] [ ,.<.Y ..6.3...U <.,.] ] [ ,.>.] ] W u.u.u.",
"u.u.w.] ] ] ] ] <.<.,.] Y | 6.6.4.3.( U [ <.>.,.] ] ] ] ] q.u.u.",
"u.e.W ] ] ] ] ] [ ] ] U _ 6.6.6.4.3.4.( U ] ] [ ] ] W ] ] ~ e.u.",
"y.e.! ] ] ~ ] ] ] ] U _ 3.3.7.6.6.6.3.6.) U ] ] ] ] ] W ] W r.u.",
"u.e.! ] W ] ] ] ] ] U [ ] [ 6.6.6.6.[ ] [ Y ] ] ] ] ] W ] W e.u.",
"u.e.! ] W ] I ] ] U ( ( X.6.7.6.2.6.6.X.( | U ] ] I ] ] W E e.u.",
"u.y.E W ] D ] ] U A ( ..o.6.6.6.6.3.6.....| A U ] ] D ] W E e.u.",
"u.e.K W ] Y ] U A . X X  .7.7.6.7.4.6._ X X   Z U ] U ] ~ J r.u.",
"u.e.R f O.] ] g . +.2 2 o X.6.7.6.6.O.+ 2 4 +.. f ] ] ..g D u.u.",
"u.r.f o.7.] h . @.4 1 u.1 :.3.7.6.6.:.2 4 e.4 @.  h ] 4...g e.u.",
"u.r.f 2.7.] X X @.1 < 2 { 2.6.6.7.6.7.1 < 4 { @.X X ] 4.4.f e.u.",
"u.u.q.O.4.W R = =.< P P < 6.6.6.6.6.<.< P P < =.= T W 4.o.r.r.u.",
"u.u.u.f ) T f A o 8.P P 8.6.7.6.6.7.2.9.P P 8.o A f T ) f u.u.u.",
"u.u.r.W g R f A ( - e.r.2.6.6.6.:.7.6.7.u.e.- ( A g R g W u.u.u.",
"u.u.u.W J D R g ..4.6.2.6.6.6.7.6.6.4.6.6.6.1.O.g T R T W u.u.u.",
"u.u.u.e.g R J J g ..4.3.6.7.( r.r.( 3.3.7.4.o.g I D I f r.u.u.u.",
"u.u.u.u.; f I R g ( ....2.6.6.6.6.6.4.3.....( f J D g ; u.u.u.u.",
"u.u.u.u.r.; f R f w t ( ( ..6.6.6.6...` ( w t f R g ; u.u.u.u.u.",
"u.u.u.u.u.r.f f g k b w r : Z Z A A : r e V l f g g r.y.u.u.u.u.",
"u.u.u.u.u.$.$.#.h 5 * @ 5 > $.Z Z $.> 5 % @ 5 h $.$.$.u.u.u.u.u.",
"u.u.u.u.*.9.$.$.& & 5 5 & O $.#.$.$.& & 5 5 & # $.$.9.*.u.r.u.u.",
"u.u.e.*.9.9.9.#.5 q & & 9 5 -.#.$.*.5 q & & 7 5 $.9.9.9.*.u.u.u.",
"u.u.u.u.*.#.9.;.-.5 q 9 5 0.9.*.-.9.9.5 q 7 5 *.*.9.$.*.u.u.u.u.",
"u.u.u.y.e.X.$.$.;.k x x b ;.9.9.9.9.;.z b b b ;.$.&.X.r.u.u.u.u.",
"u.u.u.u.X.6.X.X.} d B / b k -.9.9.-.l l V / b } ..X.3.X.e.u.u.u.",
"u.u.r.X.6.6.3.....k B / b B k k k l B l N ^ b ....6.6.4.X.u.u.u.",
"u.r.X.<.6.4.4.4...d B G b G / / ^ / G l V G b ..3.6.6.6.<.X.e.u.",
"u.e.( 6.6.6.3...A w b F x N G / ^ G N k B G r C X.<.3.3.6.( t.u.",
"r.X.6.6.3.3...C w k k x G x V G G B x G b j l r C X.4.6.6.6...t.",
"e.( 3.6.3.X.A i b b B V G V x b b x B G B B x b i A X.2.6.6.` t.",
"t.( 6.4...C i b b x B G G / / / / / / G G B x b b u A X.6.2.( t.",
"t.( 6.6.X.y u b x N G G ^ / ^ ^ / ^ / / F G N x b i e ..1.6.( t.",
"u.A ....t b u x N G G G N l ^ / / / p N G G F N b u b t ....A u.",
"t.e.w n 3 m v u G G F ^ B / p j l s G B / F G G u b M 3 b w e.u.",
"u.t.w 0 & 6 b i G F / ^ B / / / / G G B ^ / F G u x q & 6 r e.u.",
"u.t.5 & 5 # , n j G F / c N / / F G N b ^ G G l d , & 5 O 5 e.u.",
"q.s t 6 & , i b B p G ^ / M c c x b x ^ ^ G l V b i 6 & , y s w.",
"t.p G r , a n B B B j j / / / / / ^ / / j j B V V n i , t G s r.",
"q.k B B a e.: M B G G V x x x b x x x b N G G B M > e.a B B l r.",
"u.q.z u d t.A > M G G G G / / / ^ ^ ^ G G G G b > A e.d u d q.u.",
"u.u.u.u.u.r.A : : b G / / / / / ^ ^ ^ / ^ G b : : Z r.r.u.u.e.u.",
"u.u.u.u.u.t.A ( A A > > m G F G G G G v > > A A | A t.u.u.u.u.u.",
"u.u.u.u.u.t.A ` ( ( ` A > > e.r.e.e.> > A  .( | | A u.u.u.u.u.u.",
"u.u.u.u.u.e.Z X.3.2.6. .> u.u.u.u.y.u.> | 6.6.3.X.A t.u.u.u.u.u.",
"u.u.u.u.u.u.e.$ O.3.6...> r.u.u.u.u.y.> X.<.3.X.$ t.t.u.u.u.u.u.",
"u.u.u.u.u.u.u.& 6 9 7 & e.u.u.u.u.u.u.y.& 7 7 6 & u.u.u.u.u.u.u.",
"u.u.u.u.u.u.u.u.u.u.u.u.u.u.u.u.u.u.u.u.u.u.u.u.u.u.u.u.u.u.u.u."
};
