/* XPM */
static char *ddab8be81ae949d78bc2e84b3ddd5ebclDFh1AS6uQvl0KEJ[] = {
/* columns rows colors chars-per-pixel */
"66 64 3 1 ",
"  c #33803F",
". c #70993D",
"X c #93B36B",
/* pixels */
"XXXXXXX                ........XXXXXXXX                           ",
"XXXXXXX                ........XXXXXXXX                           ",
"XXXXXXX                ........XXXXXXXX                           ",
".......                        ........                ........   ",
".......                        ........                ........   ",
".......                        ........                ........   ",
".......                        ........                ........   ",
".......                        ........                ........   ",
".......                        ........                ........   ",
".......                        ........                ........   ",
".......                        ........                ........   ",
"               ........                                ........   ",
"               ........                                ........   ",
"               ........                                ........   ",
"               ........                                ........   ",
"               ........                                ........   ",
"               ........                                ........   ",
"               ........                                ........   ",
"               ........                                ........   ",
"       ................        ................                   ",
"       ................        ................                   ",
"       ................        ................                   ",
"       ................        ................                   ",
"       ................        ................                   ",
"       ................        ................                   ",
"       ................        ................                   ",
"       ................        ................                   ",
"...............                ........                ........   ",
"...............                ........                ........   ",
"...............                ........                ........   ",
"...............                ........                ........   ",
"...............                ........                ........   ",
"...............                ........                ........   ",
"...............                ........                ........   ",
"...............                ........                ........   ",
"                                                       ...........",
"                                                       ...........",
"                                                       ...........",
"                                                       ...........",
"                                                       ...........",
"                                                       ...........",
"                                                       ...........",
"                                                       ...........",
"       ........                ........                        ...",
"       ........                ........                        ...",
"       ........                ........                        ...",
"       ........                ........                        ...",
"       ........                ........                        ...",
"       ........                ........                        ...",
"       ........                ........                        ...",
"       ........                ........                        ...",
"       ................        ........                ........   ",
"       ................        ........                ........   ",
"       ................        ........                ........   ",
"       ................        ........                ........   ",
"       ................        ........                ........   ",
"       ................        ........                ........   ",
"       ................        ........                ........   ",
"       ................        ........                ........   ",
"               ........        ........                ........   ",
"               ........        ........                ........   ",
"               ........        ........                ........   ",
"               ........        ........                ........   ",
"               ........        ........                ........   "
};
