/* XPM */
static char *_977489dea2e4a9ede65e4e51f75e479vNCtvZMabc0SkIyS[] = {
/* columns rows colors chars-per-pixel */
"64 64 15 1 ",
"  c #379646",
". c #389647",
"X c #3D9349",
"o c #3E924A",
"O c #3E934A",
"+ c #3C9549",
"@ c #3C954A",
"# c #3E944A",
"$ c #379A4A",
"% c #379A4B",
"& c #379B4B",
"* c #38994A",
"= c #389A4A",
"- c #389A4B",
"; c #389B4B",
/* pixels */
"%%%%---%%%%%%%%%%%%%%%%%%%%%%%%%%%%%%%%$-%%%%%%%%%%%%%%-%-.--$..",
"%%%%---%%%%%%%%%%-%%%%%%%%%%%%%%%%%%%%$$--%%%%%%%%%%%%%%%---%...",
"@@@@@@@@@%%%%%%%----%%%%%%%%----%%%%%%$$----%%%%$$%%%%%%%-%----.",
"@@@@@@@@@@@@@@@@@@@-%%%%%%%%----@@@@@@++@@+@%%%%$-%%%%%%%%--$-.-",
"@@@@@@@@@@@@@@@@@@@@@@@O+@@@@@@@@@@@@@@@@@@@@@@-$$---%%%;$%-.%.;",
"@@@@@@@@@@@@@@@@@@@@@@o#@@@O@O#@@@##@@@O######@@@$--%%%%%$.----;",
"@@@@@@@@@@@@@@@@@@@o#o#oOOOOo#o##o####O@#######o@o@-%%%%%%--;.$$",
"@@@O@@@@@@@@@O@@####o#o#OOOO#o#oo#o#o#ooo#o#o#o#+@##@@%%%-$$;$$$",
"@######oO@###o#oooo#o##o#o#o#oo##o#o#o#o#o#o#o#oOOOOOO@@$$---%%%",
"@#######@Oo#o#o##o#oooo#o#o#o#ooo#o#o#o#o#o#o#o#OOOOOOOO+$--%--%",
"@######ooo#o#o#oo#o##o#o#o#o#oo##o#o#o#o#o#o#o#oOOOOOOOO@O---%%-",
"@####oo#o#o#o#o##o#oo#o#o#o#o##oo#o#o#o#o#o#o#o#OOOOOOOO@@O@+%%%",
"@####o#o#o#o#o#oo#o#o#o##o#oo#o##o#o#o#o#o#o#o#oOOOOOOOOOOOO@@@-",
"####o#o#o#o#o#o##o#o#o#oo#o##o#oo#o#o#o#o#o#o#o#OOOOOOOOOOOO@@@@",
"#####o#o#o#o#o#oo#o#o#o#o#o#o#oo#o#o#o#o#o#o#o#oOOOOOOOOOOOOOO@@",
"###oo#o#o#o#o#o##o#o#o#o#o#o#o##o#o#o#o#o#o#o#o#OOOOOOOOOOOOOOOO",
"##o#o#o##o#o#o#o#o#o#o#o#o#o#o#oOOOOOOOOOOOOOOOOOOOOOOOOOOOOOOOO",
"#o#o#o#oo#o#o#o#o#o#o#o#o#o#o#o#OOOOOOOOOOOOOOOOOOOOOOOOOOOOOOOO",
"##o#o#o##o#o#o#o#o#o#o#o#oo##o#oOOOOOOOOOOOOOOOOOOOOOOOOOOOOOOOO",
"###o#o#oo#o#o#o#o#o#o#o#oo#oo#o#OOOOOOOOOOOOOOOOOOOOOOOOOOOOOOOO",
"####o#o##o#ooo#o#o#o#o#oo#o#o#o#OOOOOOOOOOOOOOOOOOOOOOOOOOOOOOOO",
"###o#o#oo#o###o#o#o#o#o##o#o#o#oOOOOOOOOOOOOOOOOOOOOOOOOOOOOOOOO",
"####o#o##o#oo##o#o#o#o#oo#o#o#o#OOOOOOOoOOOOOOOOOOOOOOOOOOOOOOOO",
"###o#o#oo#o#ooo#o#o#o#o#o#oo#o#oOOOOOOOOOOOOOOoOOOOOOOOOOOOOOOOO",
"###oo#o#o#o##o#o#o#oo#o#o#o#o#o#OOOOOOOOOOOOOOOOOOOOOOOOOOOOOOOO",
"#####o#o#o#oo#o#o#oo#o#o#o#o#o#oOOOOOOOOOOOOOOOOOOOOOOOOOOOOOOOO",
"###oo#o#o#o##o#o#o#oo#o#o#o#o#o#OOOOOOOOOOOOOOOOOOOOOOOOOOOOOOOO",
"##o##o#o#o#oo#o#o#o##o#o#o#o#o#oOOOooOOOOOOOOOOOOOOOOOOOOOOOOOOO",
"##o#o#o#o#o#o##o#oo#o#o#o##o#o#oOOOOOoOOOOOOOOOOOOOOOOOOOOOOOOOO",
"#o#o#o#o#o#o#oo#o##o#o#oooo##oooOOOOOOOOOOOOOOOOOOOOOOOOOOOOOOOO",
"o#o#o#o#o#o#o#oo#o#oo#o##o#oo#o#OOOOoOOOOOOOOOOOOOOOOOOOOOOOOOOO",
"#o#o#o#o#o#o#o#oo#o##o#oo#o##o#oOOOOOOOOOoOOOOOOOOOOOOOOOOOOOOOO",
"o#ooo#o#o#o#o#o#o#oo#o#oo#o#o##ooOOoOOOOo#o#o#o#o#o#o#o#o##o#o#o",
"#o###o#o#o#o#o#o#o##o#o##o#o#oo#OOOOOOOO#o#o#o#o#o#o#o#o#oo#o#o#",
"o##oo#o#o#o#o#o#o##o#o#oo#o#o#ooOOOOOOOOooo#o#o#o#o#o#o#oo#ooo#o",
"#oo#oo#o#o#o#o#o#oo#o#o##o#o#o#oOOOOOOOO#o#o#o#o#o#o#o#o#oo###o#",
"o#o##o#oo#o#o#o#o#o##ooooo#oo#o#OOoOOOOO#o###o#oooo#o#o##o#oo#o#",
"#o#oo#o##o#o#o#o#o#oo##o#oo##o#oOOOOOOOoo#ooo#o##o#o#o#oo#o##o#o",
"##o##o#o#oo#o#o#o#o#ooo##o#oo#o#OOOOOOOO#o#o#o#oo#o#o#o##oooo#o#",
"#o#oo#o#o#oo#o#o#o#o#o#oo#o##o#oOOOOOOOOo#o#o#o##o#o#o#oo##o#o#o",
"#oo#o#o#o#o#o#o#o#o#oo#o#o#o#oo#OOOO#o#o#o#o#o#oo#o#o#o##oo#o#o#",
"###o#o#o#o#o#o#o#o#oo#o#o#o#o##oOOOOo#o#o#o#o#o##o#o#o#oo##o#o#o",
"##o#o#o#o#o#o#o#o#o#o#o#ooo##o#oOOOO#o#oo##o#o#oo#o#o#o##o##o#o#",
"###o#o#o#o#o#o#o#o#o#o#o#o#oo#o#OOOOo#oo#o#oo#o##o#o#o#oo#oo#o#o",
"o##oo#o#o#o#o#oo#o#oo#o#o#o##o#oOOOOOOo+o#o#o#ooo#ooo#o#o#o#o#o#",
"#####o#o#o#o#o##o#o##o#o#o#oo#o#OOOOOOoo#o#o#o#o#oo##o#o#o#o#o#o",
"####o#o#o#o#o##o#o#oo#o#o#oo#o#oOOOOooooo#o#o#o##o#oo##oo#o#o#o#",
"###o#o#o#o#o#oo#o#o#oo#o#o##o#o#OOOOoooo#o#o#o#oo#o##ooo#o#o#o#o",
"######o#o##o#o#o#o#o#o#o#o#o#o#oooo#ooooooo#o#o##o#o#o#o#o#o#o#o",
"#######o#oo#o#o#o#o#o#o#o#o#o#o###oo#ooooooooo#oo#o#o#o#o#o#o#o#",
"#####@@#o##o#o#o#o#o#o#o#o#o#o#oo#o#o#oooooooooo#o#o#oo##o#o#o#o",
"####@@@@##o#o#o#o#o#o#o#o#o#o#o##o#o#o#o#oooooooo#o#oo#oo#o#o#o#",
"###@@@@@@#o##o#o#o#o#o#o#o#o#o#oo#o#o#o#o#o#o+ooooo#o#o#o#oo#o#o",
"##@@@@@@@@#oo#o#o#o#o#o#o#o#o#o##o#o#o#o#o#oo#oooooooo#o#o##o#o#",
"####o########o#o#o#o#o#o#o#ooo#o#oooo#o#o#o##o#oooooooooo##o#o#o",
"############o#o#o#o#o#o#o#o##oo#o#o##o#o#o#oo#o##o#oooooooo#o#o#",
"###@##########o##o#o#o#oo#o#o#oo#oo#oo#oo#o#o##oo#o#o#o#ooooo#o#",
"#@@@##o######o#oo#o#o#o#oo#o#o###o#oo#o##o#o#oo##o#o#o#o#ooooo#o",
"@@@@#########oo##o#o#o#o#oo#o##oo#o##o#oo#o#oo#oo#o#o#o#o#o#oooo",
"@@@@###########oo#o#o#o#o##o#oo##o#oo#o##o#oo#o##o#o#o#o#o#o##oo",
"@@@@###########o#o#oo#o##o#oo#oo#o#o#o#o#oo#o#o#o#o#o#o#o#o#ooo+",
"@@@@o#############o##o#oo#o##oo#o#o#o#o#o##o#o#o#o#o#o#o#o#o#ooo",
"@@@@######o###@@o#o#o#o#o#o#o#o#o##o#o#o#o#oooo#o#o#o#o#o#o###++",
"@@@@@@########@@#o#o#o#o#o#o#o#o#oo#o#o#o#o#o##o#o#o#o#o#o#o#o@+"
};
