/* XPM */
static char *_58c7774c45445dc83516cfb6aaa0a02gagIl0Nd1ESSb9q1[] = {
/* columns rows colors chars-per-pixel */
"64 64 203 2 ",
"   c #E37E9C",
".  c #EA7D9A",
"X  c #EA8299",
"o  c #EA8394",
"O  c #DD93A2",
"+  c #DF99A4",
"@  c #EA8DA4",
"#  c #E88EA8",
"$  c #FA83A1",
"%  c #F48CA4",
"&  c #E790A1",
"*  c #EC93A5",
"=  c #E19AA6",
"-  c #EA99A7",
";  c #E297AB",
":  c #E995AC",
">  c #E59BAC",
",  c #EC9BAD",
"<  c #F395AB",
"1  c #FB93AD",
"2  c #F39AAD",
"3  c #FC99AE",
"4  c #E39EB2",
"5  c #EC9DB3",
"6  c #F39DB1",
"7  c #FF9BB3",
"8  c #DCA5AB",
"9  c #DEA9AF",
"0  c #DCA6B3",
"q  c #DAB5BD",
"w  c #E4A3AD",
"e  c #ECA2AF",
"r  c #F1A5AF",
"t  c #E5A5B4",
"y  c #ECA4B4",
"u  c #E3ABB6",
"i  c #EBABB7",
"p  c #E6A6BA",
"a  c #ECA6B9",
"s  c #E5ABBA",
"d  c #EBACBB",
"f  c #F3A4B4",
"g  c #FBA3B5",
"h  c #F3A9B5",
"j  c #F2A5BA",
"k  c #FAA5BB",
"l  c #F3ABBB",
"z  c #FCABBC",
"x  c #E3B5B7",
"c  c #E5B3BC",
"v  c #EDB4BD",
"b  c #E6B9BE",
"n  c #EEB9BF",
"m  c #F3B3BE",
"M  c #FAB0BF",
"N  c #DFBBC5",
"B  c #FDA7C2",
"V  c #F5AEC3",
"C  c #FCACC2",
"Z  c #E5B6C1",
"A  c #ECB4C3",
"S  c #E6BCC4",
"D  c #ECBAC5",
"F  c #EDB6C9",
"G  c #E7BDCB",
"H  c #ECBDCA",
"J  c #F3B3C3",
"K  c #FBB4C5",
"L  c #F2BBC5",
"P  c #FBBAC5",
"I  c #F4B6C9",
"U  c #FEB7CB",
"Y  c #F4BCCB",
"T  c #FBBCCC",
"R  c #EBBFD0",
"E  c #FEBED2",
"W  c #FFBED8",
"Q  c #DFCAC9",
"!  c #EDC4C7",
"~  c #EACBC6",
"^  c #E4C4CC",
"/  c #EDC4CC",
"(  c #EBC9CD",
")  c #F5C2C6",
"_  c #F4C3CD",
"`  c #FAC3CE",
"'  c #F2C9CE",
"]  c #EDC4D2",
"[  c #EDCCD4",
"{  c #EECCD9",
"}  c #F4C5D3",
"|  c #FDC4D3",
" . c #F4CAD4",
".. c #FBCBD5",
"X. c #F3C7D8",
"o. c #FEC6D9",
"O. c #F5CCDB",
"+. c #FCCCDB",
"@. c #EED1D6",
"#. c #EED9D6",
"$. c #EDD4DB",
"%. c #EEDAD9",
"&. c #F3D3D6",
"*. c #FCD1D6",
"=. c #F5D2DD",
"-. c #FCD2DD",
";. c #F4D9DC",
":. c #FCDADD",
">. c #FDCEE1",
",. c #ECD4E1",
"<. c #EFDAE1",
"1. c #F7D5E3",
"2. c #F5D5E1",
"3. c #F7D7E4",
"4. c #F5D5E4",
"5. c #F7D4E2",
"6. c #F9D0E0",
"7. c #FAD1E1",
"8. c #F9D3E1",
"9. c #FBD2E0",
"0. c #F9D3E2",
"q. c #FBD2E2",
"w. c #FFD0E0",
"e. c #FCD2E0",
"r. c #FCD3E1",
"t. c #FDD3E1",
"y. c #FCD1E2",
"u. c #FFD1E3",
"i. c #FCD3E3",
"p. c #FDD2E3",
"a. c #FFD3E3",
"s. c #FED2E1",
"d. c #F9D5E1",
"f. c #F8D4E2",
"g. c #F9D5E3",
"h. c #FBD5E2",
"j. c #FAD4E3",
"k. c #FAD6E2",
"l. c #FBD6E1",
"z. c #FDD4E2",
"x. c #FED4E2",
"c. c #FED5E3",
"v. c #FFD4E3",
"b. c #FCD6E3",
"n. c #FDD3E5",
"m. c #FFD3E7",
"M. c #FFD1E5",
"N. c #FBD5E4",
"B. c #F8D6E4",
"V. c #F9D7E5",
"C. c #FAD6E4",
"Z. c #FBD7E5",
"A. c #F9D6E6",
"S. c #FDD4E4",
"D. c #FED5E5",
"F. c #FFD5E4",
"G. c #FDD7E4",
"H. c #FCD6E5",
"J. c #FFD6E4",
"K. c #FFD7E5",
"L. c #FDD7E6",
"P. c #FFD6E6",
"I. c #FFD7E7",
"U. c #FAD6E4",
"Y. c #F2D8E3",
"T. c #F6D8E4",
"R. c #F6DAE6",
"E. c #F3DCE4",
"W. c #F3DBE2",
"Q. c #F8D8E3",
"!. c #FDD9E3",
"~. c #FCD9E0",
"^. c #F8D8E5",
"/. c #F9DBE5",
"(. c #F9D9E6",
"). c #F8D8E7",
"_. c #FAD8E6",
"`. c #FBD9E7",
"'. c #F9DAE5",
"]. c #FFD8E5",
"[. c #FCD8E6",
"{. c #FDD9E7",
"}. c #FFD8E6",
"|. c #FED8E7",
" X c #FFD9E6",
".X c #FDD9E5",
"XX c #FCD9E5",
"oX c #FFD1EA",
"OX c #FFD5E8",
"+X c #FFD7E8",
"@X c #FBD9E9",
"#X c #F8D9E8",
"$X c #FFD9E8",
"%X c #FFD9E9",
"&X c #FDDBE9",
"*X c #FEDAE8",
"=X c #FFDBE9",
"-X c #FADCE8",
";X c #FCDCE9",
":X c #FFDCE9",
">X c #FFDBEC",
",X c #FEDBE9",
"<X c #FFE0EB",
/* pixels */
"3.3.3.B.B.B.B.H.B.H.B.H.B.B.H.B.B.B.B.B.B.B.B.B.H.].H.).H.B.H.H.k.3.B.B.B.B.B.B.H.k.B.H.k.B.k.B.H.H.B.H.H.B.H.H.B.B.k.B.B.B.B.B.",
"3.3.B.B.B.B.B.B.H.B.B.k.H.k.k.H.B.B.B.B.B.B.B.B.B.B.B.H.H.B.B.H.B.B.B.B.B.B.B.B.B.H.H.B.k.H.H.B.k.B.B.k.B.k.k.B.k.H.H.B.H.B.B.B.",
"3.B.B.B.B.B.B.B.k.B.H.H.H.B.B.H.B.B.B.k.n.3.3.3.B.k.H.k.H.k.k.H.B.B.B.B.B.B.B.B.B.B.k.H.B.H.k.H.B.k.H.B.B.H.B.B.B.B.H.H.B.B.B.3.",
"1.1.1.1.z.B.0.k.B.H.k.B.k.H.B.k.k.B.0.B.1.k.n.1.H.H.B.B.B.H.B.B.1.1.1.3.1.1.1.1.B.k.n.B.H.B.B.B.k.n.k.0.B.z.B.0.B.B.k.B.B.B.B.3.",
"1.1.k.1.k.B.0.B.k.H.B.B.B.H.k.B.0.k.B.0.k.k.1.n.B.H.H.k.B.H.B.H.0.k.k.0.k.B.0.B.H.B.H.H.k.H.H.B.B.0.k.n.k.k.0.k.B.B.k.H.H.B.B.B.",
"B.B.H.B.B.B.k.H.B.B.H.k.H.B.k.H.k.H.B.B.B.B.B.k.].H.B.H.B.H.H.H.B.B.H.B.B.B.H.H.B.k.k.B.B.B.k.H.B.B.B.k.B.B.H.B.B.H.B.B.k.B.B.B.",
"B.H.B.B.H.B.H.B.H.B.k.n.B.k.B.B.0.B.B.H.H.B.k.k.k.B.B.H.H.B.B.B.H.B.B.H.B.H.k.B.B.H.H.B.B.H.k.B.H.B.H.H.B.B.H.H.B.H.B.H.B.B.B.3.",
"B.B.H.k.k.n.k.n.k.H.H.B.H.H.B.H.H.H.H.H.H.H.n.H.k.3.0.B.k.k.B.k.B.H.B.k.H.B.k.H.k.H.B.k.H.B.H.B.B.H.k.B.B.H.k.B.B.k.k.H.B.B.B.3.",
"B.B.B.H.B.k.B.H.B.H.k.5.5.B.B.H.H.k.B.H.k.n.B.B.B.H.H.B.B.k.k.H.H.H.B.H.B.H.k.k.B.B.0.k.0.B.H.H.H.B.k.H.B.k.H.B.H.k.k.B.H.B.B.B.",
"B.B.B.B.H.H.B.z.H.B.k.0.0.0.B.H.B.B.H.B.B.B.k.H.H.B.k.k.H.H.B.B.k.B.B.k.H.B.B.H.B.H.0.B.B.0.k.B.k.H.B.B.H.H.B.B.H.B.H.B.B.B.B.B.",
"B.B.3.B.B.H.B.H.B.B.H.k.k.B.B.H.H.k.k.H.H.H.k.B.k.B.B.H.B.H.B.H.k.H.H.k.H.k.k.H.k.k.H.B.H.k.B.B.B.H.B.H.B.H.H.k.n.B.H.k.H.B.B.B.",
"B.B.k.H.B.k.B.H.H.k.B.H.B.k.H.B.B.H.B.B.k.B.B.H.B.H.H.B.B.k.k.H.B.B.H.B.B.H.B.B.0.H.B.H.B.H.B.k.B.k.k.H.B.k.B.k.k.B.B.H.k.B.B.B.",
"B.B.B.B.k.B.H.z.0.k.B.k.H.k.B.k.k.B.H.H.B.H.H.B.H.H.k.B.B.H.k.B.B.H.H.B.H.k.H.k.B.B.H.H.B.H.k.k.B.H.k.B.H.k.B.H.n.k.H.B.B.B.B.B.",
"B.B.k.H.H.B.B.n.B.H.B.H.B.H.H.B.H.B.k.B.H.B.k.B.k.B.B.H.k.H.B.H.H.B.B.k.H.B.B.H.B.H.B.k.B.k.H.B.H.B.B.H.B.H.H.B.B.H.B.B.H.B.B.B.",
"B.B.n.3.k.B.B.k.H.B.H.B.B.H.B.H.B.H.H.B.k.B.k.n.H.B.H.k.H.B.H.B.k.k.B.H.k.B.B.B.H.B.B.H.H.k.B.B.H.B.H.k.k.B.B.B.n.k.H.k.B.B.B.B.",
"B.B.B.B.H.B.H.H.H.H.B.k.H.B.k.H.k.H.B.k.H.B.H.B.k.H.B.B.B.B.k.B.B.H.H.B.n.B.H.k.H.k.H.B.B.H.H.H.B.k.H.B.H.B.H.z.H.B.B.k.H.B.B.B.",
"1.*XO.0.+XB.H.n.oX2.).H.0.>.oX,.1.R.1.B.B.B.5.H.B.B.p.z.1.1.k.n.B.1.R.B.B.B.5.R.#X+X>.+XB.B.5.].H.0.p.H.B.B.B.B.B.3.B.*Xn.k.B.k.",
"{ X.>XH.0.).{ *Xn.,.k.H.=.H.+X#X=.B.O.B.k.5.H.B.!.k.p.H.).1.0.H.k.0.k.B.H.+XB.1.O.5.+X+.*X3.B.5.5.H.G 0.*X>.*X5.n.oXn.0.#X).Y.E.",
"0.p.O.B.).).*X1.;XR.p.H.<.Y.-.n.0.*X{ H.H.0.*X0.-.O.O.0.].k.5.B.p.H.B.5.>.p.n.k.#XB.H.] k.=.*X*XH.*XO.+XH.H.O.+XB.*Xn.=.+XH.O.H.",
"H.0.*Xn.O.B.B.n.0.=.+.p./.1.n.*XH.H.O.H.0.0.B.5.-.O. .O.z.0.0.].O.n.B.5.O.O.n.B.).B.0.n.B.4.5.H.H.0.B.H.0.n.] H.$.R.R.).H.+.R A ",
"$.5.0.p.=.p.>.F ..!.z.O.H.F E =.n.0.*X*X=.+Xn.).-.O.O.-.n.>.p.B.] k.).Q.k.-.].k.1.k.0.H.*XB.0.H.p.p.] 0.p.+.O.-.>.+.p.H.O.:.p.} ",
"=.H.} O.H.+.+.p a ' &._ +.A | !.} ] -.O.] -.O.k.0.-.=.H.o.+. . .O.].=.Q.!.p.*X-.).].z.} =.z.k.O.z.+.O.-.-.0.H.H.H. .O. .H O.H...",
"+.} p. .} +.A | i _ } Y p.D E  .O.O.].].O.H.z.].p.k.1.].F T X. .>.z.O.k.0.X.+.O.-.H.-.O.O.H.+.} +.H +XO.O.5.O.z.1.@.-. .H Y I d ",
"| d Y _ ..O.A +.L +.L L ]. .} / X.O.p.H.} =.k.=.0.).=.H.0 T ..:.F O.O.].>.} | R k.n.R ..] ].O.p.} H O.>.k.-.:X{ O.-.-. .} ..-. .",
"O.o.;.p.v < - m ..c w *.E { / , K / A -.+.j J [ % ! &.I +.a  .:.A | I ..E s } } e % )  .E >.$.p.w l -., K > H K | w ;.J E d f L ",
"G Y [ d T K L ) T J h J a  .].f j i | c W.A |  .n L -.Y | ^ T { ..-.[ a Y +.-.&.u A ^ ..5  .t ` | ' '  ., ..Z +./ | ' D 0 j 7 ) ",
" .J :.U A / ` &.L ! - y B O.s ].L T J K &.-.-.{ f L  ._ H &.T y L I +.=.<XE ( T o.V z.O.$.l K ) v L T t -.S ' | g r L D T x &.' ",
"_ i / U ^ &. .D j ` J +.&.{ I _ / | A A u b K ..c ..2 . *.*.' 1 ` :.&.5 / Y H ' t | @.C j %...b 6 :.S C -.| J m m i h T -.M K  .",
"s Y +.H Q.` -.f i s z.E $.| } } a u z.[ z / : T L *.` P x K n #.s z :.[ &...I A *.| v ~ ..W l i 5 [ -./ A ! y J L - w ..P k w m ",
"J f  .D &.T k + @ U Z :.:.m - T z I | ..< ..v ..* T i z < = g v O :.J P T J ..A  .- *.y i A E z.` _ L L T L y 2 f i ..j L L l L ",
"! % @...H l 1 ) ` | K +.g h - ' d I ` T 2 a ( J H ^ ..h - #.n n m z J ( J } a A B Y u *.j [ | u 2 l S C K 2 i M &., ` S D i < T ",
"' h i Z ' $ y ~ ' 5 ^ J ) o *.' -.L  .K D z &.7 k -.' 8 ) 3 z & w ' C } j X...:.} X.:.k x K X ) ) i L +.w ` x h } K -.v ..*.M c ",
"D $ } _ =.J #.z 3 = l v r * &...z._ D j ..4 ..H ` K f J L _ ..P +.H &...a j +.:.v k ' 6 *.P J L -.J d &.V J  .6 f ) h g w n f ` ",
"*.L d | z.d i Y ' J m +.l T v l y  .T z K | T i > K v L -._ u l X.-.| ` J | T H !.K ( X ( K u d m j J !.I |  .h i - P w P v ..L ",
"=.( :X  ^ K l $./ A T L +.&.>XX.H ..T !.} -.a =.H T i v A !.| 0 H L ..J ..A H Y ^ K .., D P Y | y 5 | [ Y Y =.K ) & t ) K L ) J ",
"| z.D O.-.T ..;...z.F =.F J E.0.T Q.-. ./ :.} +.} -.Y T ..-.' | I -._ -.; T L / I | y | l :.D &.M J | [ H. .$.t K i n L } } T d ",
"s Y -X@.=.X.+.+.+.{ [ =.| # } ..J A H I ] D Y T Y ..:. .=.O.Y ` ..| [ | x U -.} p./ a ..| | ..z.Y .._ z.-.+.-.T T _ X.J :. .E Y ",
"-X..!.O.O.U A p.p...-.:.P J H L ..| X.+.W.E >. .X.H.-.q >.+XX.Y O.H A ....{ +.p.).{ &.D +.4 X.A _ -.Y +.] _ p...+.} _ ].O.-.H z.",
"Y.S a ^ ..>.T p.0.+.+.-.D +.=.X.H.Y.] n.).@.{ O.*X] z.z.>.>.n.&.k.H.X...Q.1.B.>. .B.=.p.[ +.].X.z.=.} X.-.}  .c =.z.p.k.O.0.O.-.",
"1.W T ..' [ =.O.>X,.z.Q.X.I :X>. .5.Y O.p.B.| =.o...=.=.B.n.X.-.n.O.] =.k.O.n.3.W  .+.].] +.=.).n.1.>.n.] ..=.-.2.:Xz.>.0.B.{ B.",
"5.=.=.+.-.B.B.n.} X.n.B.5.O.O.+XB.3.5.B.5.>.H.0.H.+XH.0.H.H.n.=.O.n.0.B.k.O.0.X.>.-.O.O.O.O.-.0.n.0.B.O.B.B.*X5.O.1.H.p.+.O.O.z.",
"].H.O.O.O.5.A.n.H.p.0.0.H.B.n.O.B.B.0.5.O.0.0.>.O.0.B.0.H.H.6.O.>.H.0.B.1.0.n.O.0.p.-.0.z.p.0.-.O.5.H.B.B.B.B.n.O.k.H.O.O.-.O. .",
"B.Q.=.O.O.n.A.4.p.n.k.B.B.B.H.0.H.n.B.O.>.B.O.B.+XB.O.X.O.5.0.B.>.H.B.B.B.H.H.O.k.z.z.H.H.z.k.z.=.5.B.B.0.0.O.+X=.z.z.=.O.p.-.X.",
"O.O.-.5.B.B.n.4.X.0.*XB.5.5.H.].n.O.H.0.5.*X0.*XH.B.B.0.0.n.H.0.0.H.B.B.B.B.*XH.B.B.B.k.k.B.k.B.5.5.B.5.O.>.R n.B.H.B.0.0.H.B.0.",
"O.O.=.+X*XB.0.1.0.B.H.B.B.B.B.k.n.G 0.].O.B.1.B.H.H.H.H.+XH.H.B.B.B.B.B.B.B.H.B.H.H.H.k.B.B.H.H.5.n.).].n.0.G >.0.5.5.1.H.k.B.B.",
"z.p.B.B.H.0.1.].H.B.H.B.B.B.B.5.B.] 0.>X1.3.H.B.H.B.k.5.0.B.H.H.H.k.B.1.3.*XB.B.B.H.B.B.H.H.H.B.B.B.H.B.H.H.O.n.5.5.0.].H.k.5.B.",
"-.z.H.n.4.B.B.k.0.0.H.H.B.0.k.B.B.0.p.H.H.B.B.H.5.5.B.*X].B.0.=.H.k.H.k.B.].k.H.k.k.B.k.B.H.k.0.H.B.B.k.3.k.H.*X0.0.k.B.B.4.k.3.",
"] -.H.n.4.#XH.=.].p.0.H.H.B.5.n.5.*X0.5.].H.0.H.].H.H.B.5.k.B.].).0.].B.n.H.5.B.H.B.n.p.z.B.B.H.p.0.].B.].5.).1.B.H.n.5.5.B.3.3.",
"B.k.B.H.B.H.B.B.H.B.H.B.H.H.k.B.B.H.B.B.H.k.k.B.H.H.k.0.0.B.B.H.p.H.H.n.k.H.z.H.H.B.B.H.k.H.B.k.B.B.H.B.B.B.H.B.H.k.0.H.H.H.B.B.",
"B.H.H.B.B.B.H.k.k.H.B.k.k.B.B.H.B.k.H.k.H.B.H.B.H.B.k.5.0.k.B.H.B.B.k.B.B.H.B.B.k.k.H.B.B.B.H.H.B.H.k.H.n.k.k.B.H.B.H.H.0.B.B.B.",
"B.k.k.B.n.k.H.B.B.B.B.H.k.H.H.k.B.H.H.B.B.B.H.k.B.H.B.0.0.H.B.H.B.H.H.k.H.k.B.H.B.H.H.k.B.H.B.B.B.H.B.H.B.H.H.B.B.B.H.B.H.B.B.R.",
"H.H.B.H.k.H.B.k.H.k.H.B.B.B.H.B.B.n.k.k.H.k.B.H.H.B.H.B.B.k.H.B.B.k.B.H.B.B.B.B.H.B.B.H.B.k.n.k.H.B.B.k.H.B.k.k.H.k.n.z.z.B.3.k.",
"k.B.k.B.H.B.B.H.B.k.H.B.H.B.H.B.H.k.B.H.H.B.B.k.k.B.k.B.H.B.B.k.H.B.H.k.H.B.H.1.k.B.H.k.H.B.H.H.k.B.B.H.B.H.B.H.H.B.n.B.B.H.k.3.",
"B.H.H.B.k.H.H.B.B.H.B.k.k.B.k.H.B.H.H.B.B.k.H.H.H.B.H.B.k.H.k.H.B.B.B.B.B.B.k.n.B.H.B.B.B.B.k.B.B.H.k.H.B.k.H.B.B.B.z.k.H.B.B.3.",
"H.H.B.B.B.H.k.k.H.k.B.H.H.B.n.B.B.B.k.H.H.k.H.B.k.B.H.H.B.B.H.B.B.B.B.B.B.B.B.B.k.H.H.k.H.k.k.H.H.H.k.B.H.B.H.k.H.k.H.n.n.B.B.3.",
"k.B.H.k.H.B.B.H.H.B.H.B.k.k.H.B.k.H.B.B.H.B.B.k.H.B.k.B.H.k.B.H.B.B.B.B.B.B.B.B.B.B.H.B.B.H.B.B.k.B.B.H.k.B.B.H.H.B.B.z.H.B.B.3.",
"1.4.k.k.k.B.k.1.n.k.H.p.H.H.n.k.k.B.H.H.B.H.B.H.B.k.k.H.B.B.B.k.B.H.B.H.B.B.H.k.n.B.H.n.z.B.H.k.B.k.H.B.H.B.k.H.H.k.B.H.k.B.B.B.",
"3.3.3.H.B.B.B.3.H.B.B.H.k.B.B.B.H.B.k.B.n.k.H.B.H.H.B.B.H.k.H.H.H.B.B.k.H.k.H.B.k.H.k.B.H.B.H.B.H.H.B.B.k.H.B.B.B.B.H.B.B.B.B.B.",
"B.B.B.H.H.H.].B.B.B.H.B.k.H.H.k.B.H.B.H.B.k.B.B.B.H.B.H.B.H.H.B.k.k.B.H.H.B.B.H.H.B.B.H.B.B.H.k.B.H.H.k.B.H.H.k.H.B.H.B.B.B.B.B.",
"B.B.B.B.H.B.H.B.H.k.k.B.B.B.H.B.B.k.H.B.B.H.H.k.k.0.B.0.k.0.B.k.B.H.H.B.k.H.B.k.B.k.H.B.H.k.B.H.B.k.B.k.H.B.B.H.k.0.k.1.3.0.4.k.",
"R.B.B.B.B.H.k.B.H.B.B.0.k.B.B.H.B.H.k.k.B.k.B.n.k.0.B.k.k.0.B.0.k.H.n.k.B.B.H.B.H.H.B.k.B.B.H.H.H.H.B.H.B.B.B.B.n.k.1.1.5.1.1.3.",
"B.B.B.H.H.B.B.B.B.B.B.3.0.B.B.B.H.B.B.H.B.H.B.k.B.B.H.B.B.k.H.B.B.B.B.H.H.k.k.H.B.B.B.B.k.B.B.B.k.B.B.k.n.k.H.k.1.B.B.B.B.B.3.3.",
"B.k.B.B.B.H.H.B.B.B.B.0.B.B.B.B.H.k.k.H.H.B.B.H.H.B.B.H.B.H.H.B.H.k.H.B.B.k.B.B.B.B.B.5.3.B.B.B.B.k.H.B.B.H.H.B.3.3.B.B.3.3.3.3.",
").).B.H.B.].H.).B.B.4.k.B.B.B.B.B.H.B.B.k.H.k.H.B.k.H.B.H.B.k.H.B.B.B.k.H.H.B.H.B.B.4.4.k.5.B.B.B.n.k.H.k.H.B.B.3.3.B.3.3.3.3.3."
};
