/* XPM */
static char *c76a0f4c29d74293a04eecd1c3779df0Eek76oD9Y79kTiIR[] = {
/* columns rows colors chars-per-pixel */
"64 64 182 2 ",
"   c black",
".  c #348C31",
"X  c #348C31",
"o  c #348C31",
"O  c #348C31",
"+  c #348C31",
"@  c #348C31",
"#  c #348C31",
"$  c #348C31",
"%  c #348C31",
"&  c #348C31",
"*  c #348C31",
"=  c #348C31",
"-  c #348C31",
";  c #348C31",
":  c #348C31",
">  c #348C31",
",  c #348C31",
"<  c #348C31",
"1  c #348C31",
"2  c #348C31",
"3  c #348C31",
"4  c #348C31",
"5  c #348C31",
"6  c #348C31",
"7  c #348C31",
"8  c #348C31",
"9  c #348C31",
"0  c #348C31",
"q  c #348C31",
"w  c #348C31",
"e  c #348C31",
"r  c #348C31",
"t  c #348C31",
"y  c #348C31",
"u  c #348C31",
"i  c #348C31",
"p  c #348C31",
"a  c #348C31",
"s  c #348C31",
"d  c #348C31",
"f  c #348C31",
"g  c #348C31",
"h  c #348C31",
"j  c #346A14",
"k  c #396E14",
"l  c #32651B",
"z  c #356A1B",
"x  c #396D1C",
"c  c #377213",
"v  c #3C7315",
"b  c #3D7813",
"n  c #37701D",
"m  c #3C721C",
"M  c #3F781A",
"N  c #255120",
"B  c #2A5520",
"V  c #2C5C21",
"C  c #2D5D29",
"Z  c #2F6720",
"A  c #2E6129",
"S  c #336522",
"D  c #396422",
"F  c #366A22",
"G  c #3A6D23",
"H  c #326328",
"J  c #376B29",
"K  c #3B6D2A",
"L  c #3D7222",
"P  c #3E7229",
"I  c #3F7132",
"U  c #41760A",
"Y  c #437B0D",
"T  c #417515",
"R  c #427B15",
"E  c #497E16",
"W  c #41761B",
"Q  c #457C1E",
"!  c #477F1E",
"~  c #447A1C",
"^  c #497E1C",
"/  c #426F2C",
"(  c #407526",
")  c #417523",
"_  c #497625",
"`  c #437921",
"'  c #447B21",
"]  c #477D21",
"[  c #437926",
"{  c #447A24",
"}  c #447927",
"|  c #467C24",
" . c #447A24",
".. c #487E23",
"X. c #41752A",
"o. c #43772C",
"O. c #41752D",
"+. c #42752B",
"@. c #43782A",
"#. c #44792B",
"$. c #467D29",
"%. c #467B2E",
"&. c #457A2A",
"*. c #497F29",
"=. c #4A7D2C",
"-. c #507D28",
";. c #416E33",
":. c #407330",
">. c #427533",
",. c #477D31",
"<. c #4A7F31",
"1. c #4A7D33",
"2. c #497B3B",
"3. c #4D743B",
"4. c #F10808",
"5. c #FF7930",
"6. c #DB4161",
"7. c #438308",
"8. c #48830F",
"9. c #468115",
"0. c #4A8313",
"q. c #47811A",
"w. c #4B831C",
"e. c #4F891B",
"r. c #50841C",
"t. c #528B1C",
"y. c #598F1F",
"u. c #599710",
"i. c #5E9918",
"p. c #639C17",
"a. c #51A200",
"s. c #73AE14",
"d. c #478022",
"f. c #4B8124",
"g. c #4F8726",
"h. c #4B8223",
"j. c #4E8821",
"k. c #4F852E",
"l. c #4C822B",
"z. c #528423",
"x. c #548C24",
"c. c #598E21",
"v. c #52862B",
"b. c #508928",
"n. c #558D2C",
"m. c #548C2B",
"M. c #5A8E2C",
"N. c #579122",
"B. c #5B9424",
"V. c #5E9827",
"C. c #5E942B",
"Z. c #4D8233",
"A. c #4E813D",
"S. c #518534",
"D. c #548A34",
"F. c #578D37",
"G. c #548A32",
"H. c #5A8D35",
"J. c #52843D",
"K. c #578C39",
"L. c #5B8E3D",
"P. c #579032",
"I. c #5C9233",
"U. c #5F913B",
"Y. c #609926",
"T. c #62922A",
"R. c #669B2F",
"E. c #689C2E",
"W. c #609632",
"Q. c #639934",
"!. c #689930",
"~. c #61933A",
"^. c #649B3A",
"/. c #6C9F38",
"(. c #6DA23A",
"). c #548840",
"_. c #619644",
"`. c #639347",
"'. c #FFA200",
"]. c #9AEB00",
"[. c #FF61B2",
"{. c white",
/* pixels */
"j L { ( < & f < X < *.^ g.' 5 J *.k v.v G L c 2 x d G z J 8 P l z O.h G.I v u.t.h.X.z.Q x , 1 z 3 #.l w j %.w.2 j j m L d 1 d d ",
"z 1 [ h d 1 O O $ 5 n ~ W m l l ] ( T v %.| R W 9 G z 6 z X h $.L 2 M m 8 d 0.t.n l j j 3 m O.f 5 [ z j q _.n.[ l L d L X w l.d ",
"G h l.m z 6 1 l & z z k j L #.6 k x k ~ w s B.x.K 1 l 1 f L #.m *.~ ~ 1 L 2 ] j h 5 W w < z % 5 P ' @.m w Z.v q 1 G 6 Z.d w d d ",
"5 1 w c w d F 9 5 6 : L ' 2 w 1 y ( l h c b w.n ,.z x h h d h k.x Q Q % ,.j [ < > K l.z = O o.& L u z W v L W 2 & O P P < z 2 1 ",
"& h W f.j w & < & h h [ k.j < 2 j ) z 4 h h h 1 h W u n ) l l + f Z.z %.[ w F.5 v S { : 3 < 1 ).o.m 1 L w 3 k 5 5 X d L x 1 g z ",
"o.S.q u | 6 f g + + > ~ I.q O z #.x +.l 0 9 S l j ~ q j x % < l f 6 j d z q v z n F n w X w f @.$.| f z 6 . z & & & G 1 x Z.5 x ",
"< L % v @.& P l $ 6 j c C.c j h 8 v k l ) D 3 6.6.6.6.m 1 6 < & j 6.6.6.6.6.6.6.c K q x 9 w z z l.] P d z $ 1 @ 8 + d d w x 1 z ",
"L ) j l.j F 1.l J ( M a x.c L d 4 E ^ v.W 6.6.6.[.[.6.6.6.h + 6.6.6.[.[.[.[.[.6.6.6 w 2 + m j % M q d d f A X $ & l l h L w & z ",
"*.M p t.z d v @.i c c k x z h x x @...0.6.6.[.[.[.[.[.6.6.6.O 6.[.[.[.[.[.[.[.[.6.6.f d % y $.O S 9 l 5 d d % + L d z x d 9 l & ",
"*.j x.T.6 >.z ' c f.j w z z =.h h 4 y x 6.[.[.[.[.[.[.[.6.6.d 6.[.[.[.[.[.[.[.[.[.6.f z w n %.d f f G L | j l z W n d k J z P 2 ",
"y 2 ~.T 5 >.z z z K.%.w { h ] k y N x V 6.[.[.[.[.[.[.[.6.6.6.6.[.[.[.[.[.[.[.[.[.6.f d 1 j 2 1 G 3 < d w z < l W W k.j ,.d w L ",
", : v.y 1 9 x w j d J j ) v.z.E ^ B i D 6.[.[.[.[.[.[.[.[.6.6.6.[.[.[.[.[.[.[.[.[.6.d 5 6 $., | g 6 < f ' L [ l *.w k.z x G z > ",
"0 , 0 2 f 5 & h q 6 d l v ^.E ^...0 U /.6.[.[.[.[.[.[.[.[.6.6.[.[.[.[.[.[.[.[.[.[.6.j 6.6.6.6.6.6.6.5 6 % $.n k l.j d L G G G w ",
"4 w -.l w 1 5 l.1 G J l k ^ b 6.6.6.6.6.6.6.[.[.[.[.[.[.[.6.6.[.[.[.[.[.[.[.[.[.6.6.6.6.[.[.[.[.[.6.6.# % > [ d A.> L P 5 & Z.m ",
"} : %.D & n ,.M z < 9 S h k 6.6.[.[.[.[.6.6.[.[.[.[.[.[.[.6.6.[.[.[.[.[.[.[.[.6.6.6.[.[.[.[.[.[.[.[.6.6.& z m j m z l.& d d L ~ ",
"h j 5 8 w w % n.L z = S z 6.6.[.[.[.[.[.6.6.6.[.[.[.[.[.[.6.6.[.[.[.[.[.[.[.6.6.6.[.[.[.[.[.[.[.[.[.[.6.3 w L z d [ z @.L w v j.",
"x : d 8 7 1 W w w.] 1 l 2 6.[.[.[.[.[.[.[.6.6.[.[.[.[.[.[.6.6.6.6.6.6.[.[.6.6.6.[.[.[.[.[.[.[.[.[.[.[.6.5 5 J.1 } G l T E k W W ",
"1 2 z S # 1 j W x.l.1 F < 6.[.[.[.[.[.[.[.6.6.6.[.[.[.6.6.6.5.5.5.5.'.6.6.6.6.[.[.[.[.[.[.[.[.[.[.[.6.6.z d ( 2 K.( 2.k v.x G 1 ",
"f l < d d < j w u ] J P < 6.[.[.[.[.[.[.[.[.6.6.6.[.6.6.5.5.5.'.'.'.'.'.6.6.[.[.[.[.[.[.[.[.[.[.[.[.6.D.z d G x h z ( ) h G G x ",
"| S S 2 j 6 g z n m h f X 6.[.[.[.[.[.[.[.[.[.6.6.6.6.5.5.'.'.'.'.'.'.'.6.6.6.6.[.[.[.[.[.[.[.[.[.6.6.k.L 2 z P h G l S.6 S 6 y ",
"W %.z [ u 5 S 5 ' L 1 & f f 6.[.[.[.[.[.[.[.[.[.6.6.5.5.'.'.'.'.'.'.'.'.'.'.6.6.6.[.[.[.[.[.[.[.6.6.j n.f z 4 5 d d 1.j h < { M.",
"v j P [ M @.l 5 d #.1 l l 5 6.6.[.[.[.[.[.[.[.6.6.5.5.'.{.{.'.'.'.'.'.{.{.'.'.6.6.[.[.[.[.[.[.6.6.^.z s >.y 0 ; 5 = G j 2 K j Y ",
"h G z F n w.] Z.z d z & f 6 ' 6.6.6.6.[.[.[.[.6.6.5.'.{.{.{.{.'.'.'.{.{.{.{.'.6.6.[.[.[.[.6.6.6.j j.o.r P W S 0 3 3 L % 6 * g j ",
"6 L 6 l w N.q v 6 L w z l % G.x.6.6.6.6.6.6.6.6.5.5.'.{.{.{.{.'.'.'.{.{.{.{.'.'.6.6.6.6.6.6.6.6.6.6.6.b K r.< j g I j L z @ 7 1 ",
"w 9 1 f / W ^ T _ h R b 6.6.6.6.6.6.6.6.6.6.6.6.5.'.'.{.  {.{.'.'.'.{.  {.{.'.'.6.[.[.[.[.[.[.[.[.[.6.6.6.r.S.E j L *.q.h = 3 O ",
"2 S 5 1 ; : M.-.W y R q.6.6.6.6.6.[.[.[.[.[.[.6.5.'.'.'.  {.'.'.'.'.'.  {.'.'.'.6.[.[.[.[.[.[.[.[.[.[.[.6.6._ ~.Z.j m f.2 # $ > ",
"< 8 6 < 5 j (.i z.q y.6.6.[.[.[.[.[.[.[.[.[.[.6.'.'.'.'.'.'.'.'.'.'.'.'.'.'.'.'.6.[.[.[.[.[.[.[.[.[.[.[.[.6.6.*.b.n n L l = O z ",
"< 8 3 x 1 S.C.R z d s 6.6.[.[.[.[.[.[.[.[.[.[.6.6.'.'.'.'.'.'.'.'.'.'.'.'.'.'.'.6.[.[.[.[.[.[.[.[.[.[.[.[.[.6.g.v v k w 5 & % d ",
"6 8 d L J W q.f.P l z 6.[.[.[.[.[.[.[.[.[.[.[.[.6.'.'.                      '.6.6.[.[.[.[.[.[.[.[.[.[.[.[.[.[.6.h.h.| 6 = 3 O.< ",
"< J 1 ' P L v j = 8 z 6.[.[.[.[.[.[.[.[.[.[.[.[.6.'.'.'.                    '.6.[.[.[.[.[.[.[.[.[.[.[.[.[.[.[.6.{ g.n 1 3 1 G X ",
": G j j z z m l 5 9 f 6.[.[.[.[.[.[.[.[.[.[.[.[.6.6.'.'.'.    4.4.4.4.    '.6.6.[.[.[.[.[.[.[.[.[.[.[.[.[.[.[.6.2 f.j & l d 1 # ",
"u z h f.l X.w S j 5 & 6.6.[.[.[.[.[.[.[.[.[.6.6.6.6.6.6.'.'.'.4.4.4.4.'.'.6.6.6.6.[.[.[.[.[.[.[.[.[.[.[.[.[.6.6.+ ' z f l k : 7 ",
"m 7.z | h *._ z K G 1 % 6.6.[.[.[.[.[.[.6.6.6.6.6.6.[.6.6.'.'.'.'.'.'.'.6.6.6.6.6.6.6.6.6.[.[.[.[.[.[.[.[.[.6.3 f [ z b 9 ~ 9 w ",
"h.c K *.L G D ^ x 2 w *.L 6.6.6.6.6.6.6.6.6.6.6.6.[.[.[.6.6.6.'.'.6.6.6.6.[.[.6.6.6.6.6.6.6.6.6.6.6.6.6.6.6.l.,.#.v 8 k H l q e.",
"j w.G v.5 x ^ H.W ~.F.=.w $.( m S.G k k 6 6.6.6.[.[.[.[.[.[.6.6.6.6.[.[.[.[.[.[.[.[.[.6.6.6.6.6.6.6.6.6.x n M j x W ;.z d F e.w.",
"l.u =.h.; ~ t `.M.k k { 2 x Z.m k W ..[ 6 6.6.[.[.[.[.[.[.[.[.[.6.6.[.[.[.[.[.[.[.[.[.6.6.8 < F @.j n j n { c c K W ).) a l N.v ",
"^.: ( Y W -.E ^ W _ _ S.1 L P O.W H.R m 6.6.6.[.[.[.[.[.[.[.[.[.6.6.[.[.[.[.[.[.[.[.[.[.6.6 z %.x 1 k 2 [ j Q w.z v O.g.a g x.L.",
"W Q %.z.j j M.^ / o h G J 6 O.l k M.m.{ 6.6.[.[.[.[.[.[.[.[.[.[.6.6.6.[.[.[.[.[.[.[.[.[.6.w 2 d 2 1 d j $.h [ 9.E R.O.$.z L u G.",
"1.c.x =.h W i _ D 0 ; W w F < K ^ T.v.k 6.6.[.[.[.[.[.[.[.[.[.[.6.6.6.[.[.[.[.[.[.[.[.[.6.h.w d k 6 L d j J h M.T.T.6 j O.m.j ..",
"x W.H z 2 l F *.3./ D h 2 L 6 g H.c.z._ 6.6.[.[.[.[.[.[.[.[.[.[.6.6.6.[.[.[.[.[.[.[.[.[.6.^.y 5 j d Z.% d 5 x M.v.^ G q z 0.<.-.",
"_ | C h < 3 h #.x _ @.P 1 d G h E +.W X.6.6.6.[.[.[.[.[.[.[.[.6.].].6.[.[.[.[.[.[.[.[.[.6.x.M O.f M w d j j @.x.W x f f c g.L j ",
"2 < 7 l 6 5 l 2 5 3.0 P f 6 & z y G [ d 6 6.6.[.[.[.[.[.[.[.[.].].].6.6.[.[.[.[.[.[.[.6.v q.f.d x $.6 ,.| y z z 4 h $ O M m.d m ",
"2 * 5 : { 6 5 _ -.S.h m x w n v m =.2 f 1 6.6.[.[.[.[.[.[.6.6.].].].6.6.6.6.[.[.[.[.6.6.d c w.d.f.1.1 Z.k.u L J : 0 ; X j : 6 0 ",
"; 7 < + k.k o L._ k G @.P 5 L % m ( 1 & & 5 & 6.6.6.6.6.6.6.].].].].].6.6.6.6.6.6.6.6.z f j M C.q 1.L Q m W f.H x / 2 1 m 1 K < ",
"+ A % | ~ M.K z.W W } ( L 3 g z h L 5 1 & 5 & & $ & < 6 =.#.].].].].l.3 d 6.6.6.h j.u w f l [ G.v @.E a [ F.m 1 x J d d x 1.l 8 ",
"w # f m v L.D _ C.m.W y v q n I.P L % n l.F g & $ 3 < @.) ].].].].].L 6 G v I.b Q q.Q J 7 g j < { d.j.R m @.j L ( z x ) F 1.X.5 ",
"5 5 5 m G.G S.j P P z ].].].].].].].].].].].].].].].l ~ ] ].].].].z < d g g d.e.c h.z . 3 h 1 2.w h.m L j l.G w [ 5 j j l l k.O ",
"2 & 7 2 h J _ ].].].].].].].].].].].].].].].].].].].].H.a ].].].].d K d w % n w.z > d Z 5 > ) F u g.3 A.W M F z h 6 | j f 5 m z ",
"6 8 1 u , l ].].].].].].].].].].].].].].].].].].].].].v *.].].].].f.J % 3 w f ~ z v Q Z.k j 5 w.R m.v m.u | < S 1.1 c w < 5 w z ",
"j P & c ~ x ].].].a.a.a.a.a.a.].].].].].].].].].].].].].a.].].].].I.9 6 d j f j z j R *.w M 3 m.8.n.] m : $.L G ,.x < l 6 5 d j ",
", l.L a R C.n ].].].].].].].a.a.a.a.a.a.a.a.a.].].].].].].a.].].].f.o.n h M J W F % m.m i ~ 6 g.w.Q u f 6 d h { 2 #.& 9 X . 9 R ",
"u L $.r 8.W.j f ].].].].].].].].].].].].].].a.a.a.a.a.a.a.a.].].].].v n g.v l h f 1 P.M j.R d W d.b W L < : n x h k F 8 @ 5 d y.",
"C._ x M.R.r.h P ].].].].].].].].].].].].].].].].].].].].].].].].].].v d.9.f.[ ) f 2.Q f.n.b j j F m.w.j j c m f j L j 1 7 % E x.",
"-.| @.v T -.x h h ].].].].].].].].].].].].].].].].].].].].].].].].].P.x r W d k.L S Q ~ v s ' z A W 9.v j M *.5 c F.b 2 3 O Y.h.",
"H.x z z ) / 1 m m z ] ].].].].].].].].].].].].].].].].].].].].].].].].V q z =.L k & ] M d a l.f * E e.n L ~ ] z ) ] ] > 1 j R b ",
"k z z x / 9 6 W W J v k l ].].].].].].].].].].].].].].] 2.n.i.].].].].]., >.l X., I u l.m j ' 9 3 r p x A.W q.w ( ] k h.e.L z s ",
"W ( d 1 d # l a % f ;.A f x 1 d ].].].].].].].Z z w q k h s.D !.].].].].G x 5 G 5 L 9 >.1 j x z d V b z q m s L _ <.z -.0.i 6 M ",
"Q ( 1 h F S F q F z O L x 1 O L 9 P Z.1 k.~ c f 1 q [ z _ p.x r.F ].].].].( & g z @.g F % d f 5 1 % @.j G d j.E H.x l ; T G 6 n ",
"s M z 1 L < d < J < q ^.h 6 5 o.G L ) l K.T q 9 w ~ { 6 _ q W T g d F h `.6 z x v z d z d G 9 & % m I w S M j 0.R W l 4 L f 8 j ",
"R ) 1 < ( h 5 l = L v n.z = 6 d w %.$.L h n d 6 w.q.m z v ( x.n.g L 6 Z.L 6 y 1 l.d 1 d l z < 3 9 L 6 Z.w G.: x.T T _ l m L 1 d ",
"W j < 6 L m z S f ( ] L F 3 6 j m 1 j $.*.2 h x 0.e.Q k ..; Y.u L j J L m G v d %.h d z m x 1 f 7 6 { < x.k.L { _ z.U.k q.s [ ] ",
"d 1 P F < , m f d 1 m f 5 z d ' m > w j.n.( h [ 8.q.^ *.y K r.v | k.$.w d 1 j ' L h d m $.l.f d = f W d x.z 2 #._ z.T w c.r.H.> ",
"5 j m %.. f 6 3 & J m m | v M l.m z c w.v 1.x z.B.v.i a j H ] k ' d L D.Z.] Z.q ) x d n m L d d 1 P ' j d d W w =.E -._ ^ H._ h ",
"f v R G * 8 = 9 5 1 $.g.N.9.j.l.W q | s f.S.x e t.m W i ) 7 x H.W 2 d.z d > d b.M [ [ k.m d 3 G u D.% j C ( h.y ^ U W ;.4 T h 0 "
};
