/* XPM */
static char *_a8261b46afe4c53d30570dcf4eef0e7bfS6aNYqEwpV5x27[] = {
/* columns rows colors chars-per-pixel */
"65 63 117 2 ",
"   c black",
".  c #114500",
"X  c #164A00",
"o  c #1A4D0C",
"O  c #1E5203",
"+  c #1E520D",
"@  c #21560C",
"#  c #24590C",
"$  c #285D0F",
"%  c #205310",
"&  c #265B13",
"*  c #2A5D12",
"=  c #2A5D1A",
"-  c #2C6409",
";  c #336A04",
":  c #3A710C",
">  c #2D6215",
",  c #2E6419",
"<  c #316514",
"1  c #366C15",
"2  c #3A6F14",
"3  c #32661B",
"4  c #356A1B",
"5  c #386E19",
"6  c #367115",
"7  c #3D7415",
"8  c #3C731A",
"9  c #356921",
"0  c #3C6B22",
"q  c #396B2A",
"w  c #3C7422",
"e  c #3E7923",
"r  c #3D7429",
"t  c #3E7035",
"y  c #457B1D",
"u  c #417622",
"i  c #447B23",
"p  c #4A7F25",
"a  c #44772A",
"s  c #457A2A",
"d  c #497E2B",
"f  c #49793F",
"g  c #F10808",
"h  c #FF7930",
"j  c #B45C56",
"k  c #9B6D4E",
"l  c #827D45",
"z  c #8E7549",
"x  c #897948",
"c  c #96704C",
"v  c #A2674F",
"b  c #A16A4F",
"n  c #AA6352",
"m  c #AE7D77",
"M  c #B6797D",
"N  c #D3475F",
"B  c #C3525A",
"V  c #DB4161",
"C  c #44801E",
"Z  c #4B821A",
"A  c #599710",
"S  c #5E9918",
"D  c #51A200",
"F  c #73AE14",
"G  c #478326",
"H  c #4B8121",
"J  c #46822A",
"K  c #4A852B",
"L  c #4C8A2D",
"P  c #538522",
"I  c #588D21",
"U  c #528E2D",
"Y  c #598F2F",
"T  c #54922E",
"R  c #5C9B2B",
"E  c #4A8630",
"W  c #4E8C31",
"Q  c #528735",
"!  c #518E33",
"~  c #588E36",
"^  c #549335",
"/  c #599636",
"(  c #579837",
")  c #599936",
"_  c #579738",
"`  c #5C9739",
"'  c #589A38",
"]  c #6D8C3F",
"[  c #689930",
"{  c #62933B",
"}  c #659C39",
"|  c #6FB525",
" . c #6BB029",
".. c #74BC21",
"X. c #7AC31C",
"o. c #7A8343",
"O. c #728840",
"+. c #798E50",
"@. c #64A246",
"#. c #67A54A",
"$. c #6EA751",
"%. c #6FA854",
"&. c #FFA200",
"*. c #86D212",
"=. c #9AEB00",
"-. c #858A58",
";. c #978566",
":. c #9B8469",
">. c #BE7882",
",. c #C07684",
"<. c #CE738E",
"1. c #D57093",
"2. c #F565AB",
"3. c #FF61B2",
"4. c #99C185",
"5. c #AECE9F",
"6. c white",
/* pixels */
"^ ^ ' ' ' ' ' ' ' ' ' ' ' ' ' ' ' ' ' ' ' ' ' ' ' ' ' ' ' ' ' ' ' ' T W t 8 A ( ' ' ' ' ' ' ' ' ' ' ' ' ' ' ' ' ' ' ' ' ' ' ' J 6.",
"' ' ' ' ' ' ' ' ' ' ' ' ' ' ' ' ' ' ' ' ' ' ' ' ' ' ' ' ' ' ' ' ' ' ' ' E L T ^ ( ' ' ' ' ' ' ' ' ' ' ' ' ' ' ' ' ' ' ' ' ' ' ) 4.",
"' ' ' ' ' ' ' ' ' ' ' ' ' ' ' ( ' ' ' ' ' ' ' ' ' ' ' ' ' ' ' ' ' ' ' ' ' ' ' ' ' ' ' ' ' ' ' ' ' ' ' ' ' _ ' ' ' ' ' ' ' ' ' ' ' ",
"' ' ' ' ' ' ' ' ' ' ( ( ( ( ' W ^ ( ! ^ ' ' ' ' ' ' ' ' ' ' ' ' ' ' ' ' ' ' ' ' ' ' ' ' ' ' ' ' ' ' ' ' ' ' ' ' ' ' ' ' ' ' ' ' ' ",
"' ' ' ' ' ' ' ' ' ' ' ' ' ' ' ' ' ' ! * K ' ' ' ' ' ' ' ' ' ' ' ' ' ' ' ' ' ' ' ' ' ) ' ' ' ' ' ' ' ' ' ' ' ' ' ' ' ' ' ' ' ' ' ' ",
"' ' ' ' ' ' ' ' ' ' ' ' ' ' ' ' ' ' ( W * K ' ' ' ' ( ( ! L ' ' ' ' ' ' ( ( ' ' ' _ ' ' ' ' ' ' ' ' ' ' ' ' ' ' ' ' ' ' ' ' ' ' ' ",
"' ' ' ' ' ' ' ' ' ' ' ' ' ' ' ' ' ' ' ' ! q J ' ' O.o.^ 1 > J ( ' ' / ' k V l ] U ! ^ ' ' ' ' ' ' ' ' ' ' ' ' ' ' ' ' ' ' ' ' ' _ ",
"' ' ' ' ' ' ' ' ' ' ' ' ' ' ' ' ' ' ' ' ' o.V v M 3.V V V , X x ' ' +.-.<.3.3.N N > G ' ' ' ' ' _ ' ' ^ ' _ ' ' ' ' ' ' ' ' ' ' ' ",
"' ' ' ' ' ' ' ' ' ' ' ' ' ' ' ' ' ' ' ( ( ' :.3.3.3.3.V V V X V ;.' m 3.3.3.3.3.V V , ^ ( ( ' ' ' ' ' ' K ' ' ' ' ' ' ' ' ' ' ' ' ",
"' ' ' ' ' ' ' ' ' ' ' ' ' ' ' ( ' ' ^ ! o.-.-.,.3.3.3.3.V V > V 3.M 1.3.3.3.3.3.3.V , 4 ^ ) ' ' ' ' ' ' ) K ' ' ' ' ' ' ' ' ' ' ' ",
"' ' ' ' ' ' ' ' ' ' ' ' ' ' ' ' ! ' ' r V 3.3.M 2.3.3.3.V V V V 3.3.3.3.3.3.3.3.3.V 3 * # ^ ' ' ' ' ' ' ' ' K ' ' ' ' ' ' ' ' ' _ ",
"W ' ' ' _ ' ' ' ' ' ' ' ' ' ' ' _ d ' K V 3.3.3.3.3.3.3.3.V V V 3.3.3.3.3.3.3.3.3.V > & $ s ^ ' ' ' ' ' ' ' ' ' ' ' ' ' ' _ ' ' ' ",
"! ' ' ' ' ' ' ' ' ' ' ' ' ' ' ' ( W H } V 3.3.3.3.3.3.3.3.V V 3.3.3.3.3.3.3.3.3.3.V < V V V V l O.o.W ( ' ' ' ' ' ' ' ' ' ' ' ' ' ",
"L ' ' ' ' ' ' ' ' ' ' ' K T T { { { b V V V 3.3.3.3.3.3.3.V V 3.3.3.3.3.3.3.3.3.V V V V 3.3.3.3.3.V V e ' ' ' ' ' ' ' ' ' ' ' ' ' ",
"^ ' ' ' ' ' ' ' ' ' ' W < 6 V V 3.3.;.>.V V 3.3.3.3.3.3.3.V V 3.3.3.3.3.3.3.3.V V V 3.3.3.3.3.3.3.3.V c ' ' ' ' ' ' ' ' ' ' ' ' ' ",
"^ ' ' ' ' ' ' ' ' ' ' W 4 V V 3.3.3.3.M N V V 3.3.3.3.3.3.V V 3.3.3.3.3.3.3.V V V 3.3.3.3.3.3.3.3.3.3.V ( ' ' ' ' ' ' ' ' ' ' ' ' ",
"' ' ' ' ' ' ' ' ' ' ' W * V 3.3.3.3.3.3.3.V V 3.3.3.3.3.3.V V V V V V 3.3.V V V 3.3.3.3.3.3.3.3.3.3.3.k ' ' ' ' ' ' ' ' ' ' ' ' ' ",
"' ' ' ' ' ' ' _ ' ' ' W @ V 3.3.3.3.3.3.3.V V V 3.3.3.V V V h h h h &.V V V V 3.3.3.3.3.3.3.3.3.3.3.V c ' ' ' ' ' ' ' ^ ' ' ' ' ' ",
"' ' ' ' ' ' ' ' ' ' _ ^ @ V 3.3.3.3.3.3.3.3.V V V 3.V V h h h &.&.&.&.&.V V 3.3.3.3.3.3.3.3.3.3.3.3.V ^ ' ' ' ' ' ' ' ^ ' ' ' ' ' ",
"_ ' ' ' ' ' ' ' ' ' ' W . V 3.3.3.3.3.3.3.3.3.V V V V h h &.&.&.&.&.&.&.V V V V 3.3.3.3.3.3.3.3.3.B z ( ' ' ' ' ' ' ' ( ' ' ' ' ' ",
"' ' _ ' ' ' ' ' ' ' ' W = > V 3.3.3.3.3.3.3.3.3.V V h h &.&.&.&.&.&.&.&.&.&.V V V 3.3.3.3.3.3.3.V V K ( ' ' ' ' ' ' ( L ' ' ' ' ' ",
"' ' ' ' ' ' ' ' ' ' ' ' i & V V 3.3.3.3.3.3.3.V V h h &.6.6.&.&.&.&.&.6.6.&.&.V V 3.3.3.3.3.3.V V } 1 U ' ' ' ' ' ( ' ' ' ' ' ' ' ",
"' ' ' ' ' ' ' ' ' ' ' ' ' w y V V V V 3.3.3.3.V V h &.6.6.6.6.&.&.&.6.6.6.6.&.V V 3.3.3.3.V V V 5 H a ; W ( ' ' ' ' ' ' ' ' ' ' ' ",
"_ ' ' ' ' ' ' ' ' ' ' ' ' ' ~ U V V V V V V V V h h &.6.6.6.6.&.&.&.6.6.6.6.&.&.V V V V V V V V V V V 7 0 ^ ' ' ' ' ' ' ' ' ' ' ' ",
"' ' ' ' ' ' ' ' ' ' ' ' O.o.j V V V V V V V V V h &.&.6.  6.6.&.&.&.6.  6.6.&.&.V 3.3.3.3.3.3.3.3.3.V V V P ~ / ' ' ' ' ' ' ' ' ' ",
"' ' ' ' ' ' ' ' ' ' ' ' k V V V V 3.3.3.3.3.3.V h &.&.&.  6.&.&.&.&.&.  6.&.&.&.V 3.3.3.3.3.3.3.3.3.3.3.V V u ` ' ' ' ' ' ' ' ' @.",
"' ' _ ' ' ' ' ' ' ' ' ' k 3.3.3.3.3.3.3.3.3.3.V &.&.&.&.&.&.&.&.&.&.&.&.&.&.&.&.V 3.3.3.3.3.3.3.3.3.3.3.3.V V ! ' ' ' ' ' ' ' ' 4.",
"' ' ' ' ' ' ' ' ' ' ' ' b 3.3.3.3.3.3.3.3.3.3.V V &.&.&.&.&.&.&.&.&.&.&.&.&.&.&.V 3.3.3.3.3.3.3.3.3.3.3.3.3.N ^ ' ' ' ' ' ' ' ' 5.",
"_ ` ' ' ' ' ' ' ' ' ( z 3.3.3.3.3.3.3.3.3.3.3.3.V &.&.                      &.V V 3.3.3.3.3.3.3.3.3.3.3.3.3.3.v ' ' ' ' ' ' ' ' 5.",
"' ' ' ' ' ' ' ' ' ' L V 3.3.3.3.3.3.3.3.3.3.3.3.V &.&.&.                    &.V 3.3.3.3.3.3.3.3.3.3.3.3.3.3.3.V ! ' ' ' ' ' ' ' 5.",
"' ' ' ' ' ' ' ' ' ' s V 3.3.3.3.3.3.3.3.3.3.3.3.V V &.&.&.    g g g g     &.V V 3.3.3.3.3.3.3.3.3.3.3.3.3.3.3.V 8 ( ' ' ' ' ' ' 5.",
"' ' ' ' ' ' ' ' ' ' w V V 3.3.3.3.3.3.3.3.3.V V V V V V &.&.&.g g g g &.&.V V V V 3.3.3.3.3.3.3.3.3.3.3.3.3.V v L ' ' ' ' ' ' ' 5.",
"' ' ^ ' ' ' ' ' ' ' e O V V 3.3.3.3.3.3.V V V V V V 3.V V &.&.&.&.&.&.&.V V V V V V V V V 3.3.3.3.3.3.3.3.>.O.( ' ' ' ' ' ' ' ' 5.",
"' ' ^ ' ' ' ' ' ' ' y s w V V V V V V V V V V V V 3.3.3.V V V &.&.V V V V 3.3.V V V V V V V V V V V V V x ' ' ' ' ' ' ' ' ' ' ' %.",
"_ ' ^ ' ' ' ' ' ' ' ^ ^ G ^ W K Q 0 1 1 = V V V 3.3.3.3.3.3.V V V V 3.3.3.3.3.3.3.3.3.V V B z c V V V c ( ' ' ' ' ' ' ' ' ' ' ' #.",
"' ' ^ ' ' ' ' ' ' ' ' ' ' ' ' ' K y p i * V V 3.3.3.3.3.3.3.3.3.V V 3.3.3.3.3.3.3.3.3.V V & J ' ! 5 G ! ' ' ' ' ' ' ' ' ' ' ' ' #.",
"' ' ^ _ ' ' ' ' ' ' ' ' ' ' ' ' ( / y 8 V V V 3.3.3.3.3.3.3.3.3.V V 3.3.3.3.3.3.3.3.3.3.V 4 e ^ ' ^ ! ' ' ' ' ' ' ' ' ' ' ' ' ' %.",
"' ' ' ' ' ' ' ' ' ' ' ' ' ' ' ' ' ' ^ i V V 3.3.3.3.3.3.3.3.3.3.V V V 3.3.3.3.3.3.3.3.3.V G ' ^ ' ' ' ' ' ' ' ' ' ' ' ' ' ' ' ' %.",
"' ' ' ' ' ' ' ' ' ' ' ' ' ' ' ' ' ' ' K V V 3.3.3.3.3.3.3.3.3.3.V V V 3.3.3.3.3.3.3.3.3.V ^ ' ' ' ' ' ' ' ' ' ' ' ' ' ' ' ' ' ' %.",
"' ' ' ' ' ' ' ' ' ' ' ' ' ' ' ' ' ' ' ) n V 3.3.3.3.3.3.3.3.3.3.V V V 3.3.3.3.3.3.3.3.3.V ' ' ' ' ' ' ' ' ' ' ' ' ' ' ' ' ' ' ' $.",
"' _ ' ' ' ' ' ' ' ' ' ' ' ' ' ' ' ' ' ' k V V 3.3.3.3.3.3.3.3.V =.=.V 3.3.3.3.3.3.3.3.3.V ' ' ' ' ' ' ' ' ' ' ' ' ' ' ' ' ' ' ' %.",
"' ' ' ' ' ' ' ' ' ' ' ' ' ' ' ' ' ' ' ' s V V 3.3.3.3.3.3.3.3.=.=.=.V V 3.3.3.3.3.3.3.V G ' ' ' ' ' ' ' ' ' ' ' ' ' ' ' ' ' ' ' $.",
"_ ' ' ' ' ' ' ' ' ' ' ' ' ' ' ' ' ( ' ' e V V 3.3.3.3.3.3.V V =.=.=.V V V V 3.3.3.3.V V G ' ' ' ' ' ' ' ' ' ' ' ' ' ' ' ' ' ' ' %.",
"' ' ' ' ' ' ' ' ' ' ' ' ' ' ^ K ! ^ L K , # + V V V V V V V =.=.=.=.=.V V V V V V V n W ! ' ' ' ' ' ' ' ' ' ' ' ' ' ' ' ' ' ' ' @.",
"' ' ' ' ' ' ' ' ' ' ' ' ' J 3 3 > w & & + & @ + o o @ * d a =.=.=.=.d w W c V B L U C ' ' ' ' ' ' ' ' ' ' ' ' ' ' ' ' ' ' ' ' ' @.",
"' ' ' ' ' ' ' ' ' ' ' ' ^ 6 8 ~ e e O 5 J 9 < @ o % @ a u =.=.=.=.=.w J ' ) ) 7 ^ ' ^ L ' ' ' ' ' ' ' ' ' ' ' ' ' ' ' ' ' ' ' ' ' ",
"_ ' ' ' ' ' ' _ ^ ! J  .*.=.=.=.=.=.=.=.=.=.=.=.=.=.1 u p =.=.=.=.4 @ J ' ' ' T 6 ( ( ' ' ' ' ' ' ' ' ' ' ' ' ' ' ' ' ' ' ' ' ' ' ",
"' ' ' ' ' ) Q =.=.=.=.=.=.=.=.=.=.=.=.=.=.=.=.=.=.=.=.Y : =.=.=.=.> q J ' ' ' ' ( ( ' ' ' ' ' ' ' ' ' ' ' ^ ' ' _ ' ' ' ' ' ' ' ' ",
"' ' ' ' ' ' X.=.=.=.=.=.=.=.=.=.=.=.=.=.=.=.=.=.=.=.=.7 K =.=.=.=.y q e ' ' ' ' ' ' ' ' ' ' ' ' ' ' ' ' ' _ ' ' ' ' ' ' ' ' ' ' ' ",
"' ' ' ' ' ' X.=.=.D D D D D D =.=.=.=.=.=.=.=.=.=.=.=.=.D =.=.=.=./ = J ' ' ' ' ' ' ' ' ' ' ' ' ' ' ' ' ' ' ' ' ' ' ' ' ' ' ' ' ' ",
"' ' ' ' ' ' K =.=.=.=.=.=.=.D D D D D D D D D =.=.=.=.=.=.D =.=.=.H s L ' ' ' ' ' ' ' ' ' ' ' ' ' ' ' ' ' ' ' ' ' ' ' ' ' ' ' ' ' ",
"' ' ' ' ' ' L , =.=.=.=.=.=.=.=.=.=.=.=.=.=.D D D D D D D D =.=.=.=.8 K ' ' ' ' ' ' ' ' ' ' ' ' ' ' ' ' ' ' ' ' ' ' ' ' ' ' ' ' ' ",
"' ' ' ' ' / ' W =.=.=.=.=.=.=.=.=.=.=.=.=.=.=.=.=.=.=.=.=.=.=.=.=.=.y U ' ' ' ' ' ' _ ' ' ' ' ' _ ' ' ' ' ' ' ' ' ' ' ' ' ' ' ' ' ",
"' ' ' ' ' / ' ' K =.=.=.=.=.=.=.=.=.=.=.=.=.=.=.=.=.=.=.=.=.=.=.=.=.! K ' ' ' ' ' ' ' ' ' ' ' ' ' ' ' ' ' ' ' ' ' ' ' ' ' ' ' ' ' ",
"' ' ' ' ^ ! ' ' ( K G =.=.=.=.=.=.=.=.=.=.=.=.=.=.=.=.=.=.=.=.=.=.=.=.J ' ' ' ' ' ' ' ' ' ' ' ' ' ' ' ' ' ' ' ' ' ' ' ' ' ' ' ' ' ",
"' ' ' ' W W ' ' ' ' L 2 3 =.=.=.=.=.=.=.=.=.=.=.=.=.=.G f U S =.=.=.=...' ' ' ' ' _ ' ' ' ' ' ' ' ' ' ' ' ' ' ' ' ' ' ' ' ' ' ' ' ",
"' ' ' ' T ' ' ' ' ' ' ^ E ! K W  . . . . . .| e 4 - - 8 < F 0 [ =.=.=...' ' ' ' ' ^ ' ' ' ' ' ' ' ' ' ) ' ' ' ' ' ' ' ' ' ' ' ' ' ",
"' ' ' ' ^ ' ' ' ' ' ' ' ' ' ' ' ' ' ' ' ' ' ' ' ^ ^ ) ^ ! R U ^ W X.*...' ' ' ' ' ^ ' ' ' ' ' ' ' ' _ L ( ' ' ' ' ' ' ' ' ' ' ' ' ",
"' ' ' ' ' ' ' ' ' ' ' ' ' ' ' ' ' ' ' ' ' ' ' ' ' ' ' ' ' ' ' ' ' ' ' ^ ' ' ' ' ' K ( ' ' ' ' ' ' ' ' ' ' ' ' ' ' ' ' ^ ' ' ' ' ' ",
"' ' ' ' ' ' ' ' ' ' ' ' ' ' ' ' ' ' ' ' ' ' ' ' ' ' ' ' ' ' ' ' ' ' ' ' ' ' ' ' ' L W ' ' ' ' ' ' ' ' ' ' ' ' _ ' ' ' J L ' ' ' ' ",
"W ' ' ' ' ' ' ' ' ' ' ' ' ' ' ' ' ' ' ' ' ' ' ' ' ' ' ' ' ' ' ' ' ' ' ' ' ' ' ' ' ' ' ' ' ' ' ' ' ' ' ' ' ' ' ' ' ' ' G Z ^ ( ' ' ",
"> L ' ' ' ' ' ' ' ' ' ' ' ' ' ' ' ' ' ' ' ' ' ' ' ' ' ' ' ' ' ' ' ' ' ' ' ' ' ' ' ' ' ' ' ' ' ' ' ' ' ' ' ' ' ' ' ' ' y I T ' ' ' ",
"w ' ' ' ' ' ' ' ' ' ' ' ' ' ' ' ' ' ' ' ' ' ' ' ' ' ' ' ' ' ' ' ' ' ' ' ' ' ' ' ' ' ' ' ' ' ' ' ' ' ' ^ U W U L ^ ^ / K y ) ' ' ' "
};
