/* XPM */
static char *_c0674e13fcd451aee7660704caebf97GR0Eo5prxz9oQgrj[] = {
/* columns rows colors chars-per-pixel */
"64 64 195 2 ",
"   c None",
".  c #411B08",
"X  c #421B08",
"o  c #421C08",
"O  c #431C08",
"+  c #441D08",
"@  c #451E09",
"#  c #461E09",
"$  c #472009",
"%  c #4A2109",
"&  c #4A2209",
"*  c #4D240A",
"=  c #4E240A",
"-  c #4E250A",
";  c #4F250A",
":  c #4E290F",
">  c #50260B",
",  c #51270B",
"<  c #52270B",
"1  c #53280B",
"2  c #54290B",
"3  c #55290B",
"4  c #562A0C",
"5  c #592C0C",
"6  c #5A2D0C",
"7  c #5B2D0D",
"8  c #5B2E0D",
"9  c #5C2E0D",
"0  c #5D2F0D",
"q  c #5E2F0D",
"w  c #5E300D",
"e  c #5F300D",
"r  c #5F310E",
"t  c #432310",
"y  c #432411",
"u  c #432512",
"i  c #432612",
"p  c #442713",
"a  c #452A16",
"s  c #47311B",
"d  c #48341D",
"f  c #5E3413",
"g  c #60310E",
"h  c #61320E",
"j  c #62330E",
"k  c #63330F",
"l  c #63340F",
"z  c #64340F",
"x  c #65350F",
"c  c #67360F",
"v  c #683710",
"b  c #693710",
"n  c #6A3810",
"m  c #6B3910",
"M  c #6B3911",
"N  c #6C3911",
"B  c #6C3A11",
"V  c #6E3B11",
"C  c #6F3B11",
"Z  c #6F3C12",
"A  c #703D12",
"S  c #713D12",
"D  c #723E13",
"F  c #713F15",
"G  c #733F16",
"H  c #493720",
"J  c #4B3E25",
"K  c #4C3F26",
"L  c #306818",
"P  c #3E6F2A",
"I  c #714118",
"U  c #72431A",
"Y  c #744019",
"T  c #77431E",
"R  c #4E452A",
"E  c #524025",
"W  c #585A3A",
"Q  c #595D3C",
"!  c #794520",
"~  c #724A23",
"^  c #734C24",
"/  c #734C25",
"(  c #7F4A28",
")  c #735029",
"_  c #74552E",
"`  c #655230",
"'  c #755E36",
"]  c #775E37",
"[  c #457432",
"{  c #477635",
"}  c #69633E",
"|  c #6A643F",
" . c #5C6240",
".. c #5F6844",
"X. c #6D6C45",
"o. c #636F4A",
"O. c #7C6840",
"+. c #786F45",
"@. c #66754E",
"#. c #6D764E",
"$. c #787046",
"%. c #71774E",
"&. c #79764B",
"*. c #797A4E",
"=. c #7A7A4E",
"-. c #6B7D54",
";. c #6C7F55",
":. c #747F54",
">. c #824D2C",
",. c #834E2E",
"<. c #85502F",
"1. c #865131",
"2. c #885334",
"3. c #8A5536",
"4. c #8E583A",
"5. c #996244",
"6. c #9F6649",
"7. c #9E684A",
"8. c #867950",
"9. c #A1684B",
"0. c #A2694C",
"q. c #A76D50",
"w. c #A86E51",
"e. c #AC7154",
"r. c #AC7155",
"t. c #B3765A",
"y. c #B4785B",
"u. c #B5795C",
"i. c #B6795C",
"p. c #B77A5D",
"a. c #598248",
"s. c #6D8156",
"d. c #6F8459",
"f. c #778256",
"g. c #7D8557",
"h. c #70855A",
"j. c #77885B",
"k. c #748B5E",
"l. c #748C5F",
"z. c #7D895B",
"x. c #798C5E",
"c. c #6E935C",
"v. c #768F61",
"b. c #779162",
"n. c #7B9161",
"m. c #7C9363",
"M. c #799464",
"N. c #7A9565",
"B. c #7A9666",
"V. c #769963",
"C. c #779A65",
"Z. c #7C9867",
"A. c #789C66",
"S. c #7C9968",
"D. c #7F9B69",
"F. c #7B9C69",
"G. c #7C9C6A",
"H. c #7D9D6B",
"J. c #7F9D6B",
"K. c #7D9E6B",
"L. c #7F9E6C",
"P. c #7E9F6C",
"I. c #7FA06C",
"U. c #7FA06D",
"Y. c #838458",
"T. c #809261",
"R. c #809362",
"E. c #809564",
"W. c #809665",
"Q. c #819665",
"!. c #819967",
"~. c #819A68",
"^. c #829C6A",
"/. c #839E6B",
"(. c #809F6C",
"). c #80A16D",
"_. c #81A16D",
"`. c #80A26E",
"'. c #81A26E",
"]. c #81A36E",
"[. c #81A36F",
"{. c #82A36F",
"}. c #84A26E",
"|. c #84A36F",
" X c #82A46F",
".X c #82A470",
"XX c #83A470",
"oX c #83A570",
"OX c #84A470",
"+X c #84A570",
"@X c #85A571",
"#X c #84A671",
"$X c #85A671",
"%X c #85A672",
"&X c #85A772",
/* pixels */
"  L L L L L L L L L L L L L L L L L L L L L L L L L L L L L L L L L L L L L L L L L L L L L L L L L L L L L L L L L L L L L L   ",
"L { a.L L L L L L L L L L L L L L L L L L L L L L L L L L L L L L L L L L L L L L L L L L L L L L L L L L L L L L L L L L a.{ L ",
"L a.V.L L P [ [ [ [ [ [ [ [ [ [ [ [ [ [ [ [ [ [ [ [ [ [ [ [ [ [ [ [ [ [ [ [ [ [ [ [ [ [ [ [ [ [ [ [ [ [ [ [ [ [ [ [ P L L V.a.L ",
"L L L L L c.&X&X&X&X&X&X&X&X&X&X&X&X&X&X&X&X&X&X&X&X&X&X&X&X&X&X&X&X&X&X&X&X&X&X&X&X&X&X&X&X&X&X&X&X&X&X&X&X&X&X&X&Xc.L L L L L ",
"L L L L A.oX&X&X&X&X&X&X&X&X&X&X&X&X&X&X&X&X&X&X&X&X&X&X&X&X&X&X&X&X&X&X&X&X&X&X&X&X&X&X&X&X&X&X&X&X&X&X&X&X&X&X&X&X&XA.L L L L ",
"L L P c.oX&X&X&X&X&X&X&X&X&X&X&X&X&X&X&X&X&X&X&X&X&X&X&X&X&X&X&X&X&X&X&X&X&X&X&X&X&X&X&X&X&X&X&X&X&X&X&X&X&X&X&X&X&X&X Xc.P L L ",
"L L [ &X&X&X&X&X&X&X&X&X&X&X&X&X&X&X&X&X&X&X&X&X&X&X&X&X&X&X&X&X&X&X&X&X&X&X&X&X&X&X&X&X&X&X&X&X&X&X&X&X&X&X&X&X&X&X&X&X&X[ L L ",
"L L [ &X&X&X&X&X&X&X&X&X&X&X&X&X&X&X&X&X&X&X&X&X&X&X&X&X&X&X&X&X&X&X&X&X&X&X&X&X&X&X&X&X&X&X&X&X&X&X&X&X&X&X&X&X&X&X&X&X&X[ L L ",
"L L [ &X&X&X&X&X&X&X&X&X&X&X&X&X&X&X&X&X&X&X&X&X&X&X&X&X&X&X&X&X&X&X&X&X&X&X&X&X&X&X&X&X&X&X&X&X&X&X&X&X&X&X&X&X&X&X&X&X&X[ L L ",
"L L [ &X&X&X&X&X&X&X&X&X&X&X&X&X&X&X&X&X&X&X&X&X&X&X&X&X&X&X&X&X&X&X&X&X&X&X&X&X&X&X&X&X&X&X&X&X&X&X&X&X&X&X&X&X&X&X&X&X&X[ L L ",
"L L [ &X&X&X&X&X&X&X&X&X&X&X&X&X&X&X&X&X&X&X&X&X&X&X&X&X&X&X&X&X&X&X&X&X&X&X&X&X&X&X&X&X&X&X&X&X&X&X&X&X&X&X&X&X&X&X&X&X&X[ L L ",
"L L [ &X&X&X&X&X&X&X&X&X&X&X&X&X&X&X&X&X&X&X&X&X&X&X&X&X&X&X&X&X&X&X&X&X&X&X&X&X&X&X&X&X&X&X&X&X&X&X&X&X&X&X&X&X&X&X&X&X&X[ L L ",
"L L [ &X&X&X&X&X&X&X&X&X&X&X&X&X&X&X&X&X&X&X&X&X&X&X&X&X&X&X&X&X&X&X&X&X&X&X&X&X&X&X&X&X&X&X&X&X&X&X&X&X&X&X&X&X&X&X&X&X&X[ L L ",
"L L [ &X&X&X&X&X&X&X&X&X&X&X&X&X&X&X&X&X&X&X&X&X&X&X&X&X&X&X&X&X&X&X&X&X&X&X&X&X&X&X&X&X&X&X&X&X&X&X&X&X&X&X&X&X&X&X&X&X&X[ L L ",
"L L [ &X&X&X&X&X&X&X&X&X&X&X&X&X&X&X&X&X&X&X&X&X&X&X&X&X&X&X&X&X&X&X&X&X&X&X&X&X&X&X&X&X&X&X&X&X&X&X&X&X&X&X&X&X&X&X&X&X&X[ L L ",
"L L [ &X&X&X&X&X&X&Xm.f.g.&X&X&X&X&X&X&X&X&X&X&X&X&X&X&X&X&X&X&X&X&X&X&X&X&X&X&X&X&X&X&X&X&X&X&X&X&X&X&X&X&X&X&X&X&X&X&X&X[ L L ",
"L L [ &X&X&X&X&X&X&X%.l U !.!.~.~.~.~.~.~.~.~.&X&X&X&X&X&X&X&X&X&X&X&X&X&X&X&X&X&X&X&X&X&X&X&X&X&X&X&X&X&X&X&X&X&X&X&X&X&X[ L L ",
"L L [ &X&X&X&X&X&X&X%.l S S S S S S S S S S S /.&X&X&X&X&X&X&X&X&X&X&X$X&X&X&X&X&X&X&X&X&X&X&X&X&X&X&X&X&X&X&X&X&X&X&X&X&X[ L L ",
"L L [ &X&X&X&X&X&X&X%.l S S S S S S S S S S S ~ ^ ^ ^ ^ ^ ^ ^ ) $X$X$X$X&X&X$X&X&X&X&X&X&X&X&X&X&X&X&X&X&X&X&X&X&X&X&X&X&X[ L L ",
"L L [ &X&X&X&X&X&X&X%.r x S S S S S S S S S S S S S S S S S S I $.$.$.$.$.$X$X$X&X&X&X&X&X&X&X&X&X&X&X&X&X&X&X&X&X&X&X&X&X[ L L ",
"L L [ &X&X&X&X&X&X&X#.4 r S S S S S S S S S S S S S S S S S S S I S S S S Y.z.Q.&X X&X&X&X&X&X&X&X&X&X&X&X&X&X&X&X&X&X&X&X[ L L ",
"L L [ &X&X&X&X&X&X&X-.E 8 N S S S S S S S S S S S S S S S S S S C I S S S S C $.}././. X&X&X&X&X&X&X&X&X&X&X&X&X&X&X&X&X&X[ L L ",
"L L [ &X&X&X&X&X&X&X&Xv.o 0 N S S S S S S S S S S S S S S S S S S S S S S S S S I C D Y.&X&X&X&X&X&X&X&X&X&X&X&X&X&X&X&X&X[ L L ",
"L L [ &X&X&X&X&X&X&X&Xv.o 0 r v S S S S S S S S S S S S S S S S S S S S S S S S C C I / _ ' &X&X&X&X&X&X&X&X&X&X&X&X&X&X&X[ L L ",
"L L [ &X&X&X&X&X&X&X&XL.d.: 5 h v S S S S S S S S S S S S S S S S S S S S S S S S S S S <.7.&.&.R.&X&X&X&X&X&X&X&X&X&X&X&X[ L L ",
"L L [ &X&X&X&X&X&X&X&X&XXXu > 5 h n S S S S S S S S S S S S S S S S S S S S S S S S S S <.9.4.4.8.R.&X&X&X&X&X&X&X&X&X&X&X[ L L ",
"L L [ &X&X&X&X&X&X&X&X&XoXJ u - 8 0 N S S S S S S S S S S S S S S S S S S S S S S S S S S T t.y.5.O.}.&X&X&X&X&X&X&X&X&X&X[ L L ",
"L L [ &X&X&X&X&X&X&X&X&X&X&XQ . # 0 r m S S S S S S S S S S S S S S S S S S S S S S S S S S S e.p.w.I &X&X&X&X&X&X&X&X&X&X[ L L ",
"L L [ &X&X&X&X&X&X&X&X&X&X&XQ . % 0 0 h x S S S S S S S S S S S S S S S S S S S S S S S S S C >.9.y.e.] Q.&X&X&X&X&X&X&X&X[ L L ",
"L L [ &X&X&X&X&X&X&X&X&X&X&Xk. .o - 6 r h n S S S S S S S S S S S S S S S S S S S S S S S S C S 1.6.p.Y T.&X&X&X&X&X&X&X&X[ L L ",
"L L [ &X&X&X&X&X&X&X&X&X&X&X&X;.o . 4 6 0 r N S S S S S S S S S S S S S S S S S S S S S S S S S S >.0.3.Y.~.&X&X&X&X&X&X&X[ L L ",
"L L [ &X&X&X&X&X&X&X&X&X&X&X&Xs.u o . 1 0 0 0 N S S S S S S S S S S S S S S S S S S S S S S S S S S Y p.3.=.&X&X&X&X&X&X&X[ L L ",
"L L [ &X&X&X&X&X&X&X&X&X&X&X&X&XB.. . . - 0 0 0 0 x S S S S S S S S S S S S S S S S S S S S S S S S G y.3.=.&X&X&X&X&X&X&X[ L L ",
"L L [ &X&X&X&X&X&X&X&X&X&X&X&X&XZ.. . . # = 0 0 0 r x h V S S S S S S S S S S S S S S S S S S S S S S 3.! =.&X&X&X&X&X&X&X[ L L ",
"L L [ &X&X&X&X&X&X&X&X&X&X&X&X&X/.@.a . . o > 6 0 0 0 0 x M M S S S S S S S S S S S S S S S S S S S S S S =.&X&X&X&X&X&X&X[ L L ",
"L L [ &X&X&X&X&X&X&X&X&X&X&X&X&X&X&XW d . . . 4 0 0 0 0 0 0 l N C C C S S S S S S S S S S S S S S S S S S =.&X&X&X&X&X&X&X[ L L ",
"L L [ &X&X&X&X&X&X&X&X&X&X&X&X&X&X&X&X... . . . > 0 0 0 0 0 0 0 6 w m C S S S S S S S S S S S S S S S S h %.&X&X&X&X&X&X&X[ L L ",
"L L [ &X&X&X&X&X&X&X&X&X&X&X&X&X&X&X&X... . . . # = 0 0 0 0 0 0 w w w w e e m S S S S S S S S S S S S h 0 %.&X&X&X&X&X&X&X[ L L ",
"L L [ &X&X&X&X&X&X&X&X&X&X&X&X&X&X&X&XB.@.. . . . # = 0 0 0 0 0 w 6 6 w e 6 j j l l V S S S S S n z z 0 0 %.&X&X&X&X&X&X&X[ L L ",
"L L [ &X&X&X&X&X&X&X&X&X&X&X&X&X&X&X&X&Xn.... . . . + > 8 0 0 0 w w e e 6 e e e 0 0 n n n n n n h r 0 0 } x.&X&X&X&X&X&X&X[ L L ",
"L L [ &X&X&X&X&X&X&X&X&X&X&X&X&X&X&X&X&X&XG.R t . . . . 4 8 8 0 6 9 w 9 9 w 9 w 9 w 9 w 9 w 9 w 0 0 0 0 n.&X&X&X&X&X&X&X&X[ L L ",
"L L [ &X&X&X&X&X&X&X&X&X&X&X&X&X&X&X&X&X&X&X&XR . . . . . . % 0 w w 9 w w 9 w 9 w 9 w 9 w 9 w 9 0 0 0 0 n.&X&X&X&X&X&X&X&X[ L L ",
"L L [ &X&X&X&X&X&X&X&X&X&X&X&X&X&X&X&X&X&X&X&X(.... . . . . . # + + , w 9 w 9 9 9 w 9 w 9 w r 8 0 0 f D.OX&X&X&X&X&X&X&X&X[ L L ",
"L L [ &X&X&X&X&X&X&X&X&X&X&X&X&X&X&X&X&X&X&X&X&XM.o.. . . . . . o . $ * ; * * 4 w 9 w 9 9 r 6 r 0 ` j.&X&X&X&X&X&X&X&X&X&X[ L L ",
"L L [ &X&X&X&X&X&X&X&X&X&X&X&X&X&X&X&X&X&X&X&X&X&XB.....d . . . o . . . . . . % 4 3 4 3 3 3 8 } X.:.&X&X&X&X&X&X&X&X&X&X&X[ L L ",
"L L [ &X&X&X&X&X&X&X&X&X&X&X&X&X&X&X&X&X&X&X&X&X&X&X&X&XW H s . . . . . . . . . . . . . p d d Z.&X&X&X&X&X&X&X&X&X&X&X&X&X[ L L ",
"L L [ &X&X&X&X&X&X&X&X&X&X&X&X&X&X&X&X&X&X&X&X&X&X&X&X&XoX&Xb.. . . . . . . . . . . . . o.&X&X&X&X&X&X&X&X&X&X&X&X&X&X&X&X[ L L ",
"L L [ &X&X&X&X&X&X&X&X&X&X&X&X&X&X&X&X&X&X&X&X&X&X&X&X&X&X&XXXZ.Z.Z.Z.k.. . . . J Z.Z.Z.Z. X&X&X&X&X&X&X&X&X&X&X&X&X&X&X&X[ L L ",
"L L [ &X&X&X&X&X&X&X&X&X&X&X&X&X&X&X&X&X&X&X&X&X&X&X&X&X&X&X&X&X&X&X&X'.;.;.s.s.d.&X&X&X&X&X&X&X&X&X&X&X&X&X&X&X&X&X&X&X&X[ L L ",
"L L [ &X&X&X&X&X&X&X&X&X&X&X&X&X&X&X&X&X&X&X&X&X&X&X&X&X&X&X&X&X&X&X&X&X&X&X&X&X&X&X&X&X&X&X&X&X&X&X&X&X&X&X&X&X&X&X&X&X&X[ L L ",
"L L [ &X&X&X&X&X&X&X&X&X&X&X&X&X&X&X&X&X&X&X&X&X&X&X&X&X&X&X&X&X&X&X&X&X&X&X&X&X&X&X&X&X&X&X&X&X&X&X&X&X&X&X&X&X&X&X&X&X&X[ L L ",
"L L [ &X&X&X&X&X&X&X&X&X&X&X&X&X&X&X&X&X&X&X&X&X&X&X&X&X&X&X&X&X&X&X&X&X&X&X&X&X&X&X&X&X&X&X&X&X&X&X&X&X&X&X&X&X&X&X&X&X&X[ L L ",
"L L [ &X&X&X&X&X&X&X&X&X&X&X&X&X&X&X&X&X&X&X&X&X&X&X&X&X&X&X&X&X&X&X&X&X&X&X&X&X&X&X&X&X&X&X&X&X&X&X&X&X&X&X&X&X&X&X&X&X&X[ L L ",
"L L [ &X&X&X&X&X&X&X&X&X&X&X&X&X&X&X&X&X&X&X&X&X&X&X&X&X&X&X&X&X&X&X&X&X&X&X&X&X&X&X&X&X&X&X&X&X&X&X&X&X&X&X&X&X&X&X&X&X&X[ L L ",
"L L [ &X&X&X&X&X&X&X&X&X&X&X&X&X&X&X&X&X&X&X&X&X&X&X&X&X&X&X&X&X&X&X&X&X&X&X&X&X&X&X&X&X&X&X&X&X&X&X&X&X&X&X&X&X&X&X&X&X&X[ L L ",
"L L [ &X&X&X&X&X&X&X&X&X&X&X&X&X&X&X&X&X&X&X&X&X&X&X&X&X&X&X&X&X&X&X&X&X&X&X&X&X&X&X&X&X&X&X&X&X&X&X&X&X&X&X&X&X&X&X&X&X&X[ L L ",
"L L [ &X&X&X&X&X&X&X&X&X&X&X&X&X&X&X&X&X&X&X&X&X&X&X&X&X&X&X&X&X&X&X&X&X&X&X&X&X&X&X&X&X&X&X&X&X&X&X&X&X&X&X&X&X&X&X&X&X&X[ L L ",
"L L [ &X&X&X&X&X&X&X&X&X&X&X&X&X&X&X&X&X&X&X&X&X&X&X&X&X&X&X&X&X&X&X&X&X&X&X&X&X&X&X&X&X&X&XU.F.U.oXoXoX'.oXoXoX'.'. X&X&X[ L L ",
"L L P c.oX&X&X&X&X&X&X&X&X&X&X&X&X&X&X&X&X&X&X&X&X&X&X&X&X&X&X&X&X&X&X&X&X&X&X&X&X&X&X&X&X&XU.L.L.oX'.G.'.L.L.U.'.'.G.'.c.P L L ",
"L L L L A.oX&X&X&X&X&X&X&X&X&X&X&X&X&X&X&X&X&X&X&X&X&X&X&X&X&X&X&X&X&X&X&X&X&X&X&X&X&X&X&X&X&X'.oXoXXX&XoXoXoX'.'.oX'.C.L L L L ",
"L L L L L c.&X&X&X&X&X&X&X&X&X&X&X&X&X&X&X&X&X&X&X&X&X&X&X&X&X&X&X&X&X&X&X&X&X&X&X&X&X&X&X&X&X&X&X&X&X&X&X&X&X&X&X&Xc.L L L L L ",
"L a.V.L L P [ [ [ [ [ [ [ [ [ [ [ [ [ [ [ [ [ [ [ [ [ [ [ [ [ [ [ [ [ [ [ [ [ [ [ [ [ [ [ [ [ [ [ [ [ [ [ [ [ [ [ [ P L L V.a.L ",
"L { a.L L L L L L L L L L L L L L L L L L L L L L L L L L L L L L L L L L L L L L L L L L L L L L L L L L L L L L L L L L a.{ L ",
"  L L L L L L L L L L L L L L L L L L L L L L L L L L L L L L L L L L L L L L L L L L L L L L L L L L L L L L L L L L L L L L   "
};
