/* XPM */
static char *c1e4313bccf041e2ef12c406dc2b8afeTXQqIJtQ76xCNapF[] = {
/* columns rows colors chars-per-pixel */
"64 81 256 2 ",
"   c #39120B",
".  c #373514",
"X  c #342124",
"o  c #471A17",
"O  c #48190C",
"+  c #523111",
"@  c #663B08",
"#  c #673717",
"$  c #652E13",
"%  c #533024",
"&  c #6C3825",
"*  c #354F13",
"=  c #334C28",
"-  c #3A652F",
";  c #505113",
":  c #684608",
">  c #67540A",
",  c #795509",
"<  c #674716",
"1  c #754916",
"2  c #775818",
"3  c #715010",
"4  c #546B13",
"5  c #6A6817",
"6  c #796719",
"7  c #727311",
"8  c #525629",
"9  c #795825",
"0  c #6A5228",
"q  c #59782A",
"w  c #4F7131",
"e  c #756828",
"r  c #667727",
"t  c #797637",
"y  c #6F6E2F",
"u  c #3D6F4B",
"i  c #54764C",
"p  c #6E764F",
"a  c #6C7864",
"s  c #875A0A",
"d  c #895A17",
"f  c #975B15",
"g  c #915809",
"h  c #896909",
"j  c #966909",
"k  c #98760A",
"l  c #896817",
"z  c #986918",
"x  c #897717",
"c  c #9A7718",
"v  c #88750C",
"b  c #A87709",
"n  c #A66A18",
"m  c #A77817",
"M  c #B57A18",
"N  c #AB6F0A",
"B  c #865A28",
"V  c #8F5523",
"C  c #886825",
"Z  c #976925",
"A  c #897526",
"S  c #987726",
"D  c #877736",
"F  c #977A35",
"G  c #906932",
"H  c #A66A25",
"J  c #A77826",
"K  c #B57B26",
"L  c #A77B34",
"P  c #B47631",
"I  c #A35D1F",
"U  c #C2780D",
"Y  c #8A7749",
"T  c #AE7D45",
"R  c #6F8731",
"E  c #5F851E",
"W  c #3DA86E",
"Q  c #3CAA75",
"!  c #38B37A",
"~  c #368355",
"^  c #548A52",
"/  c #699959",
"(  c #6E8A51",
")  c #4C9C6D",
"_  c #479D6D",
"`  c #579967",
"'  c #4C9C77",
"]  c #59946F",
"[  c #758865",
"{  c #6F996C",
"}  c #44A46E",
"|  c #49A66C",
" . c #57A76B",
".. c #44A571",
"X. c #4BA473",
"o. c #45AA74",
"O. c #4BAC75",
"+. c #49AA7A",
"@. c #55A977",
"#. c #47B378",
"$. c #57B37B",
"%. c #4EB26A",
"&. c #65A677",
"*. c #72AC74",
"=. c #5DA65C",
"-. c #6EC279",
";. c #9C8418",
":. c #938A14",
">. c #A9870B",
",. c #B58A0E",
"<. c #A58413",
"1. c #AC8B14",
"2. c #A4841B",
"3. c #AC841C",
"4. c #AC8C1B",
"5. c #A88816",
"6. c #B28E13",
"7. c #B38D1B",
"8. c #BA8D1C",
"9. c #B68419",
"0. c #AC931B",
"q. c #B29115",
"w. c #B3921C",
"e. c #BB921B",
"r. c #BA9718",
"t. c #B4940D",
"y. c #8A8425",
"u. c #9A8426",
"i. c #898638",
"p. c #9A8839",
"a. c #9B933C",
"s. c #90932D",
"d. c #AC8424",
"f. c #A88826",
"g. c #B48D23",
"h. c #BA8D24",
"j. c #B58C2B",
"k. c #B78627",
"l. c #AB9427",
"z. c #B59224",
"x. c #BC9324",
"c. c #B59229",
"v. c #BA922B",
"b. c #BA9B27",
"n. c #A88937",
"m. c #B68B33",
"M. c #A79536",
"N. c #BB9333",
"B. c #BD9B33",
"V. c #B99738",
"C. c #BBA42B",
"Z. c #B9A738",
"A. c #A8A535",
"S. c #BAA31B",
"D. c #C4891A",
"F. c #C4961B",
"G. c #C49B0D",
"H. c #D1B01B",
"J. c #C48A26",
"K. c #C59828",
"L. c #C59936",
"P. c #CB9731",
"I. c #C9A628",
"U. c #D7AA29",
"Y. c #D9B629",
"T. c #C9A737",
"R. c #D5AA36",
"E. c #CAB435",
"W. c #D8B838",
"Q. c #CBB22C",
"!. c #E5BA2A",
"~. c #E4BA34",
"^. c #E2BC18",
"/. c #EACC19",
"(. c #DBC53A",
"). c #D8C32A",
"_. c #E6C437",
"`. c #E7C729",
"'. c #E5CD27",
"]. c #898547",
"[. c #988745",
"{. c #9C9646",
"}. c #918F55",
"|. c #A78A45",
" X c #A79848",
".X c #B99944",
"XX c #A79A54",
"oX c #AF9152",
"OX c #A7A349",
"+X c #B8A647",
"@X c #A9A455",
"#X c #B5A758",
"$X c #BAB457",
"%X c #89946B",
"&X c #90AB71",
"*X c #A4A662",
"=X c #D0B148",
"-X c #D7B54D",
";X c #DBC748",
":X c #D8CD52",
">X c #E3C949",
",X c #EBD24E",
"<X c #D4CA6F",
"1X c #ECD761",
"2X c #99C178",
"3X c #56AB84",
"4X c #5DB583",
"5X c #58B787",
"6X c #4EAF86",
"7X c #6DBB8B",
"8X c #67B885",
"9X c #73BC85",
"0X c #73BD8B",
"qX c #7ABB89",
"wX c #77BD93",
"eX c #70B18D",
"rX c #6FA491",
"tX c #75C28B",
"yX c #7BC28B",
"uX c #77C588",
"iX c #75C393",
"pX c #7BC493",
"aX c #7ACA99",
"sX c #70C694",
"dX c #7ACBA4",
"fX c #8DB58F",
"gX c #A9B78F",
"hX c #9DB3A5",
"jX c #84C58A",
"kX c #82C594",
"lX c #87C999",
"zX c #94C899",
"xX c #87D299",
"cX c #92D195",
"vX c #87CAA4",
"bX c #96CDA6",
"nX c #88D2A5",
"mX c #98D4A9",
"MX c #98D7B6",
"NX c #8FCFB6",
"BX c #A6CDAB",
"VX c #A3D3AC",
"CX c #A8D6B4",
"ZX c #BCDABC",
"AX c #B5D8B7",
"SX c #ADCBAF",
"DX c #AED7AD",
"FX c #D1C885",
"GX c #C1DBBC",
"HX c #C5DDAB",
"JX c #C8E2BD",
"KX c #B3D8C2",
"LX c #B8E2C5",
"PX c #9CD9C6",
"IX c #C6D9C6",
"UX c #C3E2C5",
/* pixels */
") ) ) ) ) ) ) ) ` X.' ) ..X.' | ) ` ..| } W | W Q @.@.+.@.@.+.X.' 5X@.6X3XX.#.' 3X#.}.( &.M.m { X.$.%.%.5XX.+.W #.X. .} %.@.+.@.",
") ) ) ) ) ) ) ) | X._ =.X.) X.` X.X.| X...W | ..o.X.X.X.X.X.X.X.@.4X6X+.@.X.6X@.*./ c.Z }.M N N / *.+.| X._ 5XX.$.Q @.+.o.O.! &.",
") ) ) ) ) _ _ ' } | ' | ) _ _ | _ X.| } | ....o.@...@.' X.@._ @.@.$.3X3X4X{ &.*.k ].c.m k M k b t.l.} 3X3X%.#.%.| #.+.#.X.@.| %.",
"_ _ _ _ _ _ _ _ X.) ' | ) W W Q } W _ } W _ W ..3X+.@.@...+._ _ 3X3X3X'  .XXR g.k S C.g.K 3.;.m b.Z | o.@.@.Q &.%.+.@.O.o.o.@.Q ",
"_ _ _ _ _ _ _ _ } ) _ W | ..=.Q } W } W } | W ..' X.o. .X.#.^ ^ 6Xi X.( &XS m ,.8.3.e.x.f.>.3.M 3.G { / ! #.%.+.}.%.%.#.O.o.@.Q ",
"..Q ............o.....W _ X.( ) o.Q ..o.o.o.o.o.X.X. .| +.@.^ ^ ) y {.A 6 h K N.7.r.d.r.2.z.7.b <.0.H t #.$.6X#.C./ [ %.#.O.%.X.",
"} _ ....Q ......o.Q +.Q ..@.p./ Q o.Q o.o.o.o.#. .{ (  .X.( w E R A.E.f.l R.b.l s.S.c : < < <.M K.Q.I ^ O.%X=. Xx.( n.=.` *X` #.",
"W W Q W ..W o.W X...X.Q W @.n.^ Q +.Q ..+.Q o.o./ Y i ` ^ ^ w 4 R I.Q.7 u.C.,.q.F.f.+   $ o : + 2.I.l.OX}.+X.X( l.=.g.Z.F  X( 3X",
"+.o.+.o.o.o.+.+.} @.#.Q +.8X X( 5X .$.@.eX*. .*.2.C 3XR ^ ( 8 E 5 I.I.k I.K.k E.8.q.@ % X   % O b M l ^ ~ ^ ^ M.^ q.>.b.(  X( Q ",
"o.o.o.o.+.+.o.O.! 3XQ 6X+.4XM.M.&. .$.*.{.g.k.v.C ^ ' = q C 6 K.8 b m.k I.L.E.z.V.x.c   o o o   5.I.F.( ^ A.>.b ( x.l.T.i..Xi W ",
"+.o.o.#.#.o.o.#.| O.! 3X3X5XM.C.Y 2.m f.>.5.d.U i.t u = w N.7 b.u.h.b N.>.K.g.r.x.T.j 9 @   % O I.R.l.r w q 7 b b.b f.F.u.=X^ $.",
"o.o.o.o.+.o.+.o.o.Q ! O.3X4XM.r.c ,.N m b >.2.F.u.K = ; 3 g.y.K.c m b G , K.P.F.6.3.h l , + O   I.I.I.m.A 7 R b 6.3.l q.l.p.` yX",
"o.+.o.+.+.o.O.+.#.6X$. .4X6XM.M 2.m l l m 2.c <.a.M 5 = x Q.8.E.=XZ $ o O G K.N.4.: $ o o %     T.E.z.A y 7 7 9.k S 1 l t [ eX8X",
"O.4XO.$.4X+.$.O.8X&.$.$.$.8XM.c 1 s z s 1 1 l n P.L.Z 2 u.0.W.1Xf.1 O   o O 8.x.m ,   O       n.Q.P.I.T.y.7 7 k 4.3 @ 2 p wXtXyX",
"@.5X$.8X4X@.5X$.8X5X5X5X*.*.j.m @ d B 2 1 < 3 k k 1.2.7 6 b.T.;.J o O X   S h.r.k.b.1.c <.T.B.K.J.F.:.y 5 7 E k h f.1 % p uXtX-.",
"@.8X@.4X8X$.4X$.8X&.7X5X*./ l.f.< C 5 5 h : < j K.6.:.d.:.7 J >.< o O     u.F.w.b n m n.I.R.W.r.I.K.w.u.s.l.w.b S d > 0 ( uXqXdX",
"sX$.4X$.4X4X@.4X$.! %.5X$.OX,.3 2 : v v > 2 : d J.x.J.M 6 7 4 E   O o o + z q.m N S =XU..XQ.P.E.C.- = 0 6 x >.w., F < + p 9X8XqX",
"4X$.4X$.$.4X$.$.8X6X*.}.g.q.3.6 9 C , 5 C 9 3 3 F.w.q.c v 5 x u.o @ @ C c.3.b d.W.L.k R.r._.F.D.U.q E q r e.q.x s 2 < 0 p yX8X0X",
"4X$.tX4X8X$.8X&.tX$.8X&Xx.t.r.n @ 2 3 < 2 # 1 , J.t.F.7.5 > l.>X, d.x h b 9.j R.W.A 2.E.=XR.M.K.C.c w w 7 7 7 l J l 3 3 D *.uXqX",
"4XsXsX8XtX7XtX8XcX$.-.&Xj.7.g.h # : @ @ < : 3 z e.M k.N Z x ;X(.z I.S f.b n d.r.Z.f.j 0.Z.l.D n.f.8 e 6 e ;.v v x l , s p.{ yXlX",
"5X7X7XiX7X9X7X8XjX7X*.M.,.g.j.9.s s 3 9 d 2 , m z.k.M j v.;.l.s.L h.z g k H J P.t ^ Y p.E q t.{ r w x S R V.P g x c v S f.%X-.xX",
"5X7X7X0X9X7X9XtXjXzX@Xh.r.J.>.8.J c l d , s z K.d.K m R R 7 7 x l b j n j j L.5.+XA.gXgX;.y t wX( t r.u.s.l.p e l.l 2.m.d.%XyXlX",
"5X5X7X7X9X9X7XsX|.|.D [.g.J.d.M.4.d.J d.f.f.e.9.4.k.F r 5 Z.L.M z j H P n 9.7.z -X-X%XzXY y rXMX#Xl.F.b.0.S.+XR z.h :.l.K.%XjXlX",
"5X4XiX7X9XuX8XuX{ / { &Xx.c.l.D.>.3.8.<.j.4.b J.b N :.E r i.s.g.H d.m K j J.m T ~.P.*X2XfXp zX$XY.I.T.E.Q.F.C.M.c.m.0.l.e.%XuXcX",
"$.wXaXaXxXvXdXjXcXpX2Xl.F oX0.e.c v.k.6.c.4.d.x.Z K k q q x.J V S J k.m j.c K k h.M W.#X&X+XY.T.Q.I.I.P.I.K.U.K.Y.a.Y u.D *.dXtX",
"7X7XaXvXlXkXxXzXk.d.Y eXa.m.V.J.9.t.h.,.9.M z d.j 4.4 w 8 i [ F S J k.m c m j K Z f. X*XhX&XV.I.=Xx.J o + S v.V.K.L.f.p.XX%XfXjX",
"iXqXlXvXbXjXkXlX8X .*.].p.c F A v.J.K 7 * t : S h 9.4 4 8 ; 9 f j.9.h.N n j.m n n k.L.=X.XZ.I.v.F.c # s # @ C h.U.l.l.n.y.{ aXyX",
"qXcXcXaXmXfX*.uXjXi.-.pX9X^ rX4 S S l 4 ; * * 8 4 t 4 4 S t [ Y m m k.h.9.k.k.m h m.n.}.}.+XI.I.K.& @ s & : $ 7.x.K.M.}.*.qXuXbX",
"vXnXxXlXdX{ R y.].A ].wX( 6 4 ; 4 4 * . * ; i fXS a 2 j M d.g.d.d.m k K.R.K.K.m x k.Z oX=XQ.I.B.T.1 $ o o $ O 7.S r.I.p.[ kXlXfX",
"lXiXvXzXnXvX{ A y.u.( / 7 4 * q r ; - * = i hXIXn g g C v 9.m H z J K T.-XW.8.9.M P T *XE.Y.R.P.K.$ 1 $ & s + h.v.0.B.M.&XjXsXxX",
"cXjXzXbXaXaX{ ( v > q 6 w 4 r t r 5 l h %XKX[ }.z s H M m P.b F b m m B.Q.-Xx.n k L n.u.f.C.C.G.h.O @ @ , & o c 9.P.[.( &.lXqXaX",
"lXkXnXnXpX&X/ eX:.R t ; : d 2 Z r 4 0 ; u fXi 1 h d k J.P J m.Z k.z m L.K.w.K.K Z J.n.i.0.R.-Xr.r.L z o $ $ J m e.=Xc.$X*XzX9XaX",
"uXxXaXdXaX}.v c = = E ; X G 9 s 4 > c z ( gX].s j z c j z H z z j J Z g b M N f J x J a.s.I.r.C.I.f.3.v.e.F R.d.;.L.H.A.` aXjXaX",
"aXaXaX&X{ qX( y.y.; * * < d d 0 d 4 ; * i 9 f l l j m K m f.m x.b d.k.3.m.n H J I f.E q ^ +XE.R.f.k.d.K.7.m I.k.x.~.(.l.( pXcXyX",
"yXaXvX&X( lXi r t r ; 8 ; + , 0 5 q 8 0 y 2 f f s z n S z M g d.s m V.g.J L L m.x u.w ~ w w F P.w.K L.I.x.F.l.R.Q.W.M.r 4 ( pXlX",
"sXaXvXlX=./ i * * . . o % . 6 0 5 r A J Z d f j j d L z Z j n Z n d H L k.k.3.m R E 8 5 4 rXSX*Xb.k.r.I.E.b.S.H.a.Z.a.^ =.w ] lX",
"aXxXjXaXvX[ {.r = = o + o % 0 x D S 3.J I f f h N J J K m 6 A d.h.z z L d.d.j.h R 7 [.z %XIXAXMXn.[.Z.l.Z.a.c.=X{ 2X].qXaXjX{ *.",
"aX7XnXnXeX%XR t * . o 8 Y ; . 3 x J.P H H d f z j J n J.7 - * k K g L j.m e.K.v.z J.c L gXDXHXPX%X&XOX}.$X%XXX{.eXaXlXfXsXaX-.jX",
"uXaXdXvX*.w * * = * ; ; & e 8 ; D.k.F J Z d f K K d H M A ; i.m m.g J B.e.U.r.W.n 9.M D.N |.gXcXzXBXfX{ *.*.{ &XdX0X-.-.wXsXjX-.",
"dXuXpXdX` - . = * * % O 5 8 . F K.h.M J c -XJ c d.H d g N 3.k.J.j k.F.I.K.P.F.b v.,.M D.M J.R .X9XBXNXvXnXaX*.aXsXfX-.0XlX*.yX7X",
"aXfXvXaX0X` p ; ; x ; 4 4 h T l.@ s n I j s W.d.k j V s s V z g g h.U.D.J.j.k.N M K M D.U U x.4 j.fXmXmXxXsXpXuXuX9XyX9X9XyX9XuX",
"sXsXaXaXyXY ; > y * ; ; 8 ; > |.2 0 y F , 3 =X:Xd.L f z H Z 3.z =XJ.D.P.K.h.J.J.M D.M b d.D.k.y [.i.vXBXjXdXuXiXuXuXyXuX9XuX9XuX",
"uXaXlX0X/ 8 ; y ^ i ; 5 5 ; * 4 d.t 4 < d d 3 Z.-Xn.m J z d.U.m 6.J.J.P.M 9.M N J.h.b j x M D.%X( x lXzXcXaXsXkX9XuXyXyX0XyXqXyX",
"aXjXxX&.= = y / = 4 5 5 v S x :.j.f.j c S g f l > .XZ B m e.I.x.F.D.J.M n b 9.J.9.c h l A M J.fXhXL ( vXmXfXaXfX9XyXyXkXjXjXyXjX",
"sXjXxXyX8XkXtXaX6 l C S L P.J.U.w.q.b m c j b h p.C < < k !.K.e.9.9.9.m M N 9.D.k 2 2 l J D.m rXNXgXR vXPXjXsXlX0XtXyXjXpXyXyXjX",
"uXkXlXaXdXmXdXnXF 2.J m c =Xm.Q.K J S e.>.v 4.k XXF B |.g.U.J.D.M D.D.M N M 9.8.6 < 6 j D.U 3 eXBXhXn.gXbXtX-.wXtXpXyXyXyXqXuXqX",
"sXkXcXxXnXmXCXNXn J.P L m m P ,.H d m.Y.F.U.h.;.z S S t 3 9.M 8.J.M 9.8.D.8.K z < 3 c 6.,.z p hXMX0Xt ].BXpXjXaXtXpX0X0X9X9XuX9X",
"sXxXuXaXxXmXPXdXz L 5.M m n.c m.z m v.b.T.H.F.:.z z h 2 < j.8.M D.b P.8.D.D.j.s > x h.J f p hXSX^ 8X].J ^ { wXkXtXpX0XyXuX9XyX9X",
"nXnXzXnXmXmXVXMXj S z l S z S C s L H z K.F.8.^.R.j >., < ; m n N n K M m K J.v z J.m 6 8 %XUXCXr *.5 , , 2 q &.tXtXuXuXqXyX9XuX",
"nXnXlXnXnXmXSXmXn.A G C Z Z L m d c 2.G , I.W.K.D.H 9.L.A : c n J z n n n M K S g.z B < # 8 i u 7 q > ; r 7 A q &.9XsXtX*.uX9XyX",
"nXxXbXmXmXVXAXMXgXY F l S F k.N : l 5.Z L ,.G.U.H.k j.x ; < : 9 z l Z C l z n h f.: 2 u.L.G [ ( 5 > 7 > c u.J c &.*.uX-.tXuXuXuX",
"bXxXmXmXmXVXZXVXAXBXgXy z z n Z V B d.M 9.U.U.9.c z B 2 e A C.u.+ < 9 9 2 B B 0 x.Z.-X(.Y.A rXp > 3 x y.H M.b k.` fXaXuX9X0X9XtX",
"VXxXmXmXDXVXZXVXJXSXUXhXY B Z 1 N @ l z S c m.M M j b z Z.E.,X-XY.U.=X<X<X;XW.).R.(._.>XQ.n.[ A > 5 v M M d.b s.- { iXiXtXiX9X0X",
"zXxXmXmXAXVXGXAXZXZXHXIXLXfX}.G 3.1 Z 1 f g K g K m c z.W.W.>X).W.Y.(.<X:X;X:X;X,X(.`.,XE.b.9 F 8 4 6 9.h.u.Y w ] qX0X8X7X0X0X0X",
"lXaXnXVXZXCXJXLXZXLXSXZXJXGXGXfX[ Y G d l S G J l f.n.;X1X1X>XH.W._.<XFX<X;X(.`._._.`.`.).R.p i %XD i 5 r w ] / i @.7XwXwX7X7X7X",
"zXdXmXVXZXmXZXUXHXJXZXUXKXIXKXBXMXzX[ a fX{ 0 c F 6.I.).;X>X-X>X)./.:X<X:XY././.<XFX1X,X,XR.0 &XpXD / r w | X.wX8XsX7X7X7X7X7X8X",
"aXaXbXzXmXKXMXSXLXVXZXAXAXGXDXGXDXnXVXMXcXLXp V.W.!.~.,X:XFXFX-XY.Y.<X<X;XY.Y.'.(.,X/.'.,XY.9 rX7X] &.w &.qXpX7XwX7XaXfXaXkXwXvX",
"aXnXcXBXmXKXVXCXZXAXAXAXAXGXAXJXmXxXcXMXDXzXoXT.E.U.R.-X(.:X<X~._.!.>X<X(.(.`./.1XFX1X,X,XH.y rXiXqXrX&.qX0XaX7X7XwXdXlXdXkXpXxX",
"xXlXnXmXSXCXAXSXZXZXDXDXAXAXGXGXAXMXmXnXmX%XK.W.Q.!.~.,X<X<XFX-XY.!.<X<X:XH./.^./.,X'.`.,XQ.A { 8XdXwXqXpX9XiX7X7XsXdXdXaXlXkXkX",
"xXlXcXbXZXMXLXVXAXGXAXAXAXAXGXGXUXVXLXPXPX[ C.T.T.Y.~.:X>X:X;X~.W.`.>X<X:X)./.^././.1X,X,X!.K., @.wXiXpX0XtX7XiXwXdXaXfXfXkXkXpX",
"vXlXcXbXZXMXZXmXAXZXSXAXAXDXJXGXGXBXAXMXPXa c.=XR.U.!.;X>X,X:XW.;X~.:X<X<X:X(.W.Y.!.`.`.(.Z.Z.1 3XwXwXaX8XaX8XpXwXdXaXkXdXpXaXwX",
"bXzXcXbXBXCXCXbXVXLXVXmXCXVXZXIXmXMXPXMXPXp r.I.R.U.Y.>X1X1X:X-XY.`.:X<X<X;X(.(.:XY./.^.Y.V..X0 &.kX7XwXeX7X7X7X7XwXpXwXwXiXtXwX",
"mXzXxXmXbXAXmXzXBXCXvXbXmXBXAXUXvXCXPXMXMX[ L.Y.Y.Y.Y.W.~._.>X>X;X~.(.:XFX<X:X_.)._.~.Y.=X X9 u &.pX8X8X8X8X7X4XiX7XiX7X7XwX7X0X",
"BXlXlXbXbXGXMXvXCXPXbXbXCXmXKXUXcXBXZXPXPXhXF f.u.f.I.R.U.K.H.Y.Y.!.,X:X<X1X>X_.!._._.C.y.a.0 ] qXwX8X8X7X8X8X8XaX7X7X7X7X7X8XwX",
"s s l Z L n.n.m.s s d 1 # $ $ & V 1 9 9 9 G 9 |.|.p.l j h u..Xn.V.T.Y.Y.Y.W.Y.!.H.n.n.[.{.{.0 % F n.L |.L z l s s Z n.L V.Z h s ",
";.c ;.2.f.3.5.1.q.q.q.e.4.g.v.K.K.L.#X#XZ.V.F e }.[.oX.X.Xa.A S F G l z c S l z F XX#X+XXX5 5 f.c.m.j.c.g.3.5.6.6.4.4.>.7.5.5.l.",
"u.:.;.5.5.<.>.,.q.1.1.q.w.g.h.K.h.K.P.m.V..X#XC }.0 [.n. X{.OX{.[.n.n.n. XoX X|.*X{.{.XX{.0 F z.g.g.g.z.q.6.q.e.q.>.<.5.q.0.5.;.",
"S u.2.2.5.4.7.7.4.q.q.0.g.j.j.m.N.v.j.J.g.j.m.h Y D ].F a.{.XX{.a.[.p.p.|.#XXXXX{.A.@XXX].0 l j.m.j.g.8.7.1.7.4.5.5.5.4.;.f.u.f.",
"m 2.<.<.5.4.4.4.q.6.t.6.7.h.v.N.L.m.N.L.K.x.z.l.C [.Y p.l  X].|. X[.p.[.oXXX X X@X@XXX}.y 9 2.B.v.h.7.6.,.t.1.w.t.6.<.7.<.0.f.u.",
"f.d.6.6.6.q.w.w.v.w.6.6.6.8.7.w.J.v.g.w.q.x.q.C.h F |..X|.XX5 p.n.p.[.|.oX.X+X X{.@XXX}.e 6 1.N.h.h.7.6.t.t.q.q.q.>.>.>.<.4.;.;.",
"f.2.2.5.3.9.1.7.w.q.6.6.e.r.w.e.m.v.N.L..X.X.XB.B.l D  X+XXX[. X X X[.D  X=X$XXX*X{.a.p.; 6 N.9.c.j.c.z.w.w.0.4.1.6.4.4.<.c f.f.",
":.c <.3.5.>.,.t.1.6.q.8.h.j.j.m.h.j.V..XV.N.L.L.B. XD  X.X#XXX X X XXXXX{.|. X X@X@X@Xp 2 l.m.v.z.z.z.7.4.1.q.7.0.>.5.4.q.0.f.;.",
"S c 2.<.<.1.5.1.q.q.1.q.4.z.v.v.v.N.L.V.L..X.X.X.X.Xx n.$X$XOX XM.OX XXX#X#XXX XOX XD < 6 l.4.h.x.g.g.z.z.q.1.5.>.h.>.>.q.;.M.0.",
"u.;.2.5.1.1.1.6.q.q.1.q.8.z.g.h.j.c.N.v.N.B.B.c.L.V.|.C  X@X$X$X$X$XOXM.n. X X XOXXXp 0 l.>.v.v.c.z.z.7.t.>.q.0.6.3.>.1.<.2.f.;.",
"S ;.5.5.1.7.4.q.q.1.1.q.7.g.h.g.z.h.z.c.b.b.b.z.c.z.V.u.M.+XOX{.@X@X@XOX#X#X#X@X{.].+ v 5.1.>.V.N.j.7.6.t.>.w.z.e.2.M.5.0.c.;.;.",
"u.;.5.<.5.4.1.q.w.q.q.6.7.g.g.v.c.v.c.B.B.L.I.b.r.z.l.m.l i.OX$X@X@X{.p.[.{.XXXXp + S :.4.b.b.c.j.j.z.q.6.6.q.w.>.b.n.2.>.<.;.f.",
"u.c <.<.<.5.1.q.q.q.q.q.7.z.g.h.m.N.N.V.L.V.L.V.=XL.V.V.S 2 D t t t t t D D D t @ v k 5.>.2.j.z.c.g.j.z.z.7.1.1.z.l.|.5.>.m l.u.",
"A ;.<.<.5.1.>.1.0.1.q.q.z.z.v.h.c.N.L..X.X.X.XV.n.V.L.x.N.l : + % < % < # % 8 + x 1.t.<.>.1.f.c.v.g.j.j.g.7.q.1.0.c.+Xl.;.f.;.l.",
";.;.2.5.5.1.5.1.1.1.q.q.w.g.h.g.h.v.V.V.V.V.c.V.x.C.b.j.m.N.k.N.d.z.4.1.0.0.0.l.>.3.b >.z.0.5.N.K.g.k.8.1.,.q.q.b.-Xl +XM.=Xn.;.",
"u.c 2.<.>.1.5.6.w.q.6.1.7.g.x.g.g.g.v.h.l.z.z.w.r.7.g.N.j.v.P.h.8.h.6.,.>.1.q.w.>.5.2.5.;.f.h.K.v.h.7.6.t.>.q.l.l.S u.S c p.l ;.",
"S ;.5.<.4.l.0.z.w.w.>.6.6.8.h.v.N.N.v.N.z.S.S.7.g.z.7.7.e.x.8.e.e.q.e.e.e.e.e.9.e.,.e.e.e.e.q.8.8.8.e.e.e.q.e.e.e.e.6.e.6.e.e.e."
};
