/* XPM */
static char *dfea0d749fd74779a3af0160ceb98117L9sLGOQgDdCWIT4Q[] = {
/* columns rows colors chars-per-pixel */
"45 64 256 2 ",
"   c #47350F",
".  c #593925",
"X  c #035D02",
"o  c #085B03",
"O  c #145A11",
"+  c #39411C",
"@  c #026204",
"#  c #056508",
"$  c #017C04",
"%  c #087709",
"&  c #057D14",
"*  c #116C13",
"=  c #2E6A17",
"-  c #61511D",
";  c #766D0C",
":  c #496A02",
">  c #4E774E",
",  c #8B6E18",
"<  c #A8761A",
"1  c #B1790E",
"2  c #B17720",
"3  c #A96B20",
"4  c #896C26",
"5  c #038504",
"6  c #028D03",
"7  c #068A09",
"8  c #098B08",
"9  c #029208",
"0  c #0C8B16",
"q  c #0B8818",
"w  c #24A00E",
"e  c #25962A",
"r  c #698B16",
"t  c #64A614",
"y  c #77A76D",
"u  c #669162",
"i  c #77C57A",
"p  c #B3911B",
"a  c #AFA91A",
"s  c #BF9F38",
"d  c #B9B034",
"f  c #919F22",
"g  c #D7940B",
"h  c #C5891A",
"j  c #DA8B19",
"k  c #CB941A",
"l  c #D69518",
"z  c #D08C0B",
"x  c #E49719",
"c  c #EA9319",
"v  c #D2AB17",
"b  c #FEAC0B",
"n  c #FFA50B",
"m  c #E4A716",
"M  c #FEAB14",
"N  c #FFAC1C",
"B  c #F8A619",
"V  c #FCB41C",
"C  c #D88D26",
"Z  c #CC9221",
"A  c #D89923",
"S  c #C48B34",
"D  c #E59128",
"F  c #C1BC26",
"G  c #D4B035",
"H  c #EAA626",
"J  c #FCAB23",
"K  c #FEAB2B",
"L  c #F9A725",
"P  c #FDB224",
"I  c #FBB62B",
"U  c #FBAC36",
"Y  c #FCB433",
"T  c #FCB637",
"R  c #EFB42C",
"E  c #98C230",
"W  c #D4C415",
"Q  c #D8C306",
"!  c #EAD90A",
"~  c #F4DC06",
"^  c #EBC918",
"/  c #E9D915",
"(  c #F0D512",
")  c #EEE704",
"_  c #FDE401",
"`  c #FEEB02",
"'  c #FDE60B",
"]  c #FDEC0B",
"[  c #F4EA08",
"{  c #FDF103",
"}  c #F9F206",
"|  c #FEE511",
" . c #FDEB13",
".. c #FCE41B",
"X. c #FCEA1B",
"o. c #F3E718",
"O. c #FDF117",
"+. c #E9E81E",
"@. c #D0C936",
"#. c #ECDC27",
"$. c #EFD333",
"%. c #FCEC24",
"&. c #FCEB2B",
"*. c #FAE528",
"=. c #F6F429",
"-. c #FCF22B",
";. c #FDF529",
":. c #EEE236",
">. c #FCEB34",
",. c #F2E53A",
"<. c #FDEC3B",
"1. c #F8E736",
"2. c #F9F238",
"3. c #EDE528",
"4. c #B6B151",
"5. c #B5B276",
"6. c #889577",
"7. c #CDB74D",
"8. c #FBBE59",
"9. c #EEB54C",
"0. c #FFB762",
"q. c #C2BB6A",
"w. c #D8C949",
"e. c #D8CA56",
"r. c #DAD759",
"t. c #D4CD49",
"y. c #E6DB4A",
"u. c #F3DB48",
"i. c #E3CE5A",
"p. c #EAD954",
"a. c #EADA5B",
"s. c #E5D85A",
"d. c #F8DC59",
"f. c #EFC948",
"g. c #EBE448",
"h. c #F4E848",
"j. c #FEF244",
"k. c #FAF34A",
"l. c #E9E355",
"z. c #FEEC55",
"x. c #FCEC5C",
"c. c #F5E458",
"v. c #FDF254",
"b. c #FDF35D",
"n. c #D1CB67",
"m. c #DCD463",
"M. c #DAD967",
"N. c #CBC978",
"B. c #E7CD64",
"V. c #F9C969",
"C. c #E4D562",
"Z. c #E5DC63",
"A. c #EBDC63",
"S. c #E3D66C",
"D. c #EBDA6A",
"F. c #E6D769",
"G. c #F9DB6B",
"H. c #E8D774",
"J. c #F5D278",
"K. c #DEE474",
"L. c #ECE466",
"P. c #FFEE63",
"I. c #FEE46B",
"U. c #FDEC6C",
"Y. c #F5E864",
"T. c #FEF564",
"R. c #FDF46B",
"E. c #FAF966",
"W. c #FDED74",
"Q. c #FFEC7D",
"!. c #F7E676",
"~. c #FEF274",
"^. c #FEF47A",
"/. c #F9F777",
"(. c #E5E278",
"). c #DCE355",
"_. c #A3B79D",
"`. c #9CBEA6",
"'. c #9EB397",
"]. c #9CCB9C",
"[. c #B2C8AA",
"{. c #A5D6A4",
"}. c #A8CBA8",
"|. c #AAD79C",
" X c #FAC989",
".X c #FCD785",
"XX c #FCDA94",
"oX c #E6DC8E",
"OX c #FEEB82",
"+X c #FBE886",
"@X c #FDF382",
"#X c #F9F686",
"$X c #E9E497",
"%X c #FBEB9B",
"&X c #FAF599",
"*X c #EBE787",
"=X c #D5D3AC",
"-X c #FDD7A8",
";X c #E6DEB1",
":X c #E8DDA5",
">X c #D9E5BD",
",X c #E9E2A4",
"<X c #FBEBA9",
"1X c #FAF4A4",
"2X c #F8F7A4",
"3X c #E8E7B7",
"4X c #F7E9B6",
"5X c #FAF3B7",
"6X c #DCE594",
"7X c #D8DCC4",
"8X c #D1D8CC",
"9X c #E7DDCA",
"0X c #D8EDDA",
"qX c #F8EBC8",
"wX c #FAF4C8",
"eX c #E9E8D8",
"rX c #F2EDDB",
"tX c #F7EBD4",
"yX c #E7F4DA",
"uX c #F5F3D5",
"iX c #FAF4D4",
"pX c #F8F5DB",
"aX c #EFEAC7",
"sX c #DBF5E3",
"dX c #EBEEEB",
"fX c #EEEBE7",
"gX c #F4EDEC",
"hX c #F9EDEC",
"jX c #FAEDE4",
"kX c #EEF3ED",
"lX c #EAF7E7",
"zX c #F3F5E3",
"xX c #F4F9E5",
"cX c #F4F5EC",
"vX c #FAF4ED",
"bX c #F4F9EB",
"nX c #FAF9E8",
"mX c #F3EEF3",
"MX c #FBEDF5",
"NX c #F5EEFC",
"BX c #FAEEFD",
"VX c #EDF3F4",
"CX c #EDFAF3",
"ZX c #EFF5FA",
"AX c #EBFAF9",
"SX c #F5F5F5",
"DX c #FAF4F3",
"FX c #F4F9F4",
"GX c #F9F9F4",
"HX c #F5F5F9",
"JX c #F6F2FF",
"KX c #F4F4FC",
"LX c #FAF4FD",
"PX c #F3F9FC",
"IX c #FAFAFC",
"UX c #EAEDF9",
/* pixels */
"SXSXSXSXSXSXSXSXHXbXKXSXvXLXSXxXSXNXSXcXNXVXZXpXCXFXvXBXSXlXPXSXSXcXFXKXZXZXKXSXSXSXHXSXHX",
"SXSXSXSXSXSXSXSXSXbXHXFXDXLXSXVXFXKXbXbXFXKXLXKXAXHXHXKXSXcXNXvXvXSXFXcXbXzXnXSXSXSXSXSXSX",
"SXSXSXSXSXDXSXSXHXSXSXcXSXHXFXKXFXZXbXHXHXMXwXtXiXSXDXHXDXDXSXcXKXZXSXSXDXKXNXNXSXSXSXSXSX",
"SXSXHXSXSXSXHXSXSXSXSXSXSXFXSXJXFXVXbXFXvXwX/.R.^.gXFXbXbXBXbXbXbXFXNXKXHXvXDXKXSXSXHXSXSX",
"SXSXSXSXSXSXSXHXSXHXSXSXHXFXFXjXHXSXIXLXMX1XR.R.T.5XvXZXVXHXHXZXKXFXGXFXSXHXHXFXSXSXSXSXSX",
"SXSXSXSXSXHXSXSXKXSXDXSXFXFXSX5X#X2XiXLXpXE.R.~.^.^.DXPXPXxXNXpXjXhXDXJXcXbXkXcXSXHXSXSXSX",
"SXHXSXSXSXSXSXHXFXSXDXJXbXKXhX#XT.~.&XhXwXE.~.W.~.^.jXSXxXcXqXb.=.!.qXKXPXcXFXJXSXSXSXSXSX",
"SXSXSXSXSXSXSXSXFXSXDXJXbXLXhXE.OXR.E.iX2Xb.Q.R.R.T.&XNXSXpXv.' u.p.$XrXKXZXSXnXSXSXSXSXSX",
"SXSXHXSXSXSXSXSXNXnXHXNXDXCXcX^.P.^./.qX~.R.W.~.T.j.1XmXwXU. .X.g.Z.t.DXJXFXVXHXSXSXSXSXcX",
"SXSXSXSXHXSXSXSXFXJXHXxXcXFXcXW.^.T.R.+X2.~.R.T.b.k.%XFX2XO.| *.H.s.S.LXSXxXFXHXHXSXSXSXSX",
"SXSXSXSXSXSXSXSXFXNXvXbXBXPXxXE.@XT.R.L.2.W.E.R.j.k.,X5X=. .` *.s.M.,XIXmXSXSXDXSXSXSXSXDX",
"SXSXSXSXSXSXSXHXpXR.+X#X5XvXvX5Xv.U.~.U.c./.R.T.<.c.4X/.` ' ` %.A.L.aXFXVXbXbXJXHXSXSXSXSX",
"SXSXSXSXSXSXSXSX<X] { U.W.#XNXwXk.v.R.~.h.~.R.v.<.L.qX-.' ] | ,.H.oXfXZXkXFXFXKXSXSXSXSXSX",
"HXSXSXSXSXSXSXSX%X.._ -.P.E.#XpX+X=.v.OXg.T.R.b.;.l.1X} `  .[ d.s.:XSXbXHXLXuXHXcXSXHXSXHX",
"SXHXSXSXSXSXSXSX&XX.' &.v.T.R.#X<X2.j.Q.d.v.b.x.>.!.;...` ` 3.F.$XhXFXKXMXpX%XtXvXcXFXSXSX",
"SXSXSXSXHXSXSXSXcXOXX.} z.W.R.^.W.L.j.v.h.2.k.<.c.%Xo. .] ,.H.S.rXSXwX2Xk.x.h.2.bXSXcXSXSX",
"IXFXcXGXcXbXDXKXKXhX~.] ..j.b.^.W.a.=.<.<.j.1.-.h.A.`  .1.p.S.tXuX@X<.X. .y.Z.2.pXHXHXbXbX",
"SXSXSXKXJXKXSXcXbXIXvXQ.| ` ' <.v.x.Y.OXI.+XXXXX-X XG.1.p.m.a.g.%.] _ ` d.B.F.U.jXDXHXcXbX",
"KXHXKXFXVXSXHXFXFXPXFXpXU. . . .X.%.I..XV.G.V.K 9.G 9.D.i.K.D.%.{ ] { >.A.M.L.uXbXKXLXHXSX",
"SXcXbXbXcXJXLXvXiXiXpXpXvX5X@X4XI.d.-X X8.I J U K m l 9.G tXh.` ..X.u.s.r.$XfXDXbXFXHXLXHX",
"JXcXbXGXJXDXwX&XOXOX~.@X^.^.XX-X-XJ. Xf.U Y I U n V B D j Q  .%.:.c.S.K.3XDXLXkXFXcXbXmXKX",
"KXKXJXKXrX2X@X/.~.~./.E.R.<. .G..X.XV.T J J I J K b n D D g ~ C.$X,X3XmXvXDXFXbXLXJXKXSXcX",
"nXxXHXNX3XE.v.W.T.b.2.2.&.` 1.XX.X8.I A R J J I M K x p j j x 1.z.U.OX~.Q.I.Q.&XqXvXLXSXkX",
"NXFXGXBXaXl.[ ] ] ]  .' ' <.G..X8.J x . , Y K T M N 2   p l g o.] X.[ ' ] ] ` +.,.%XDXKXFX",
"cXSXSXbXHXtXl.~ ~ [ 2.y.J.!.XX XI U B   , Y L P L M < + S j j $.o.&.1.| &.*.g.Z.p.Y.cXKXbX",
"KXHXcXSXSXfXqX4XaXD.+X&X%X{ V.I 9.U A . 4 U J B B M <   p x j A F.D.a.F.D.S.F.s.D.$XjXHXcX",
"HXHXSXJXbXbXLXvXuX%XOX^.<. .0.J K ^ P < p L R 1 1 P l < k z k m #.#.y.,X*X6XoX$X$XrXSXbXSX",
"nXKXKXHXFXbXxX2X/.E.^.P.*.] G.R T L K T L 3 , - 2 V c v C l k I ` { %.<XpXvXFXKXzXKXLXcXcX",
"kXHXKXnXNXNX5X#X^.^.T. .| ) .X0.M K T P V Z k h x b L c j x S 7.u. .'  .<.#XvXFXJXFXPXVXvX",
"FXFXKXcXNXvX&X^.R.T.;.] ` *X-XU V J R N N J b N M M H c g z 7.4.e.} ] ' _  .+X4XKXcXKXKXSX",
"SXSXSXSXJXnX&Xb.E.P._ [ a.<XW.T J B B M N M n L L L z j g h r.d n.H.,.{ ` '  .%.uXDXGXFXHX",
"NXDXnXFXHXSXqXY.<.1.! tX4X^.P.*.A D l b B B J m x z l A k 9.C.Z.p.a.p.a.%.] ] ` 1XBXnXGXKX",
"HXHXFXVXHXSXrX3XoX3XSXqX/.b.=.^ m A j j j j j A k j C g S r.>.*.y.r.7.l.D.B.Z.C.g.MXFXlXKX",
"FXSXSXSXPXIXSXrXhXcXuXE.T.z.) ( =.9.j j l g x g g A Z G t.d ) ] ] u.y.w.e.S.a.M.Q.BXHXCXLX",
"KXSXnXFXKXKXKXSXBXDX1XR.b.o.! ~ +.H.G G G k l l C 9.d i.).7.#.]  .| g.Z.@.4.S.oX5XBXHXFXLX",
"SXSXSXSXJXUXZXHXSXwX~.P.&.) ~  .X.r.4.@.H.H.t ; u.Z.d :.i.a a ) ` O.} :.s.r.3XrXSXJXFXJXLX",
"SXSXSXDXSXSXSXHXPX/.R.c.] ( ' ` c.B.G [ 1.M.w # S.r.r.W { O.s.d o.{ o.<.G.y.d NXPXSXcXHXGX",
"LXSXSXcXcXFXFXFXxX#X^.%.o.! ` o.l.e./ ` *.s.t = Z.Z.y.7.W ] 3.w.a /  .:.i.F.n.=XHXSXcXSXHX",
"DXHXSXSXSXvXSXFXKX^.x./ ! ! ` c.r.@...{ 1.p.f r t.&.X.m.a { _ %.u.G d e.p.n.d VXcXSXSXSXSX",
"bXSXHXKXSXHXHXKXSX#X) $.a.] | p.i.W ..] ,.7.f % F |  .p.7._ ' X.[ e.a 9X4.=XfXIXbXJXLXSXFX",
"SXSXSXSXSXSXSXSXcXzX6XaX4X,.:.p.y./ ' ~ !.F r % d { O.y.r.u.] ] [ a.7.mXdXFXUXbXSXSXSXSXSX",
"SXSXSXSXSXKXSXSXJXSXfXLX2Xg.s.L.*.} { %.w.E & r :X/ ` g.i.w.c.X.] p.w.7XzXFXIXhXSXSXSXSXSX",
"SXSXSXSXSXSXSXSXFXFXSXLXwXl.M.$XU._ ..).n.f 0 : 8Xp. .s.D.5.pXl.1.B.n.7XnXHXLXNXSXSXSXSXSX",
"SXSXSXSXSXSXSXSXHXHXzXJXLX<X,XjX!.&.G.r.n.4.5 o lX.X>.y.D.N.UXuX$X;X=XDXbXLXgXLXSXSXSXSXSX",
"SXSXSXSXSXSXSXSXKXSXbXKXLXGXMXHX!.y.H.s.q.[.0 % PXuXr.l.S.N.kXVXhXDXmXKXFXHXbXSXSXSXSXSXSX",
"SXDXSXHXSXHXSXSXSXxXFXKXvXDXSXbXyX!.B.N.0X|.8 @ HXPX>X5.5.eXIXSXLXIXIXVXcXPXSXSXSXHXHXSXSX",
"SXSXSXSXSXSXSXSXLXJXIXKXKXSXFXPXKXrX;XrXAX].9 o jXBXDXHXLXAXlXDXkXVXcXFXFXHXSXcXSXSXSXSXSX",
"SXSXSXHXSXHXSXSXbXmXSXbXcXJXSXbXbXCXLXHXAX[.6 @ bXNX`.O O % q u dXFXFXmXJXSXHXvXSXSXSXSXSX",
"SXSXSXSXSXSXSXSXSXHXSXSXSXSXSXSXSXSXPXSXSX].7 @ AX[.* # 7 9 % % y mXPXsXGXBXVXFXSXSXSXSXHX",
"SXSXSXSXSXSXSXSXSXSXSXHXSXSXSXHXSXmXCXvXHX{.7 X _.* # % o % 6 6 & dXLXSXvXBXFXDXSXSXHXSXSX",
"SXSXSXSXSXSXSXSXSXSXSXSXHXSXSXSXDXSXAXvXSX{.7 o o X # 5 8 8 9 8 % 0XBXDXDXLXCXvXSXSXSXSXSX",
"SXHXSXSXSXSXSXSXSXSXSXSXSXSXSXHXSXKXPXDXmX}.5 o X q 6 7 8 0 0 5 y cXSXCXHXJXCXFXSXSXSXSXSX",
"SXSXSXSXSXHXSXSXSXSXSXHXSXSXSXSXSXmXPXDXmX].7 o X $ & 6 5 % & u eXLXKXlXFXSXcXZXSXSXSXSXSX",
"SXSXSXSXSXSXDXSXSXSXSXSXSXDXSXSXSXSXZXDXLX].7 X 6.O % % # > _.yXIXKXPXcXSXvXDXJXSXHXSXHXSX",
"SXHXSXSXSXSXSXSXSXSXSXSXSXSXSXSXSXHXZXcXHX'.7 @ lX8X= > 7X7XPXVXCXZXHXDXKXSXnXHXDXSXSXSXSX",
"SXSXSXSXHXSXHXSXSXSXSXSXSXSXSXSXvXHXAXkXdXy 5 # UXFXPXmXIXPXHXHXnXIXvXDXPXPXFXVXSXSXSXHXSX",
"HXSXSXSXSXSXSXSXHXSXSXHXSXHXSXSXvXKXSXlXIX_.$ o FXFXSXSXSXDXSXSXSXSXSXSXSXSXSXKXSXSXHXSXSX",
"SXSXSXSXSXSXSXSXSXSXSXSXSXSXDXSXDXIXBXlXHX[.$ # dXFXGXSXSXSXSXSXSXSXSXSXSXSXSXSXSXSXSXSXSX",
"SXSXSXSXSXSXSXSXSXSXSXHXSXSXSXSXkXPXDXfXIXyXe & 0XdXSXcXmXSXIXSXSXSXSXSXSXSXSXSXSXSXSXHXSX",
"SXSXSXSXHXSXSXSXSXSXSXSXSXSXSXSXGXUXDXGXLXlXi {.dXmXIXSXSXSXSXSXSXSXSXSXSXSXSXSXSXSXSXSXSX",
"SXSXSXHXSXSXDXSXSXSXSXHXSXSXSXSXDXSXIXFXmXPX0XbXPXSXFXHXSXSXSXSXSXSXSXHXSXSXKXSXSXSXSXSXSX",
"SXSXSXSXSXHXSXSXSXSXSXSXSXSXSXSXLXlXVXFXIXPXFXMXSXdXcXDXSXSXSXHXSXDXSXKXSXSXSXSXSXSXSXSXSX",
"SXHXSXHXSXSXSXSXSXSXSXSXSXSXSXSXNXFXIXgXgXZXIXmXHXSXSXGXSXSXSXFXSXSXSXSXSXSXSXSXHXSXSXSXSX",
"SXSXSXSXSXHXSXHXSXSXSXSXSXSXSXHXKXFXHXDXGXZXbXSXFXcXFXSXFXHXSXSXSXSXSXSXSXSXSXSXSXSXSXSXSX"
};
