/* XPM */
static char *d085eda17b8e44d4bd6196ceea73a34fKJURzG0qTmR0is3f[] = {
/* columns rows colors chars-per-pixel */
"64 64 222 2 ",
"   c #06031B",
".  c #0A0D1B",
"X  c #11081A",
"o  c #11121E",
"O  c #060A28",
"+  c #0C1421",
"@  c #09122A",
"#  c #151421",
"$  c #061032",
"%  c #0B1E3E",
"&  c #4F1A38",
"*  c #6D223E",
"=  c #081C43",
"-  c #030E59",
";  c #0C254A",
":  c #0A2855",
">  c #10365B",
",  c #051367",
"<  c #081773",
"1  c #051B7C",
"2  c #0A1B7D",
"3  c #072D61",
"4  c #0B3468",
"5  c #11356D",
"6  c #113A6C",
"7  c #093B78",
"8  c #7F314F",
"9  c #6A2C52",
"0  c #5F2168",
"q  c #11457B",
"w  c #0B587B",
"e  c #39546F",
"r  c #724F78",
"t  c #41637E",
"y  c #65617D",
"u  c #842843",
"i  c #962D48",
"p  c #87365C",
"a  c #9F3054",
"s  c #95355D",
"d  c #A23957",
"f  c #A8335E",
"g  c #9C3E62",
"h  c #92396D",
"j  c #AF3567",
"k  c #A53963",
"l  c #B43C6C",
"z  c #A43B78",
"x  c #8D4F70",
"c  c #98537A",
"v  c #AB4468",
"b  c #B5476E",
"n  c #AB4A76",
"m  c #B24376",
"M  c #BA4A79",
"N  c #AE557B",
"B  c #B16074",
"V  c #BB667D",
"C  c #C25278",
"Z  c #0C1E87",
"A  c #043F87",
"S  c #042599",
"D  c #622682",
"F  c #0A4495",
"G  c #0C5190",
"H  c #125293",
"J  c #175B9B",
"K  c #345B91",
"L  c #12689C",
"P  c #3D6994",
"I  c #0745A7",
"U  c #0858AD",
"Y  c #0A59B5",
"T  c #1562AA",
"R  c #107AA6",
"E  c #0669BF",
"W  c #1062B0",
"Q  c #3970B1",
"!  c #735195",
"~  c #426E9D",
"^  c #667580",
"/  c #687A85",
"(  c #667E98",
")  c #767893",
"_  c #4F5AA1",
"`  c #6F5CAD",
"'  c #4A6DB4",
"]  c #407BB9",
"[  c #787AA4",
"{  c #6D76B1",
"}  c #025FC5",
"|  c #0665C6",
" . c #0B6AC6",
".. c #0976CC",
"X. c #1170C7",
"o. c #0778D5",
"O. c #326FC5",
"+. c #3B7BCA",
"@. c #4B7BC4",
"#. c #7177C6",
"$. c #8A3783",
"%. c #885487",
"&. c #9B5B8C",
"*. c #BF4C87",
"=. c #B65685",
"-. c #BF5B85",
";. c #A85791",
":. c #9C7494",
">. c #AA668C",
",. c #B96282",
"<. c #BD6585",
"1. c #B96493",
"2. c #AC7294",
"3. c #BA7995",
"4. c #8B5DAC",
"5. c #B25EA8",
"6. c #8F68AF",
"7. c #9A79B9",
"8. c #B36EA8",
"9. c #AB71A9",
"0. c #BA74A8",
"q. c #C25385",
"w. c #C2598A",
"e. c #C75993",
"r. c #C7678A",
"t. c #CE708D",
"y. c #C56897",
"u. c #C96B93",
"i. c #C96499",
"p. c #CD6D9C",
"a. c #C77696",
"s. c #C67E94",
"d. c #CC759A",
"f. c #D2789D",
"g. c #D06DA4",
"h. c #CB74A7",
"j. c #CA7FA8",
"k. c #D376A5",
"l. c #D478AD",
"z. c #D07AB1",
"x. c #5488B7",
"c. c #6885A6",
"v. c #7493AD",
"b. c #678EBB",
"n. c #1492C6",
"m. c #0F88D3",
"M. c #0C85D8",
"N. c #1386D1",
"B. c #1091DB",
"V. c #149BDC",
"C. c #3E83CF",
"Z. c #3C98D1",
"A. c #17A6E0",
"S. c #4687C9",
"D. c #4D8DC8",
"F. c #5895C9",
"G. c #4188D0",
"H. c #419ADA",
"J. c #5897D6",
"K. c #7984C8",
"L. c #6E99C8",
"P. c #6791D2",
"I. c #6897D4",
"U. c #779BD7",
"Y. c #4CA4DD",
"T. c #75A0CA",
"R. c #68A7DB",
"E. c #77A7DB",
"W. c #42ACE2",
"Q. c #5AB0E4",
"!. c #6AB2E3",
"~. c #79B7E0",
"^. c #78B8E5",
"/. c #808094",
"(. c #8785A9",
"). c #848BB7",
"_. c #B38AB1",
"`. c #8DA7B8",
"'. c #B2AABD",
"]. c #C78099",
"[. c #D3819D",
"{. c #D8869F",
"}. c #CE89A7",
"|. c #C989A9",
" X c #D080A7",
".X c #DA86A5",
"XX c #D581AC",
"oX c #D984AD",
"OX c #D58BAA",
"+X c #DD8EAE",
"@X c #D694AA",
"#X c #C889B2",
"$X c #DA8AB6",
"%X c #D982BA",
"&X c #DE8DBB",
"*X c #C994B0",
"=X c #DC95BA",
"-X c #D89BBA",
";X c #E197AF",
":X c #E397BC",
">X c #E19EBA",
",X c #D6A4B9",
"<X c #E7A2BC",
"1X c #ECA8BD",
"2X c #868BC4",
"3X c #8E96CB",
"4X c #AF93C6",
"5X c #8BABCB",
"6X c #97A5D0",
"7X c #8BB3DD",
"8X c #B2B2CF",
"9X c #87BCE4",
"0X c #96BDE4",
"qX c #CA94C3",
"wX c #C8ABCD",
"eX c #E4B1C6",
"rX c #A2C1DB",
"tX c #8CC2E6",
"yX c #9AC5E7",
"uX c #ABD1EC",
"iX c #D1D1D7",
"pX c #EEEEEE",
/* pixels */
"- - - - - - - - , < , - - - - - - - - - - - - - - - - - - - - - - - - - - - - r :.2.- - - - - - - - - %.:.r - - - , - , - - - - ",
"- - , , - - , - - < < , - - - - , - - - - - - - - - - - - :.3.,X_.:.- - - - :.-Xj.}.>X&.- , - - - %.r.w.OX,X0 2 - - - - < - - 2 ",
"- , - , - - , < 2 ) 2 - - - - - - - , - - - - - , , - - j.-XOX X,X1X<X:.:.-X-X-X=X=X,Xy.*X, , x -X}.-.l <.*X@X! ) - - < , < ) 2 ",
", , 2 - - - - < < , , < < , , - , < , - - , , - , - , *Xh.OX<X3.<Xf.<X+Xh.-Xj.=X-Xj.-X-XOX}.OX@Xj.-.s..XOXN @X:.2 < < - < 2 Z Z ",
"- - - , ) , , ) iX) - - , - 2 2 , , , - - ) < , 2 < 2.<X X=X,X X#X|.1XOX}.-X,Xy.*X=Xj.+X&Xj. X%X:Xj h.d.-XOXf.>.2 2 Z 2 < Z Z Z ",
", , , < - - (.pX/.- - , Z 2 - < 2 - ) , r , < , < 3.;XOX}.:X*X|.|.}.<X&X:.<X>X&X<X,XOX3.u.-.z.+X$X1Xl.V :X].,.XXZ Z Z Z Z [ Z Z ",
", < [ Z < ) iXpX- , - , Z 2 , - Z 2 - r ,Xs. X3.OXa.%X-X=X#X}.:X+XOX>X:XqX-X X-Xh.$XeX1X%X-X<XOXXX Xf.[.,.q.=Xy.D Z Z [ Z [ Z Z ",
"Z [ < < [ 2 pXpX'.- 2 2 ) - - - 1 Z &  X=XV |.h.%X].-X-X}.>X1X1.=Xj.OX;X:X3.d. XB 1X}.}.<Xd.&X@X8.+X+Xi.&XOXa.y.&.Z Z Z [ Z [ Z ",
"Z Z 2 - Z A pXpXiX< Z - , < < - < 2 =X&X=Xs.-.l.f.N =X=X:X[.l._.OX>X:X>.|.f.OX+Xh.}.s.j.j.r.XX]. Xd.+X$XOX@X&Xf.s.! Z Z Z Z [ Z ",
"[ < < 2 Z A iXpXpX/.Z , , - - 2 Z ! OXa.-X>X[.<Xh.0.oX%X X:X#XXXy.B $X=X2.3.$X! 3.=X+X=Xj.=XXXc ! :XOX<X Xf.XX[.d.u.0.D Z Z Z Z ",
"Z , < Y Y  .v.pXpXpX'.< , , - - 1 _.d.}.a..X1X X0 +X:Xf.+X&Xu.l.y.=Xy. X|.>.+Xy.&.>.>.:X$X|.&.#X#Xz.%X>Xs.;X>Xl. X+Xd.q.y.! Z Z ",
"< , E X.S I U (.iXpXpXpXpXiX/.1 1 {.}.d.3.:XoX%Xz.<X&X XoX:X+X+Xd.&X].l.$Xr OX-.y.p ;X$X1X2.%X&X:X:X&X;X;X;X.X:Xr.d.:Xr.,.q.! Z ",
"Z 2 F < 2 Y Z 2 Z v.8X'./.- 1 S S =.1.>X&Xl.:X+XqX&XoXl.h.l.&X_.|.>X&X-Xz.>.N 1.j.>.=XXXx l.d.$X%X$X:Xs.>X&Xl.f.[.[.f.r.=X].z Z ",
"2 < U , < 2 I 2 Z < , F < - E W I 9.+X{.:Xl.l.&X&Xl. XOXk.g.h.6.1.j.1.a.b c u p.6.u.y.* &X.Xl.k.&Xg.j.0.;X<X+X+XXXu.r.d.M u.j Z ",
"- - F Z 1 | U F < - - - , A U Y I 9.1.&X$XV z.l.l.oX&X1.p.%X&X;.<.>.p.a.d n c l.q.V l.x w.y.y.f.=.|.a.$XoX:Xk.l.[.t.oXw.M oXw.o.",
"F , < 2 A F U - A F - A A A - E.o.6.i.i.%Xl.d.qXh.%Xz..Xp.p.&X&Xp.d h 9.>.h.p.c k.>.x M f.=.c c p 8 :.=.oX{.k.9.8.=.d.t.p.M $.o.",
"W , , 1 F Y  .E  .o.- o.E -  .o.#..XoX%X:XOXwX7.oX.Xl.y.r.&Xy.y.l.w.w.v q.-.d.8 8 8 d.d.c M N x 2.1.=.i.t.:Xk.{.[.OX.Xf.d.l 9.o.",
"F 1 Z E U.o.U - A o.o.o.o.o.o.#.<.s.OXp.x N c c 8 *.g.8.h.w.e.l.M t.n r.b k i.c &.p r.8 u.h.u.g.[.r._ c w.V p.e.[.f.i.V i.r.%.o.",
"U I Y Y o.o.U.E  .o.o.o.o.o.o.qXu.g.p.l.r.8.r.l.g.v l.1.U w.b *.p N =.p =.-.n p g c s -.u.;.f.M 1.<.k.r..Xa.w.+X[.f.j -.q.q.4.o.",
"Y Y Y I o.o.o.o.o.o.o.o.o.o.` e.g.d.m  Xu.6.n >.=.1.2.l.y.x c r.C b r.g n p =.u q.9 g -.r.u.e.N +Xy.;.9.[.r.+Xf [.[.b f.h.l z o.",
" . .| o.o.o.o.o.o.o.o.o.o.o.5.e.M m r.a.].>.r.f.p.oX&Xl.g.p.m &.b r.r.v m * g s p 8 8 C b b b w.M =.C %.n a.[.w.{.;X].M *.w.7.o.",
"o.o.o.o.o.o.o.o.o.o.o.o.o.o.8.n q.r.v l.<.M B d.;Xb i.p.g.$Xe.q.* b m q.m k & i p $ m k m i k 1.i n M v n a r.M r.0.<.f.w.w.o.o.",
"o.o.o.o.o.o.o.o.o.o.o.U.U.o.' *.u.u.<.V u.u.OXOXoXw.w.g.r.i.e.*.p.8 i i k m * u u s k k z m k i i w.h.d b d.d.7.l 2.b C f.` o.o.",
"o.o.o.o.o.o.o.U.o.o.o.o.o.o.o.` <.u.V V 6..XM OX+Xl b p h 9 p k k i * k u s * s * z *.n u u * u * p B a V i a 0.l f l j j o.o.o.",
"o.o.o.o.o.o.o.o.o.o.o.o.o.o.o.0.r.*.<.r.;X[.N ].B B [.b e.*.h.* h i k * * z & i 9 k u i i i i i a i u * 8 h x ;.f j j j ` o.o.o.",
"o.o.o.o.U.o.U.o.o.o.o.o.o.o.o.7.*.u.u.u.a.@X@XB i s.;.m i k *.u u * k 8 s & & u p i u k i a i k i a k f * k a 8 f v f &.o.o.o.o.",
"o.o.o.o.o.o.o.o.o.o.o.o.o.o.o.K.u.<.[.<.u.<.<.<.m k k m k k ,.i f i * h * & & * * & k i i k k i a f a z a u j a j l l #.M.M.o.o.",
"o.o.o.o.o.o.o.o.o.o.o.o.o.M.o.M.&.k m k ].<.].B k i i B B B i 4.o.x i * & v.& $ O 9 4.i i i i i i k i f a a k a l 6.6.o.B.o.o.o.",
"o.o.o.o.o.o.o.o.o.o.o.o.o.M.M.o.D.k r.<.*.s.[.d i <.i k i k o.o.o.o.' 5XK x.@ $ $ ' o.o.@.4.k k k i a i f a a x V.M.M.M.M.V.o.M.",
"o.o.o.o.o.B.o.B.A.o.o.o.o.o.B.o.M.@.r.k i i u.a.B [.k <.*.F.o.o.M.M.o.0XL.: $ $ U M.M.M.o.V.V.%.k i i i f d %.B.B.A.B.B.M.o.M.B.",
"o.o.o.o.o.o.A.B.B.o.M.o.M.B.M.M.B.B.P.u.i k B i s.%.{ [ K.B.B.M.M.B.V.tXyX: = $ V.A.V.M.7XM.A.V.D.d f a j f V.M.A.A.A.A.A.V.B.B.",
"o.o.o.M.B.M.E.B.B.B.M.M.o.V.B.V.A.V.A.A.%.k i %.F.V.M.V.B.!.~.A.A.A.A.tXT.= $ R A.A.V.B.A.A.V.A.V.A.[ ` { A.A.A.B.A.A.V.E.V.A.V.",
"o.o.o.M.~.o.B.V.A.B.M.V.V.A.A.A.A.A.A.V.A.5X8XA.V.E.V.A.A.A.V.A.A.A.A.yX5X= $ R A.A.A.A.V.A.A.A.~.A.A.A.A.A.A.V.A.A.A.A.A.A.A.A.",
"U.B.A.B.B.V.V.A.A.A.V.A.A.~.A.A.A.A.A.A.A.~.A.A.A.^.A.A.A.A.A.A.A.^.!.tXP 4 G A.A.A.A.A.~.A.A.A.~.A.A.A.A.A.A.A.A.A.A.A.A.A.rXA.",
"A.B.B.A.B.A.A.A.A.A.A.A.A.A.A.A.A.A.A.~.A.A.A.A.A.~.A.A.A.A.A.A.A.A.yXF.7 > n.A.A.A.A.A.A.A.A.A.A.A.A.A.A.A.~.A.A.A.A.A.A.A.A.A.",
"A.A.A.A.A.A.A.A.A.A.A.A.A.A.A.A.A.A.A.A.A.A.~.~.~.A.A.A.A.A.A.A.A.~.yXH 3 w A.A.~.~.A.A.A.A.A.A.A.A.A.A.A.A.A.A.A.A.A.A.A.A.A.A.",
"A.A.A.A.A.A.A.A.A.A.A.A.A.~.A.A.~.A.A.A.A.A.A.A.A.A.A.A.A.A.A.A.A.^.5XF ; R A.A.A.A.A.A.A.A.A.A.A.A.A.A.A.A.A.A.A.A.A.A.A.A.A.A.",
"A.A.A.A.A.A.A.A.A.A.A.A.A.A.A.A.A.A.A.A.A.A.~.A.A.A.A.A.A.A.A.A.A.^.c.4 = n.A.A.A.A.A.A.A.A.A.A.A.A.A.A.A.A.A.A.A.A.A.A.A.A.A.A.",
"A.A.A.A.A.A.A.A.A.A.A.A.A.A.A.~.A.A.A.A.A.A.A.A.A.A.A.A.A.A.A.A.W.T.G 3 $ A.A.A.A.~.A.A.A.A.A.A.A.A.A.A.A.A.A.A.A.A.A.A.A.A.A.A.",
"A.A.A.A.A.A.A.A.A.A.A.A.A.~.A.A.A.A.A.A.A.A.A.A.A.A.A.A.A.A.A.A.R.5Xq : w A.A.A.A.A.A.A.A.A.A.A.A.~.A.A.A.A.A.A.A.A.A.A.A.A.A.A.",
"A.A.A.A.A.A.A.A.A.A.A.A.A.A.A.A.A.A.A.A.A.A.A.A.A.A.A.A.A.A.A.^.5Xc.4 = R A.A.A.A.A.A.A.A.A.A.A.A.A.A.A.A.A.A.A.A.A.A.A.A.A.A.A.",
"A.A.A.A.A.A.A.A.A.A.A.A.A.A.A.A.A.A.A.A.A.A.A.A.A.A.A.A.A.A.Q.uXrX( = $ R n.A.A.A.A.A.A.A.A.A.~.A.A.A.A.A.A.A.A.A.A.A.A.A.A.A.A.",
"A.A.A.A.A.A.A.^.A.A.A.A.A.A.~.A.A.A.A.A.A.A.A.A.A.A.A.A.A.x.tX5Xb.7 : O   n.A.A.A.A.A.A.A.A.A.A.A.A.A.A.A.A.A.A.~.A.A.A.A.A.A.A.",
"A.A.A.A.9X^.A.A.A.A.A.A.A.A.A.A.A.A.A.A.A.A.A.~.A.Q.Q.R w   t L q 7 = $   w A.A.A.A.A.A.A.A.V.A.A.A.A.A.A.A.A.A.A.A.A.A.A.A.A.A.",
"A.!.n.A.V.W.n.A.V.W.A.A.V.V.A.A.W.W.A.A.V.A.A.W.!.R     ( T b.6 7 q $ O     w A.n.A.A.A.A.Z.V.Q.W.A.A.A.A.A.A.A.A.A.A.A.A.m.m.W.",
"n.L tXS.Q.H.L A.V.H.Q.H.m.!.W.!.8XR.W.W.E Y.A.D.  . c.5Xb.c.( G J 3 : $ O     w L ..V.A.V.V.F.^.Q.H.Z.Q.Z.W.A.V.M.M.A.A.H...V.A.",
"b.X H b.m.~ L. .H.Y.uXK.#.K.K.8X*X7.0.).W.] q w c.b.b.J c.5XG 7 3 4 : $ $ O O   X 4 N.X.R.N.E.J.!.R.Z.F.9X7X..R.I.o.R.W.~.P.V.V.",
"c./ `.c.6 H / ] Y.J.I.5X3X4XqX%Xh.#X).x.w 4 x.b.5Xb.5XH ( ( ; 6 4 4 4 : = $ $ $ O   Q x.C.I.X.+.+.X.yX!.7XI.N.R.P.yX@.!.H.U b.L ",
"/ X 5 X / / X X X T Q O.P.+.4XK.4XG.q + . P 6 c./ c.q + > ; ; : ; ; ; ; ; % @ @ @ +   e Q J.R.+.{ 4.uXG. .I.G.yXuX^.uXC.C.Y 6 H ",
"X X X X X X / `.X X c.c.@.+.} | R. .P + + + + + + + + + + + . + + + + + + + + + + + + + . + e +.6.4.U.6XI.P.+.uXI. .R.@.| 6 H H ",
"y X X X X X X X X X 6 X W / ~ P.| +.O.E.E.X.!.W G ~ P P q + + + + + + + + + + + + + + + + e r ! 8X7.2X8XI. .E.P.I.+.5Xt 6 6 X 6 ",
"X X X X X X X X / / X X c.X W 5 b.@. .| G.O.E.3X).4X6XK.X.H Q ^ `.. / ^ L.H I.S.S.4X9._.wX4.P.X.@.C.0XJ.P. .} @.@.O L.X / X X X ",
"y X X X X X X X X X X X / / X X X c.I.U.@.4XK._.qX4X6XX.J.E.7X/ 6 F U _._.[ +.4X3X2XqX2X{ #XI. .| 0XI.E.G.] 5 X.H 5 X 5 X X X X ",
"X X y X X X X X X X X X X X 5 c.c.`.e O.I.7XX.K.I.| U.7XP.E.x.K ~ o r wX_.4.2X2X).4X7.;.G.K.| | O.@.| W X ( 5 H X X X X X X X X ",
"X X X X X X X X X X X X X X X X X 6 X o H } O.7X@.C.C.} 7X0XE.P.{ T.G ).4X_.8.O.3XD.6XP.P.U 6 / 5 5 X 6 X H X X X X X y y X X ^ ",
"X X X X X X X X X X X X X X X X / 6 X 5 5 X H F W U | 4X@.6Xp.O.3Xo F H E. .U.P.J...{ E.X / X 5   X X X X 5 H X X X X X X X y y ",
"X X X X X X y X X X X X X X X X X X X X X X X X X X 6 F { ` ` 9X3 . # # | E ] ~ t H X X y X y X X X y y X X y X X X X y y X X X ",
"X X X X X X X X X X X y X X X (.X X X X X (.(.X X X X X .     ~ F . # G F 6 5 X X X X X X X X X X X X X X X X X X X y X X X y X ",
"y X X X X X X X X X X X X X X X X X X X X X X X X X y X X X X X X X X X y y X X X X X X X X X X X X X X X X X X X X X X X X X X ",
"X X X y y X X X X X X X X X X X X X X X X X X y X X X y X X X X y X X X X X X X X X X X y X X X y (.y y X X X X X X X X y X y X ",
"X X X X X y y X X X X X X X X X X X X X X X X X X X X X X X X X X X X X X X X X X X X X X X X X X X X X X y y X X X X X X X y X ",
"y y X X X y X X X X X X X X X X X X X X X X X X X X X X X X X X X X X X X X X X X X X X X X X X X X X X X X X X X X X X X X X X ",
"y X X X y X X X y X X X X X X X X X X X X X X X X X X X X X X X X X y y X y X X y X y X X X X X X X X X X X X X X X X X X X X X ",
"X X X X X X X X X y X X X X X X X X X X X X X (.X X y X X X X X X X X X X X X X X X X X X X X X y X X X X X X X X X X X X X X X "
};
