/* XPM */
static char *a29290407e5349a0c275e8e0ccf7858cOITrmLHfyqwN8NYe[] = {
/* columns rows colors chars-per-pixel */
"64 64 193 2 ",
"   c #36140A",
".  c #39170B",
"X  c #3C1A0C",
"o  c #3E3535",
"O  c #3B3A3C",
"+  c #411F0E",
"@  c #421D11",
"#  c #43210F",
"$  c #462410",
"%  c #492514",
"&  c #4D2A15",
"*  c #4F2A18",
"=  c #522E19",
"-  c #4C311E",
";  c #56321C",
":  c #58331D",
">  c #5D3720",
",  c #552F33",
"<  c #5E3439",
"1  c #6F2837",
"2  c #63343A",
"3  c #68323A",
"4  c #584732",
"5  c #4C543E",
"6  c #67533B",
"7  c #6D3942",
"8  c #743A46",
"9  c #35444A",
"0  c #2C4A54",
"q  c #23535E",
"w  c #36545B",
"e  c #005B6B",
"r  c #1D5664",
"t  c #006374",
"y  c #006779",
"u  c #006A7C",
"i  c #4D4C44",
"p  c #4C5741",
"a  c #44504F",
"s  c #435051",
"d  c #684147",
"f  c #6D454A",
"g  c #75454D",
"h  c #6B5B47",
"j  c #754A51",
"k  c #7A4953",
"l  c #795859",
"z  c #59644B",
"x  c #4C6558",
"c  c #576C52",
"v  c #57755A",
"b  c #73624C",
"n  c #7B5E61",
"m  c #5A7F62",
"M  c #7C6164",
"N  c #69717E",
"B  c #813849",
"V  c #884656",
"C  c #934C5D",
"Z  c #83535D",
"A  c #89515D",
"S  c #91505F",
"D  c #964F61",
"F  c #895963",
"G  c #955262",
"H  c #9A5466",
"J  c #955A68",
"K  c #9C5C6C",
"L  c #A15C6D",
"P  c #A25F70",
"I  c #856769",
"U  c #8C656D",
"Y  c #86696C",
"T  c #9A6572",
"R  c #936E75",
"E  c #986874",
"W  c #967379",
"Q  c #A56374",
"!  c #A86577",
"~  c #A96778",
"^  c #A46D7C",
"/  c #AC6C7D",
"(  c #A6727E",
")  c #5A8C6D",
"_  c #5B9877",
"`  c #5F9D7B",
"'  c #638869",
"]  c #609C7A",
"[  c #61A17E",
"{  c #006D80",
"}  c #007185",
"|  c #667380",
" . c #6C7683",
".. c #747986",
"X. c #797C89",
"o. c #9C7C82",
"O. c #AF6F80",
"+. c #AD7282",
"@. c #A57A84",
"#. c #AB7D89",
"$. c #B17383",
"%. c #B47889",
"&. c #B67A8A",
"*. c #708F9C",
"=. c #63A581",
"-. c #66AA85",
";. c #68AC87",
":. c #68AD88",
">. c #6BB38C",
",. c #70BA92",
"<. c #66B4C3",
"1. c #7ED0DE",
"2. c #83818E",
"3. c #928895",
"4. c #918A96",
"5. c #9B8D99",
"6. c #A4848B",
"7. c #AB818B",
"8. c #B3818E",
"9. c #B8818F",
"0. c #AA8A92",
"q. c #BC8292",
"w. c #B48994",
"e. c #BD8997",
"r. c #BF8A98",
"t. c #A2929E",
"y. c #B9949D",
"u. c #A999A6",
"i. c #AE99A5",
"p. c #BC9AA3",
"a. c #B69DA9",
"s. c #96A0AC",
"d. c #BCA2AD",
"f. c #B7A6B5",
"g. c #B2ACB9",
"h. c #C38D9C",
"j. c #C4919F",
"k. c #C693A1",
"l. c #C49AA5",
"z. c #C999A6",
"x. c #C59CA8",
"c. c #CC9DAA",
"v. c #C5A2AC",
"b. c #CEA2AE",
"n. c #C3A6B1",
"m. c #C8A8B3",
"M. c #CAAAB5",
"N. c #D2A6B3",
"B. c #D4AAB6",
"V. c #D5ADB8",
"C. c #AFB7C5",
"Z. c #B7B6C4",
"A. c #C3B7C4",
"S. c #CCBBC7",
"D. c #C5BDCA",
"F. c #CCBECA",
"G. c #DBB5C0",
"H. c #96C8D6",
"J. c #9DCAD7",
"K. c #99CAD8",
"L. c #B7C2CF",
"P. c #BBC1CD",
"I. c #A4C7D5",
"U. c #ACC6D2",
"Y. c #A1C9D6",
"T. c #AFCFDC",
"R. c #B3C3D0",
"E. c #BACAD7",
"W. c #BCC9D6",
"Q. c #B5CCD9",
"!. c #B2D1DE",
"~. c #81D4E3",
"^. c #83D9E7",
"/. c #87DEED",
"(. c #9DD6E5",
"). c #99D8E7",
"_. c #A4D4E2",
"`. c #A8D2E0",
"'. c #ACDFEE",
"]. c #BBD4E2",
"[. c #B3DAE8",
"{. c #8CE6F7",
"}. c #91EEFF",
"|. c #A4E4F4",
" X c #AAE0F0",
".X c #C6C2CF",
"XX c #CBC1CD",
"oX c #D0C1CD",
"OX c #C4C4D0",
"+X c #CDC5D1",
"@X c #C9C8D5",
"#X c #C3CDDB",
"$X c #C0D0DE",
/* pixels */
"1.1.1.1.1.1.1.1.1.1.1.1.1.1.1.1.1.1.1.1.1.1.K.R.G.S.Y.S.G.XXD.B.f.J.~.P.S.U.Y.R.P.F.~.1.1.1.1.1.1.1.1.1.1.1.1.1.1.1.1.1.1.1.1.1.",
"1.1.1.1.1.1.1.1.1.1.1.1.1.1.1.1.1.J.K.1.1.1.G.G.Y.K.G.G.G.G.c.c.b.V.b.V.V.XXV.U.P.U.U.U.1.1.1.1.1.1.1.1.1.1.1.1.1.1.1.1.1.1.1.1.",
"1.1.1.1.1.1.1.1.1.1.1.1.1.1.1.1.1.1.1.J.U.1.G.G.D.D.Z.V.V.G.k.6.c.c.b.J.G.G.G.XXG.L.S.1.1.1.1.1.1.1.1.1.1.1.1.1.1.1.1.1.1.1.1.1.",
"1.1.1.1.1.1.1.1.1.1.1.1.1.1.1.1.1.1.J.Y.J.D.G.G.G.G.c.&.c.V.c.( 2 B.b.S.G.G..XV.G.V..X1.1.1.1.1.1.1.1.1.1.1.1.1.1.1.1.1.1.1.1.1.",
"1.1.1.1.1.1.1.1.1.1.1.1.1.1.1.1.1.F.Z.G.F.G.G.G.G.G.N.+.&.N.V.z.v.M q.V.G.G.XXP.G.G.G..XS.~.~.U.1.1.1.1.P.1.1.1.1.1.1.1.1.1.1.1.",
"1.1.1.1.1.1.1.1.1.1.1.1.1.1.1.1.1.K.E.S.G.G.D.G.G.G.@.V E X j # # . f b.q.G.G.V.G.G.F.G.S.R.V.R.J.Y.1.Y.K.1.1.1.1.1.1.1.1.1.1.1.",
"1.1.1.1.1.1.1.1.1.1.1.1.1.1.1.1.1.1.L.G.F.G.G.G.G.m.B.V.g.V.V.G.v.2 n e.b.G.G.G.G.G.G.G.V.G.G.G.N.R.1.P.P.R.1.1.1.1.1.1.1.1.1.1.",
"1.1.1.1.1.1.1.1.1.1.1.1.1.1.1.1.1.1.I.G.A.F.G.G.G.G.U.J.~.~.G.G.N.A + K G.G.G.G.G.G.G.G.G.G.G.G.g..X1.K.K.K.1.1.1.1.1.1.1.1.1.1.",
"1.1.1.1.1.1.1.1.1.1.1.1.1.1.1.1.1.1.U.U.G.U.K.U.H.H.1.1.1.1.H.D.c.q.2 < q./ b.G.G.G.z.G.G.G.G.G.N.b.V.M.P.OX1.1.1.1.1.1.1.1.1.1.",
"1.1.1.1.1.1.1.1.1.1.1.~.^.^.^.^.^.^.^.S.G.G.OX^.1.^.^.^././././.R.V.^ . f H q.N.&.G.8.E p.G.c.G.b.D.V.G.G.V._./.^.^.~.1.1.1.1.1.",
"1.1.1.1.1.~.^.^.^.^././././././././././././././.{./././././.#X/.).F.~ $ . V H 8 3 # T w.c.V.k.G., b.V.G.G.G./.`.)././././.^.~.1.",
"1.~.^././././././././././.G././.`.F././././././././././._.`./././.N.e.+ @ k 2 , V / / V.G.B.c.q.G N.z.G.G.G.OXE.V.[./././._././.",
"~././././././././._.XX(._.G.(._.+XQ.(.(././././.(.Q././././.Q./.E.N.h.n @ + G Q &.$.B.G.G.G.G.%.%.l.%.V.G.G.!..X@XXX(.`./._././.",
"/./././././././././.W.T._.(.Q.G.D.E.G.G.D.G.).Q./.Q./.).E./.E._.Q.G.f.T + % ! / j.I./.D.F.G.V.8 q.q.k.G.G.G.c.j.V.G.V.@X_.Q.(./.",
"/././././././.{./././._.Q.XX.XG.G._.G.OXF.E.F.E.OXG.F.T.!.E.F.Q._.G.&.~ d $ O.C h.I.(.T.G.E.q.k j.j.G.b.V.G.z.q.%.G.G.G.V.XXQ./.",
"/./././././._.`.`.V.F.E.G.G.G.G.+XG.F.G.V.G.OXG.G.G.OXOXD.G.G.G.Q.G.h.Q R @ ! V H ! /._.Q.G.$.3 f $.c.j.0.$ A G T Q V.G.G.E././.",
"/././././._.E.F.oXW.oXG.G.G.V.V.G.m.G.G.b.B.V.V.G.G.G.G.G.G.F.{.G.G.O.~ .   $.L q./ D.!./.D.%.L 2 g c.f j k.&.h.O.&.&.V.E.E././.",
"/././././.Q._.`.G.G.V.V.G.G.V.h.V.Y G.G.h.f.V.V.G.G.G.G.G.G.D.D.Q.a.$.z.$ k e./ k.~ V.F..XG.V.c.v.% ; Y V.b.D.b.k.G.G.D.+X/././.",
"/./././././._.E.oXG.G.G.G.v.G.b.V.8.V.G.P j.b.b.G.p.M.G.c.G.G.G.G.k.! N.& + %.%.z.! G.G.G.G.G.k./ & Y 9.z.n.f.R.F.Q.G.T.Q./././.",
"/./././././.Q._.G.G.oXG.G.M.g V.b.W G.j.K q.9.b.G.b.G.G.V.c.G.G.c.#.K L X + r./ #.T b.k.G.G.B.c.H 2 0.&.V.z.G.G.#XG.OXT.(._././.",
"/././././././.#XXXV.G.G.G.G.7.v.j.6.v.j./ b.h.v.V.b.G.G.k.c.c.V.r.h.e.e.+ $ q.k.A F z.G.G.G.G.b.! g 3 z.z.k.G.F.OXG././././././.",
"/././.}.|.}.}.}.oXG.G.G.G.V.j.U # R / q./ e.j.R h.h.G.G.G.G.G.c./ +.h.b.= 8 H q.g T &.G.G.p.G.V.V.8 X z.&.G.G.G.G.V./.{._././._.",
"}.}.}.}.].oXoXoXG.G.G.G.G.V.c.c.j.j I W B.c.o.m.O.z.h.k.z.k.M.k.K y.e.w.; R H #.  G O.z.N.G.G.G.G.h.% I c.&.z.|.G.#X{.{.{./././.",
"}.}.}.}.|.G.G.V.G.G.G.G.G.|.G.G.V.j.j.I f v.# 9.O.z.k.[.C.! q.a.e.q.k.6.= Z 8.e.+ a.j.z.G.G.G.G.B.! g @ f h.&.F.G.+XE.}.}.}.}.}.",
"}.}.}.}.|.@X[.V.G.G.G.G.G.oXG.G.G.&./ h.j M $ b.q.q.N.B.i.L L $./ G.G.l = o.q.R + F E / B.G.+XG.V.&.q.j & T z.c.V.G.G.}.}.|.}.].",
"}.}.}.}.oX].].+XG.G.b.G.G.G.N.c.b.b.&./ v.# & j.S 9./ v.%.&.r.O.h.c.^ ; $ +.&.W X W k.B.c.G.G.G.G.q.c.! I @.B.G.G.+XG.}.}.}.}.}.",
"}.}.}.}.}.+X+XG.G.V.V.b.G.G.h.j.c.B.h.~ &.F = ( / j.N.e.~ k.k.b.V.B.$ = # l $ l %.k.c.%.b.Z.G.G.@Xb.b./ R + h.V.G.G.#X|.'.}.}.}.",
"}.}.}.}.'.+X[.G.G.v.T 2 #.V.c.Q h.c.c.j.j.( = 6.h.e.j./ H G z.k.F.l ; & # W Z.c.&.Q Q e.b.B.G.G.'.c.G &.8 + q.b.z.[.].|.}.}.}.}.",
"}.}.}.}.'.#X+XG.G.G.G.V.W y.U #.W 9.XXc.N.N.I & q.L / D / / L V.I : $ , H m.z./ &.! ~ b.b.G.G.G.V.q.H &.2 . 9.h.f.}.}.}.}.}.}.}.",
"}.}.}.}.].oX].G.G.G.V.j.c.c.p.( y.I # # s.0.n ; ( q.G C / H h.=.= # g Q G +.Z.&.q.&.k.c.B.G.G.G.G.%./ h.. j V.@X].|.}.}.}.}.}.}.",
"}.}.}.}.'.$X+XG.G.G.G.j.h.G.G.B.c.j.h.( 6.# $ ; Z V.&.b.b.V.Y ; + %.&.D 1 V B e.c.^ G.G.G.G.G.V.h.&.&.@.  T k.k.[.|.}.}.}.}.}.}.",
"}.}.}.}.'.G.'.oXG.G.j.j.$.&.V.~ N.h.9.&.l.b.w.+ & R j.0.J & : & C ! P G ^ g.m.@Xb.l.x.u.G.G.V.c.Q &.( @   h.j..XG.}.}.}.}.}.}.}.",
"}.}.}.}.$XG.@X+XG.p.Q R Z Z H / c.l.Q r.j.z.B.&.A & $ $ ; : & / K ~ O.c.V.|.'.@XG.G.].}.].G.G.V.H P   # 0.V.G.@XG.@X}.}.}.}.}.}.",
"}.}.}.}.}. X#XV.G.N.&.J V #.w.7 J K +./ e.V.q.8.P ( K ; ; $ y.L +.K h.k.F.|.'.@X].@X].}.}.].V.$.~ U X k j.b.V.G.G.+XG.oX].+X X}.",
"<.<.<.<.Y.Y.H.F.G.B.c.b.e.B.q.T g 2 6.z.q.V.G.B.7.&.h.o.: 6.j./ &.%.c.C.XXV.<.H.I.V.b.<.].+X]./ b.f   9.k.&.G.G.G.G.G.G.+X.X<.<.",
"e e e y d.d.i.G.i.G.G.B.B.B.B.j.q.( j . $ $ w.f.5./ j.Z & n c.c.0.p.n.n.G.| e | X.v.2.d.X.p.V.q.U X &.b.k.&.G.G.G.G.G.G.m.i.V.X.",
"e t u e u.V.n.a.G.G.G.G.G.G.V.q.&.q.q.&.y.= $ , b.( ( ( $ : d.oXe e e G.5.e u u t X.e e v.c.j.8.% j V.b.V.j.b.V.V.j.G.G.V.G.M.e ",
"e e e e e e X.n.G.G.G.G.G.G.n.d.G.d.m.b.B.- : : , a.W t.& : ..V.e u t.G.e e e e e e u 4.V.b.#.# # f # X o.f F F x.j.q.G.n.V.*.e ",
"e e e e e e e e ..m.a.G.G.G.G.d.t.b.n.m.o # 0 : : I j.x.# = e e e e t.5.e e u t e e i.V.V.7.# & . T T e.c.V E f l ^ Q ~ V.V.0.n.",
"e e e u e 2.b.3.*.i.G.M.G.G.d.G.B.k.o.= R G.| q : ; M p.# & e e e e e e e e e e 4.m.V.l # ; ; $ 2 ! H ~ h./ 9./ ~ q.J P V.c.t.e ",
"e e e e e 3.G.n.n.V.G.G.G.G.V.G.M $ 6.#.0.M.e e q ; = g & = e e e e e e e e e i.i.y.% & : ; X E j.c.v.G.V.c.h.$.~ / F T J j. .t.",
"e e e e e e e i.G.G.G.n.G.G.m.v.m.n.d.Y 0.3.e e e 9 : & = $ e e e e e e e e 2.X.y.= : - Y m.b.j.h.a.G.G.m.M.3.V.3.m.G.V.v.p.3.a.",
"e e e e e e e e 3.n.G.M.G.M.t.n.d.i.3.l u.e e e e q & : : $ e e e t e e e e M.5.; : = # V.V.V.V.V.V.G.t.e v.3.a.M.n.V.u.a.N N t.",
"e e e e e e e 3.i.n.G.G.G.d.d.d.a.t.n.0 e e e e } e 9 # > = e e e e e e e i.V.# ; ; W m.n.d.M.d.t.M.V.N e e e e 3...M.G.3. .t. .",
"e e e e e e e e e u.n.M.d.G...e X.t.6.e e e e e e e e # ; # q e e e } u e e 9 % ; $ G.G.M.M.b...m.d...e e e e e e y t 5.e e X.e ",
"e e e e e e e e e i.X.V.G.V.n.e e u.5...e e e e e e e , = - 9 e e e e e e e , : : Y V.V.V.m.N X.t.e e e e e e e e e e t.e e e e ",
"e e e e e u u e e e 2.2.G.t.n...e e e e e e e e e e e q = : $ e e e e e e 9 = : = 2.t.e e e e e e e e y e e e e e e e e e e e e ",
"e e e e e e e e e e e e e X.e e e e e e e e e e e e e e $ : & o e e e t { % : : O e e e e e u *.e e e e e e e e e e e e e e e e ",
"e e e e e e e e e e e e e e e e y t e e e e e { u e e e 0 > > % 9 e e e 9 ; : & q e e e e y y e e e e e e e e e e e e e e e e e ",
"e e e e e e e e e e e e t e e e e e e e e e e e e e e e e ; > ; O e e e & : ; 0 e e e e e e e e e e e e e e e e e e e e e e t } ",
"e e e e e e e e e e e u t e e e e e e e e t t e e e e e e 9 ; > ; q e o : : O e e e e e e e e e e e e e e e e e e e e t { { { s ",
"e e e y e e e e e e e e e e e e e e e e e e e e e e e e u r & > ; & # = : & r e e e e e e e e e e e e e e e e e e e t y e s i 4 ",
"e e } u e e e e e e e e e e e e u t e e e e e e e e e e e e O & ; : $ : > $ e e e e e u y y e e u u y u u u e e e s s 5 4 6 b 4 ",
"e e e e e e e e e e e e e e e e e e e e e e e e e e e e e e e O & : > > > # e e e t e e e e e e e e e e s a 5 6 6 4 4 4 4 4 z v ",
"e e e e e e e e e e e e e e e e e e e e e e e e e e e y u t e e O $ : > > $ e e s s s s a a a w s b 6 4 4 4 4 4 4 4 4 c v _ ] =.",
"e e e e e e e e e e e e e e e e e e e e e e e e y t y e e w s s a - = > > $ 4 4 4 4 4 4 b 4 4 4 4 4 4 c ) _ _ _ _ _ _ _ ` ` =.] ",
"e e e e e e e e e e e e e e e e e e e e e e e t e e w p a z ' ' ) v $ : : $ $ c ) v _ _ _ _ ) ) _ _ _ _ =.=.` _ _ _ =._ _ _ =.=.",
"t t e e e e e e e e e e e e e e e u e e e e w a 4 4 c ] [ _ _ _ _ >.c ; > ; $ $ _ _ _ _ _ >.=._ _ _ _ _ ` =.=._ ;.-.] ;._ =.=.:.",
"e e e e e e e e e e e e e e e u u e e e w s c ) ` _ _ [ >.;._ :.[ _ _ & > : $ $ ) _ _ _ _ _ -._ _ :._ _ :.>.>.=._ ;.=.>._ =.:._ ",
"e e e e e e e e e e e e e y u e e s b 4 c _ _ _ _ _ _ ;.,.[ _ [ [ >.>.$ > : : $ $ _ _ >._ >.>.:._ ` _ =.>.,.,.;.,.] :.,.;.:.=.>.",
"e e e e e e e e e e e y t e e i 4 z v v [ _ _ _ _ _ _ >.,.,.>.;.:.[ ) # > > > : + v ) _ -.-.=.,.=.,._ =.,.;.,.>.,.>._ :.;.>.=.=.",
"e e e e e e e e e e t e e w x v _ _ _ _ -.;._ [ -._ -.,.[ ,.>.[ p $ & ; > > > > * $ $ $ p :.-.=.;.=._ =.:.;._ :._ ;.>._ ` _ _ _ ",
"e e e e e e e e u e e e i z ] -.] _ _ _ [ >._ _ =._ =.>.>._ [ _ ;.;._ [ [ _ [ >.-.=.-.` =.;._ _ ;._ _ =.=.=._ >.>.=.=._ =.` ` _ ",
"e e e e e e e t y e e h 6 _ _ ` -._ =.-.>.>.,.=.] _ ,.-.[ ` :._ [ _ ] [ ;._ ;.:._ _ =._ =._ _ =.-._ _ _ _ _ _ >.` _ _ _ ;.=._ _ "
};
