/* XPM */
static char *_5089226388246e7f0274b7a820727e08mhVV68MwSG0pbxZ[] = {
/* columns rows colors chars-per-pixel */
"64 64 92 1 ",
"  c #210F02",
". c #261101",
"X c #2D1502",
"o c #301601",
"O c #361C02",
"+ c #3B1D02",
"@ c #3E2002",
"# c #401F02",
"$ c #462402",
"% c #4B2603",
"& c #4E2903",
"* c #552C03",
"= c #5A2E02",
"- c #5D3203",
"; c #643403",
": c #693603",
"> c #6B3903",
", c #763D01",
"< c #7A3F01",
"1 c #7D4204",
"2 c #834401",
"3 c #894702",
"4 c #854905",
"5 c #8B4801",
"6 c #894D08",
"7 c #934E03",
"8 c #955205",
"9 c #9B5405",
"0 c #9A5508",
"q c #A35700",
"w c #A45903",
"e c #AA5C04",
"r c #A55B08",
"t c #AA5E08",
"y c #B15E00",
"u c #AE6005",
"i c #AD6007",
"p c #AD6008",
"a c #B36303",
"s c #B46303",
"d c #B46305",
"f c #B36406",
"g c #B86301",
"h c #B86303",
"j c #BB6502",
"k c #B96603",
"l c #BC6603",
"z c #BD6603",
"x c #B96707",
"c c #BA6707",
"v c #BD6604",
"b c #BD6804",
"n c #BE6805",
"m c #BF6905",
"M c #B26208",
"N c #C36A03",
"B c #C46B03",
"V c #C66B03",
"C c #C66C02",
"Z c #C76C03",
"A c #C16A05",
"S c #C36A04",
"D c #C06B07",
"F c #C56C04",
"G c #C46C06",
"H c #C56C06",
"J c #CC6F03",
"K c #C86F08",
"L c #CF7001",
"P c #CC7003",
"I c #CB7004",
"U c #CE7104",
"Y c #CF7104",
"T c #CF7307",
"R c #CF7308",
"E c #D17103",
"W c #D47303",
"Q c #D17205",
"! c #D37304",
"~ c #D37405",
"^ c #D27506",
"/ c #D67504",
"( c #D47406",
") c #D57507",
"_ c #D67707",
"` c #D97604",
"' c #D97704",
"] c #DB7905",
"[ c #DB7907",
"{ c #DC7904",
"} c #DC7805",
"| c #D57608",
/* pixels */
":5555555555=755535555=7555555555<,35555555>43555555555:355555555",
"2!CCCBCCCCS$!CCCJHCCv$WCCCCCBBCJ,q)BBZBZBE<lJBBCBZBZJe2)CCCCCCZe",
"2Nqqqqqqqqe$)qqqqqqqw$Eqqqqqqqqa-qSqqqqqqs=yjqqqqqqqqw2Hqqqqqqq9",
"2Nqqqqqqqqu$)qqqqqqqr$Ewqqqqqqqa-9Hqqqqqqs*djqqqqqqqqe2Hqqqqqqqr",
"2ewwrrrwrw9$vwrrqwww0$vwrwrrwwrt=7Mwtrqrwt*werrrwwwr982drwrrrrq6",
" +O+OOO+OO+ O+OOOOOOO O+O+OOOO+OoXOOOOOOO+XXOO+++++++O +OO++OOOO",
"{{{{{l5]{{{{{'{{W:'}'}}}]{U:){{{{{{{}}8w}{{{'}}}2v{}''{{]{{v5'{{",
"qqqqqr2Cqqqqqqqqd$)qqqqqqqe%Jqqqqqqqqd:qHqqqqqqB*yAqwqqqqqqu2Bqq",
"qqqqqe2Bqqqqqqqqd$)qqqqqqqy$Jqqqqqqqqd:9CqqqqqqZ*yBqqqqwqqqt2Hqq",
"BZBBHw2WFFBBZZZBH$!BZBZBHBc$LHBBHBBHFU>q)BBZBHB)=yWBHZBBSSHy2UHB",
"&&&&&*=*&&&&&&&&&O>&&&&&&&&+>&*%%&&&&&$;&&*&%**%#;&&&&&&&*%*=&&&",
",eweqwwwwwe=ywweewwww=yewqweqeww37ewewwwqe<qweqqwqeww9,ewwwweww9",
"2EHHHBZHHHc$)ZBHHSFFh$)BVHVHHBB!=q|VVFSFHJ=y!HSHBZZHBr2)BHHHZZBt",
"2Zqqqqqqqwe$)qqqqwwqq$Lqqqqqqqqd=9Vqqqqqwd=yxqqqqqqqwr2Bqqqqqqq9",
"2Bqqqqqqqqe$)qqq9ww9e$)qqqqqqqwh;9Bqqqqqqs*sxqqqqqqqew2Zqqqqqqqr",
">rttettttt8$qtttpett7$wtttetette*2etttrptt*7tttttttte1,rttrtttt<",
",,,,,,=,<,,<,,,,,&1,,,,,<,,%1,,,,<,<,,::,,,,,,,,=,,,,,,<,,<,*,,,",
"ZZZZZy2)BBBBZBZBB$WBZHZZCCB%)BZBBBBCHC2q)JCCFFF~,sJBZZBZBBBd2!BH",
"qqqqqt2Zqqqqwqqqd%)qqqqqqqe%Jqqqqqqqqs>9BqqqwqqF=ylqqqqqqqqM2Bqq",
"qqqqqe2Bqqqqqqqqd$)qqqqqwwe$Lqqqqqqqqs>9SqqqqqqC=ylqqqqwqqqt2Bqq",
"wwwqr72ewwwwwwrqr&vwqwwrww9%jwwwwwrwwe:8Mwwwqwwf*qyrr9rwwww91dt9",
"++++++.++++++++++.+++++++++.++++++++++oo++++++++oO++++++++++.+++",
"3'){)}')){Y:)/'')W//J:{')//)/{//9e'})'/){/5F)/'~W}W'{v5')W)'W)}l",
"2Bqqqqqqqwe$/qqqqqqww$Eqqqqqqqws-9Sqqqqqqh*djqqqqqqqqw2Jqwqqqqqq",
"2Bqqqqqqqqe%~qqqqqqqe$!wqqqqwqqa-9Hqqqqqqa*yjqqqqqqqqp2Cqqqqqqqq",
"2Jssssssssh$)dsssssse$YssssshssS=q!yhsssaN=aSaaaagaaar2Isshsssdr",
"=*&&&&&&&&&O:*&&%**&&O>&&*&&&&&&$;%&&&&&*&@:&*&*&&&&&*=&&*&%%*%*",
"qwqww9,ewwwqwwwwq=eqwwwwqww=ewwwqwwqwq53qwwwwwqw19wqwqwwwqw9,wqq",
"BBSBSr2)BZHNSNBSS%~SFSmSBBc%JSSHNSNHZU>9_BSSSSS|*y~SSSSSmSSp1!SS",
"qqqqwt2BqqqqqwqqM$!qwwqqqqe$Lwqqwqqqqs>9mqwwwwwS=yjwqqwwwqwu2Nww",
"qqqqwr2Bqqqqqq9wd$!qqqqqqqe$Lqqqqqqqqs:qBqqwq9qS=ymqwq9qqqwp1Sqq",
"ttttr419tttttttt0$tttttttt0$eettrttttr;5tttttttt*7ttttttttt4,rtt",
"*,,,,,,,,,<$1,,,,,,,,%1,,,,,,,,,::,,,,,,,,=,,,,,,,,,,,*,,,,,,,,,",
"2)!!!)|!E)F&)!))!!!)B%))~~~!)E))1q]!!~~~W)<l)!!!!!~!)e2))/~~~~Wt",
"2Bqqqqqqqqe&)qqqqqqqw&Eqqqqqqqqd-9Bqqqqqqs*sxqqqqqqqqt2Cwqqqqqqr",
"2Cqqqqqqqqe$)qqqqqqqq$Wqqqqqqqqh-9Sqqqqqqs=scqqqqqqqqt2Fqqqqqqq9",
"2HlcllAvvcM$CAcvvvmce&JccmvcllAH=9KlxvmvlS*yHvvlxvvvv02Sllccvmc8",
"X++++++++++.#++++++++ ++++++++++Oo++++++++X++++++++++@X++++++++@",
"W))W)h3)W))W)WWWC;)~)WE)W)C:)WW)WW)WWW9e)W))'E))5x!))E)W/W!c4~//",
"qqqqqe2Bqqqqqqqqd%Ewqqqqqqe&JqqqqqqqqM:9BqqqqqwF=ymqqqqqqqqu2Fqq",
"qqqqqw2Zqqqqqqqqd%)qqqqqqqe$Yqqqqqqqqs:qCqqqqqqB=yNqqqqqqqqt2Bqq",
"sshsdt2Jaggagafac$Wsashsagg$UjhydsdhsN>9JdssaasJ=eJsssdfsdhy1!dd",
"%&$$$&=&$%%%&$%%%O:%&$&%%%&O;&%%&$%%%%$=&%%%&%%&+;%%%%&%%%%&=%%%",
"2Blllvjjlvj;Svvvjlhll;Blcgjkllll7qllllcjll5dljjjlhllly2vllllhlly",
"2Ccvjcjjmcs$)xxgcgjce$WckkkkkjxS=q~xhxcjhB=yKcjchjjjxe2~kkkxjjgq",
"2Bqqqqqqqqe%/qqqqqqqw%Eqqqqqqqqg=qSqqqqqqd*sjqqqqqqqqr2Fqqqqqqqr",
"2Cqqqqqqwqe$/qqqqqqqw$Eqqqqqqqqa=qHqqqqqqs=ylqqqqqqqqr2Cqqqqqqq0",
">7000009006@990000004$9000000009*100000000*30000009001>800000001",
"555555:5555555555-755255555*5555535555,,55555555>25555555555:555",
"CUJJCt2)LZLZJCBES$~YCYJJCEN%EYEICYYCY~,q)JJJCJU_;e/YYICUYCUe1)EC",
"qqqqqt2Zqqqqqqwwa$)9wqqqqwe$Yqqqwqqqqa>9CqqqwqwS*ybqqqqqqqqp1Cwq",
"qqqqww2Bqqqqqqqqg$)qqqqqqwe$Yqqqqqqqqa>9FqqqqqwF*yNqqqqqqqqp2Bqq",
"yyeMe82fuuuueeuup$xiueuuuuw$ceuuueuuuM>7seuueuuf*qMuuuuuuup82euu",
"O+OOO+ +OOOO++++O.OO++OOOOO O+OO+OO+O+XX+OO++O+OXoO+O+OOOOO+ +O+",
"6']]|[[|_[Y:)]]|]]]]I>){{]){)]]]7w]]_[[]_]4S]{_])]_{_j5][[][||]x",
"2Hqqwqqqwwe$)qqw9qqww$Eqqqwwwwqa-9Swqqqqqg*Mkqrqwqqqwr2Iqwqqwqqq",
"2Nqqqwqwqqe$]qqqwwqww$Wqqqqqqqqa-qBqqqqqqa*agqqqqqqqwr2Cqqqqqwq9",
"2~CCNBBBCCx$~HBBCCSBa$~FSSCCCCCY=q)CBHSBCI=jUCCFNCCCCr2ECSSCCCSr",
"*%%&$%$%%%%O:%&%&$&&%o:%&%%%%%&&+=&%%%&%&&+-%&%%%%&&%%*%%%%%%&%%",
"wqwww9,twwwwwwwwq&iqwwwwwww*eqrqwwweww43wwwwwwww10wwwwwwwww9,eww",
"cjgkgt2Ikkkjjjgfx$)jggxggkf$YcgkgcjjjB>9UjjgfgjT*yIggfjjcggu1Ysj",
"qqqqwp2Sqqqqqqqwa$~wrqqqwqu$Yqqqqqqqwa>9NwwqwqwF*ymwqqwwqqwp2Bww",
"qqqqqw2Cqqqqqqqqg$Wrqqqqqqe&Yqqqqqqqqs:qNwqwwwwC=emqwqqww9wu1Cqq",
"099981,8909090096$990899006$9909090099-<90899998*59890999901,808"
};
