/* XPM */
static char *c28dbf4c6d1b411c9a38242d479edb5889NAilidysKcWLcj[] = {
/* columns rows colors chars-per-pixel */
"64 64 256 2 ",
"   c #2D0707",
".  c #3D040C",
"X  c #3D0A0C",
"o  c #390706",
"O  c #3C0413",
"+  c #3D0A14",
"@  c #3D021C",
"#  c #3C0A1C",
"$  c #3D121A",
"%  c #2F031C",
"&  c #3B0826",
"*  c #390936",
"=  c #4B0402",
"-  c #4B0C03",
";  c #44030B",
":  c #4B050C",
">  c #440A0C",
",  c #4C0B0D",
"<  c #430805",
"1  c #530C04",
"2  c #530C0C",
"3  c #5B0C0D",
"4  c #560608",
"5  c #4D1304",
"6  c #45120C",
"7  c #4C120C",
"8  c #471505",
"9  c #541304",
"0  c #54120D",
"q  c #5D130D",
"w  c #591905",
"e  c #440414",
"r  c #4C0414",
"t  c #440B13",
"y  c #4B0B13",
"u  c #44041A",
"i  c #4C051A",
"p  c #440C1B",
"a  c #4B0C1B",
"s  c #510514",
"d  c #530B14",
"f  c #5C0C12",
"g  c #540C1A",
"h  c #5D0B1A",
"j  c #54051B",
"k  c #431215",
"l  c #4B1214",
"z  c #43121B",
"x  c #4D121C",
"c  c #4C1A18",
"v  c #531313",
"b  c #5B1314",
"n  c #541A15",
"m  c #53131C",
"M  c #5C141A",
"N  c #59191A",
"B  c #640F01",
"V  c #610B0C",
"C  c #6D0706",
"Z  c #651403",
"A  c #6B1401",
"S  c #651C03",
"D  c #63140B",
"F  c #6C150C",
"G  c #641A0B",
"H  c #691B0C",
"J  c #6B1D04",
"K  c #731402",
"L  c #741C02",
"P  c #76170B",
"I  c #640D13",
"U  c #660D19",
"Y  c #631414",
"T  c #6B1513",
"R  c #621A14",
"E  c #6B1B13",
"W  c #63161A",
"Q  c #6B131A",
"!  c #641C1C",
"~  c #731A14",
"^  c #512110",
"/  c #7B280A",
"(  c #7C320B",
")  c #7C3706",
"_  c #7C2C14",
"`  c #7D2C1B",
"'  c #792618",
"]  c #7D3314",
"[  c #7C361A",
"{  c #692710",
"}  c #440524",
"|  c #4A0321",
" . c #440D23",
".. c #4B0B23",
"X. c #4A0A2B",
"o. c #46072A",
"O. c #530D22",
"+. c #530D2A",
"@. c #580B2A",
"#. c #451323",
"$. c #4C1323",
"%. c #4D1329",
"&. c #451726",
"*. c #531423",
"=. c #531A22",
"-. c #581827",
";. c #480733",
":. c #4C1333",
">. c #471635",
",. c #5A1433",
"<. c #540C3A",
"1. c #641823",
"2. c #62122F",
"3. c #4B202A",
"4. c #672828",
"5. c #742D21",
"6. c #7C2C24",
"7. c #7B2E2D",
"8. c #7D3223",
"9. c #793427",
"0. c #6F353C",
"q. c #753038",
"w. c #7D4229",
"e. c #4E0F41",
"r. c #663243",
"t. c #774A47",
"y. c #842C04",
"u. c #8B2D04",
"i. c #84250C",
"p. c #8C260B",
"a. c #842C0D",
"s. c #8C2D0C",
"d. c #872506",
"f. c #922C05",
"g. c #922D0C",
"h. c #972B0B",
"j. c #853403",
"k. c #8B3304",
"l. c #8B3904",
"z. c #85330D",
"x. c #8B320C",
"c. c #843B0B",
"v. c #8C3A0D",
"b. c #843800",
"n. c #923304",
"m. c #92330C",
"M. c #9A320C",
"N. c #933A0D",
"B. c #993907",
"V. c #852D13",
"C. c #8C2D14",
"Z. c #84251B",
"A. c #842D1C",
"S. c #8C2D1B",
"D. c #882515",
"F. c #922D13",
"G. c #932D1B",
"H. c #9B2C1C",
"J. c #942816",
"K. c #853213",
"L. c #8C3313",
"P. c #853913",
"I. c #8C3914",
"U. c #84331B",
"Y. c #8C331A",
"T. c #843A1D",
"R. c #8D3B1C",
"E. c #933314",
"W. c #9A3414",
"Q. c #933B14",
"!. c #9A3B14",
"~. c #93331B",
"^. c #9A331C",
"/. c #933A1C",
"(. c #9B3C1C",
"). c #A13D19",
"_. c #891D24",
"`. c #832C23",
"'. c #8B2D22",
"]. c #872827",
"[. c #932D23",
"{. c #902F28",
"}. c #843323",
"|. c #8B3323",
" X c #8C3A23",
".X c #833329",
"XX c #8B342A",
"oX c #8C3C2B",
"OX c #853B28",
"+X c #933322",
"@X c #9A3323",
"#X c #933D23",
"$X c #993C24",
"%X c #93332B",
"&X c #943C2A",
"*X c #9B3C2B",
"=X c #9C362C",
"-X c #873B32",
";X c #943B35",
":X c #832D36",
">X c #A13C24",
",X c #8A440B",
"<X c #8B4B0C",
"1X c #884603",
"2X c #934A05",
"3X c #93450C",
"4X c #934B0C",
"5X c #994907",
"6X c #945107",
"7X c #8C4313",
"8X c #8D4A12",
"9X c #8D441B",
"0X c #874718",
"qX c #944415",
"wX c #9A4414",
"eX c #944A13",
"rX c #9B4A14",
"tX c #94431C",
"yX c #9A431B",
"uX c #944B1B",
"iX c #9B4B1B",
"pX c #955215",
"aX c #97541A",
"sX c #8A540F",
"dX c #A34A1D",
"fX c #A14716",
"gX c #8C4323",
"hX c #8C4B23",
"jX c #8C432B",
"kX c #864727",
"lX c #944323",
"zX c #9B4424",
"xX c #924B23",
"cX c #9A4B22",
"vX c #94442B",
"bX c #9B442B",
"nX c #9B4C2C",
"mX c #944D2B",
"MX c #9A5429",
"NX c #874435",
"BX c #9B4532",
"VX c #9B4B32",
"CX c #944937",
"ZX c #9D5438",
"AX c #A2492C",
"SX c #A34A25",
"DX c #A65226",
"FX c #A34C33",
"GX c #A34737",
"HX c #A45639",
"JX c #913E46",
"KX c #985849",
"LX c #A85B43",
"PX c #AE5A50",
"IX c #9F6444",
"UX c #AF6C4C",
/* pixels */
"wXrXwXwXrXiXqXuXiXiXqXrX2XcXv p 5 MXtXiXeXqXqXSX5XiXrX7Xb E v.rXwXyXiX1 & , R.uXiXqXiX3XdXfXdXqXS r M s e # & d 5XcXiX3X3XdX!.pX",
"v.k.m.x.a.x.I.K.L.d.I.y.Q.a.5.a mXz.(.u.k.x.k.f.m.C.x.I.Z.D.N.E.v./ L.9.z 1./.x.I.y.z.k.k.u.x.x.yXI U V H < =.0Xm.g.C.Q.k.p.W.k.",
"E.p.E.L.a.~.zX XE.L.C.+XY.s.OXv tXE.g.W.E.z.Q.~.~.S.a.s.E.E.E.J.x./.s.` e d K a.L.L.lXlXL.~.s.E.W.vXF P (.E i aXs.@X+XY.(.G.@XF.",
"F.F.~.C.Y.bXGX#XG.g.E.[.G.y.] 2 I.~.i.C.Y. XoX X|.#XY.s.x.s.I.L.s.m.n.A.N ' E.Q.C.~.FXzXV.I.x.s.A.J S +XE.V.*.q.P.|.&XU. X~.a.Y.",
"C.E.L.Y.$XnXlXY.G.N.x.C.E.N._ -.Q.x.Q.C.R. XLXZXR.tXx.L.~.S.C.x.~.x.g._ d q E.a.*XbXFXR.a.K.E.E.~./.qXx.F.Y.d m tXlXVXZX[ tXE.K.",
"L.L.K./.AXlXR.K.G.E.z.a.s.a.D O.u.k.m.s./.lXVXLXFX$Xu.E.[.[.C.L.~.m.m.U.> 2 Y.lXBX&X~.K.x.z.x.s.n.A.I.E.C.U.1 gXI.dXzXUXMXzXW.C.",
"L.s.Y.zX$XY.K.K.C.` XXF |.F 3 e |.A.A.V.Y.CXD 9.BX'.C.x.G.C.L.~ A./ s.8.# y XX8.9. Xa.L.Q.I.L.C.n./.Y.'.A [ v U.Y.(.R.LXCXR.a.'.",
"s.L.zXbXK.V.E.s.A F U 4 V 3 r y d f 0 Y f M 4.-.w 1.'.k.I.z.( : A Y.C.2 & O 7.CX1 6.L s.k.K.L.S.A.k.a.Q = 8 & j _ R.jX! 7 8.A.q ",
"p x #.$.a m *.& & t O.... a *.t *  .> y %.p t z u g z   X.7 m u t a p p p p a $.z #.X...v 0 + # * l - t z p &.z g X...b & k # - ",
"qXrXeXuXuXpXc.w & w 9X<X0XN }.6X1.oXiXqXwX3XrXqXMXtX7 z g oX9XaX3XiXqXqXiXrXrXwXqXeX8X2XeX X1.& w I.dXcXtXtXzXuX5X7X4X,Xh . =.oX",
"W.h.g.W.g.u./.;Xc 9XY.&XK.zXyX+XlXQ.s.E.W.n.m.v.b.j.5.-.vXE.E.u.m.!.E.m.!.!.E.n.F.@X(.k.E.L._ ..7X/.~.n.E.(.!.k.W.Y.N.xX'.a / ~.",
"g.E.E.~.s.x.a.F < rXm.%XA.F.g.[.N.I.V.U.C.z.K.Y.~.g.oX@.rXu.~.[.A.Y.Y.Y.A.I.Y.V.f.C.~.a.XX X) v aX}.S.x.Y.Q.s.C.s.D.J.U.g.g k.G.",
"L.x.z.a.x.E.K.q X.tXn.u.yXL.m.x.S.S.+XW.k.f.m.~.F.f.A.@.2Xm.C.L.E.L.x.m.x.x.x.m.N.x.I.k.G.C.) i 6XY.[.W.E.F.g.~.n.I.G.P.p.p n.S.",
"Y.C.Y.+X[.C.Z.Q t FXG.C.y.~.Y.Y.W.C.F.s.~.~.J.F.G.f. XO.eXI.Y.v.E.C.G.F.s.F.E.G.{.C.~.s.J.a.L.@.<X/.G.L.C.G.G.S.A.C.a.Y.G.} x.s.",
"s.m.k.g.f.N.K.B 8 ,Xn.E.~.+XE.Y.y.l.Q.j.V.%XA.a.'.F.U.*.v.~.Y.^.E.I.E.E.G.~.L.V.E.n.s.G.^.@Xx.r ) x.E.Y.I.g.m.K.E.~.c.E.A.u E.^.",
"G.C.C.+XS./ H r p [ C.n.l.~.H.x.%XD.x.l.L.' P E.Y.k.[ y U.F.F.n.W.C.F.F.g.~.J.K Z.l.G.G.F.S.z.O.XXW.g.{.~.s.C.x.g.H.] J.C.d F.C.",
"K.K./ J .XY M s + +.A.~.] R.A G U.x.|.`.w 2 j h F d l . 0 }.] T.y.'.L V.P.[ _ 3 S [ V.B G 5.v l i kXy.G.E.u.V.G 6.8.2 M a y , 9.",
"m =.x x l t z z k :.M X.#  .O.x %.p =.m t z z x d y %.#.O.=.*. .#.6 a +.n x -.a p -.-.x $.-.& &.%.o m x & >...$.v N t x  .p p =.",
"7XiXeXiXcXuXlXnX2XhX9X8 > 8 nXxXkXE 9XeX9XrX2XrXrXiX7X,XrXuXjX1 ;.- CXcXrX4X6X2XyXtXyX3XrXeXeXuXzXxXgXw >.O h 9X3X3XrXeXiXeXeXwX",
"E.u.E.N.x.k.3Xk.n.m.C._ x 9Xm.u.R.K.x.SXyXs.fXN.C.R.I.Q.k.y.R._ %.1X|.S.$XA.'.~.W.x.!.!.fXwXm.u.H.x.oX( # 7 vX!.E.x.qXx.I.Y.L.L.",
"x.K.K.K.R.I.K.I.A.M.|.m.> fXL.Q.x.k.x.K.x.E.Y.K.zXI.a.s.m.m.s.x.:.<XK.l.x.E.z.}.Y.K./.K.a.x.E.m.C.l.a.c.n 0Xb.y.K.I.7X( P.$XY.V.",
"m.s.Y.lX X;X%XXX}.p.U.f.&.fX.XZ.J.M.s.~.x.s.|.bXcXzXY.C.J.@Xp.g...eXL ~.E.i.L.v.tXR.(./.~.G.F.C.x.L.g.+X+.hXE.[.g.s.s.(.AXSXp.g.",
"a.E./.R.DXnXI.tXx.W.x.F.k wXE.E.+XD.Y.Y.C.C.U.HXlXK._ Y.|.}.V.~...M A.Y.V.+X/.&XHXVXoXR.Y.L.L.L.z.V.G.A.p 0 j.S.~.C.Y.FXFX+XL.E.",
"W.F.#XY.LXHXFX*X~.A.] -.& vXM.n.g.~.z.k.E.~.FX&X@XJ.M.m.u.x.W.f.y g |.F s.[.E.(.ZXLXGXbXF.E.s.s.i.].g.V.l v V.m.C./.bXzX XV./.s.",
"V.Q.P.9XT.ZXvXP.F.W.A.Y - OXz.J.m.j.K.L.L.oXcXY.m.a.H V.L.Y.C.A.} y A b.L D.|.wXx.cXnXR.C.g.m.k.(.K J 5.9 8.Y.Y.] (.SXI.[.J.'.L.",
"F.C.C.$X#X$X~.C.x.i.D r e M ' %XJ.K.U.Y.bX XK.Y._.=X].h 2 5.5.x & o.r q.r 2.y `.JXq.M 2 U `.U.T.P.-Xm } } | ; = kX#XP.) L.s.( K.",
"a y t x $...e a x ..} o.>.  6 9 i t  .e -.x o , - y + O ; d y r - X u u p a ; 9 > X o t g g i a a -.; . p i X.<.+.2.;.& i h s g ",
"eXiXpX<XuXeXqXrX2XiXyXI.R.F Q C U d | 3 V Y Y I A 3 I E F T I F uXkXb t w jXT.cXuXuXuX4X4XrX4XqXpXl.cXmXgXuX8X1XhXvXd p 9 jX0XtX",
"Y.qXqXj.x.x.x.x.v.tXQ.k.v.K.A.S.T.{ n 9XK.] K.Y.H.h.C.S.S.s.a.U.h.R.`.m I.I.m.E.C.(.N.N.N.wXE.j.L.I.!.n.k.N.N.x.b.g.OXt 0Xa.qXb.",
"F.E.E.g.E.C.F.g.x.L.Y.L.L.~.a.m.I.[ d eXE.m.i.G.L.( z.K.E.L.L.E.H.U.|.x iXz.s.S.K.I.I.z.V.K.Y.%XC.Q.x.x.C.C.~.'.m.F.Z.d iX~.Y.D.",
"C.a.C.C.E.C.E.L.~.L.L.Y.S.m.u.E.E.[ g 4XE.M.~.m.s.~.~.u.m.~.W.u.H.P.V.t 3XK.x.C.G.G.G.E.E.E.g.m.I.s.s.lXI.V.Y.C.C.W.K.2 4XV.C.~.",
"~.L.L.m.s.C.~.L.F.u.k.x.x.m.N.G.A.9 } xXC.L.S.z.G.a.x.s.~.s.L.I.^.) C.p fXL.g.m.z.L.s.s.L.L.C.L.@XC.E.I.x.Q.s.x.C.H.U.s qXY.Y.k.",
"S.E.p.W.W.a.^.C.x.K.k.|.L.~.W.i.a.Y i vXM.J.g.x.A.P z.x.G.s.+XL.E.E..X, m }.h.M.C.Y.C.C.G.E.C.m.f.T.m.F.Y.f.~.Y.g.G..X- w }.A.Y.",
"Y.x.E.s.V.Y.V.I.H.H.S.F.Z.@XP [.x.` b / s.[.S.B C Z.E.C.F.I.S.I.V.L.Z 0 5.K.W.D.L.I.E.E.E.x.x.x.|.` (.~.Y.n.C.s.s.[.U ; M D.M.n.",
"s.h.p.~.C.~.E.g.z.x.}.c./.j.[ J N l O n 5.Y q y I Q Y.A.A.Y.F ' G Y d ; 5 T._  XD.S.G.C.J.C.A.Y.F 9 V.A.K.m.Y.z.S D ; u y D Y.) ",
"k l x &. .# z k d e ;. .; g g ..,.=.#.a M , v & } < 5 v n > $ #.g g o.e.:.@ } } m x l y l l *.$.a p d *.x @ e.o.%...#.$.p O.u +.",
"iXwXQ.$XlXZ qXiX0Xw p w xXlXqXcXqX2XeXuXqXqX7Xq * 0 jX XqXiX!.fX0X1X1X8XxX- x 7 qXqX4XeX,XrXqXqX3XuXrX9X8XZ t 5 P.uX4X1XrX7Xw jX",
"j./.Y.K.Z jXK.z.c.[ o.kX}.s.d.b.SXu.u.Q.x.x.v.` | uXx.I.k.c.z.tXY.N.cXd.I..Xd CXE.Q.yXyXQ.tX(.I.j.z.m.( c.` c kX>Xy.qXSXm.~.cXY.",
"~.i.a.K.vX XvX/.Y.( ,.8XV.E.I.z.XXL.A.L.a.K.I.T.z <Xk.C.m.E.d.W.J.K.S.^.x.OX1 aXa.Y.lX9XP.z.K.x.G.J.^.D.~.[.s iXF.z.K.W.~.a.z.u.",
"u.N.x.I.Y.R.AX(.s.Y.2 4Xv.J.C.Y.s.x.E.s./.+X/.vX2.pXm.G.I._ R.V.F.l.K.L.k.9.%.- Y./.nXbXL.V.E.s.P.x.s.P.k.A.v 4XC.I.xX+X>X%XE.g.",
"C.~.L.Y.}.VXBXY.W.a.+.2Xx.) C.x.n.C.'.E.k.v.HXCX$ DXx.m.C.I.H.x.E.A.x.G.s.z.N kX;XGXFXL.C.Y.V.m.Y.g.Y.L.h..Xx tX~./.gXHXY.$XS.C.",
"K.L.L.Y.VX&X|.I.s.] ;.K.S.'.%X`.S.m.g.s.@X&XHXPXr.lX|.E.Y./ W.a.W.S.n.h.M.U.i O.CX X/.C.C.C.~.F.x.f./ V.M..X8 5XY.lXHXLXCXVXY.E.",
"x.m.m.(.zXI.s.k.m.c.u k.f.[.i.R 7.K.N.L.|. XgXmXr.U.` x.~.S.p.Q.s.`./.C.'.[ m c 4.R }.#X~.C.I.z.S.@XY.I.M.6.a ` |.BX}.CXHXC.s.E.",
"+XA.AX=X+XD.~.g.G.`.%.`.h.W.m.tXS V A.C.m.^.zXlXm .X1 C.~.u.M.k.u.F y.n.@X6.4.0.gX9Xk.d.f.M.m.x.x.m.a.C.p.I r H u.k.tX/.+XY.C.L.",
"z.I.gXgX] U.R.U.V.b o d U.T.P.z.w.b h T A.oX7.g < : o.W 4 G `.:X.Xd G _ 6.2 # >.S U.}. XC.|.A..X6.G q 6.T : O : .XD 7.-XD D H 6.",
"d O.| u O.a e p @.+.z x ; z e j &.#.z u x y k  .p a # N O.& , 2 x @  .m m p $ X i a O a r d d t +.u u g : X $.t d g m d = 2 y t ",
"5X4X0Xw NX0 M a 0XaXkXOXO.* ..,.0XuXpXeXqX1X2X6X<X<XsX1XO.& m CX3X4X8X5X5XaXgXZ F V ; t d V T Q G q W U 3 { kX9XrX,XxX0XmXkX, ..",
"J.%X`.U.Y.tX0XuX-.) %XB.K.v 1XzXQ.L.S.E.m.~.GX^.N.s.`.n.}.^ 9Xn.H.I.XX*XW.S.%XJ.S.6.v 7 NXY.E.m.h.s.C.H.@Xs.g.F.E.S.~.m.x.Y.' 2 ",
"x.k.W.k.E.x.C.x.3X~.u.@XI.x uX|.F.~.~.C.S.E.~.G.G.'.m.C.C.3.uXF.I.E.I.s.s.x.x.x.l.f.A.;.6XS.'.~.~.Y.C.L.Y.Y.C.C.E.C.C.I.x.E.6.a ",
"W.x.C.x.C.E.~.L.K.[.s.G.S.m iXN.L.x.k.x.x.x.L.E.u.m.m.h.x.#.eX~.Y.Y.C.L.K.L.L.x.J.C.C.h 1X/.h.s.E.E.~.L.L.x.E.m.p.W.G.C.E.u.XXa ",
"G.p.J.W.C.C.@XC.C.+XI.A.T.=.uXm.E.C.C.~.~.F.m.m.Y.x.C.x.x. .8X$XW.F.g.E.~.g.G.E.L.Q.U.i n 8.F.x.F.F.~.m.m.g.g.g.v.p.E.I.a.E.1 O ",
"x.z.I.z.x.y.I.z.L.f.l.n.( x U.E.U.L.x.x.k.x.s.C.I.C.Y.C.Y.$.Y.D.x.m.m.E.L.G.S.~.G.V.8.> E K.k.m.L.I.Y.Y.Y.K.L.Y.L.F.J.%XS.S.3 p ",
"Y.[.S.S.+XA.G.G.@XF._ D.T i T D.C.G.+X[.G.G.~.g.A.K D.P A.v `.~.G.[.~.G.~.F.s.s.C.B 7 7 6.H.F.@XE.E.x.E.~.Y.+XS.E.g.p.A C.~.' y ",
"k.x.z.K.x.Q.u.u.` ] ! Q : } - J { ] K.y.y.x.U.U.-.r W : f o -.[ j.c.z.K.U.XX6.~ T + % e b U.a.] L.x.s.x.L.L.L.V.8.Z Y = ! `.0 + ",
"m u *.;.@ X.*.-.v q ..g , >.@ r ; y x g a a p z u e *.a , k d w %.%.$.$.$.n l < i &.#.m 7 >.;.X.$.*.m m m m M m y b y =.m v y #.",
"kXw w.m - d kXNXuX6X8X5X2XkXW f f I I I I h s g , G h q A NXbX8X4X2X5X4X4X4XeXeX6X3X3XrX,Xc k 4 gXlXuX9X4X<XeX8X3X3XeX0X8XrX5X8X",
"v.a.E..Xc kXN.z.~.F.F.g.G.F.g.m.k.x.Y.C.s.A N *.NXwXd.=Xu.B.n.!.E.~.E.G.G.G.C.A.G.eX{.Q.L./ m eXk.v.v.Q.tXW.x.s.F.F.C.Y.BX#X$X~.",
"L.s.G.vX! ZX(.I.Y.I.Y.Y.L.K.K.V.+XE.D.].P rXuXn r.CXI.V.K.|.G.R.x.L.K.s.C.L.L.R.bXhX;XW.y.Y.i bXs.C.E.~.G.s.C.~.s.L.Y.vXHX9XI.s.",
"J.m.*X7X0.MX+X*XL.s.s.m.I.W.~.L.D.V.Q.m.!.z.jX0.KXoXm.k.L.A.C.V.E.s.L.L.E.C.~./.nXCX~ &X.XK.-.3X^.L.C.C.G.G.C.E.L./.$XbXlXL.L.E.",
"E.L.gX[ t.UXnXlXg.E.~.g.p.p.F.~.E.D.I.s.k.E.NX4.mXI.^.F.s.g.W.m.F.C.C.E.S.L.Y.lXHXIXHX8.d 7.x pXK.C.C.L.K.L.L.L.C.$XnX$XY.C.x.C.",
"u.K.Y.NX&.IXDXK.L.V.C.L.Y.~.C.A.x.k.j.V.*XbX-X,.- x.C.].Y.k.x.x.I.L.x.K.I.s.K.tX'.CXDXgXW 0  .kXQ.s.C.C.C.C.L.a.R.gX/.K.z.I.s.x.",
"L.Y.F M -.CXI.Y.K.L.L.x.x.I./ L f .XT.V.zXR.! e | I.k.XXL.x.C.z.g.s.m.E.g.g.g.I.>XjXU.E f 0 t Y C.F.@XD.K A i.|.zXyXE.E.g.m.s.W.",
"R = : g } d '.8.A ' U.U.V.A.Y.jXn , ; -X1.1.t X | ` ~.` S ` XX_ A.A.A.U.'.S.S.`.F 2 4 j j i o j 6.T V I f f b 4 `.A.}.U.V.D.P ' ",
"@ $.@ o * < d y e t y y , y l a } t X t y , t & + a r a t y : y t t t t t , t t u $ + O # p $ | 2 > y a e u t O z k > > > x e p "
};
